{
copyright = "Copyright(c) 2012 Abelardo Gonzalez (abbie@abbiecod.es), with Reserved Font Name \"Eulexia-Italic";
customParameters = (
{
name = glyphOrder;
value = (
    ".notdef",
    NULL,
    uni000D,
    space,
    exclam,
    quotedbl,
    numbersign,
    dollar,
    percent,
    ampersand,
    quotesingle,
    parenleft,
    parenright,
    asterisk,
    plus,
    comma,
    hyphen,
    period,
    slash,
    zero,
    one,
    two,
    three,
    four,
    five,
    six,
    seven,
    eight,
    nine,
    colon,
    semicolon,
    less,
    equal,
    greater,
    question,
    at,
    A,
    B,
    C,
    D,
    E,
    F,
    G,
    H,
    I,
    J,
    K,
    L,
    M,
    N,
    O,
    P,
    Q,
    R,
    S,
    T,
    U,
    V,
    W,
    X,
    Y,
    Z,
    bracketleft,
    backslash,
    bracketright,
    asciicircum,
    underscore,
    grave,
    a,
    b,
    c,
    d,
    e,
    f,
    g,
    h,
    i,
    j,
    k,
    l,
    m,
    n,
    o,
    p,
    q,
    r,
    s,
    t,
    u,
    v,
    w,
    x,
    y,
    z,
    braceleft,
    bar,
    braceright,
    asciitilde,
    exclamdown,
    cent,
    sterling,
    currency,
    yen,
    brokenbar,
    section,
    dieresis,
    copyright,
    ordfeminine,
    guillemotleft,
    logicalnot,
    registered,
    macron,
    degree,
    plusminus,
    twosuperior,
    threesuperior,
    acute,
    mu1,
    paragraph,
    periodcentered,
    cedilla,
    onesuperior,
    ordmasculine,
    guillemotright,
    onequarter,
    onehalf,
    threequarters,
    questiondown,
    Agrave,
    Aacute,
    Acircumflex,
    Atilde,
    Adieresis,
    Aring,
    AE,
    Ccedilla,
    Egrave,
    Eacute,
    Ecircumflex,
    Edieresis,
    Igrave,
    Iacute,
    Icircumflex,
    Idieresis,
    Eth,
    Ntilde,
    Ograve,
    Oacute,
    Ocircumflex,
    Otilde,
    Odieresis,
    multiply,
    Oslash,
    Ugrave,
    Uacute,
    Ucircumflex,
    Udieresis,
    Yacute,
    Thorn,
    germandbls,
    agrave,

glyphs = (
{
glyphname = exclam;
lastChange = "2012-07-01 20:32:51 +0000";
layers = (
{
layerId = "48AD09F1-34FF-452A-86DA-A72F7276366E";
name = Regular;
paths = (
{
closed = 1;
nodes = (
"270 389 LINE",
"247 392 OFFCURVE",
"230 399 OFFCURVE",
"211 407 CURVE",
"192 414 OFFCURVE",
"173 420 OFFCURVE",
"150 420 CURVE SMOOTH",
"139 420 OFFCURVE",
"129 420 OFFCURVE",
"119 420 CURVE SMOOTH",
"109 420 OFFCURVE",
"99 420 OFFCURVE",
"88 419 CURVE",
"98 535 LINE SMOOTH",
"111 680 OFFCURVE",
"124 823 OFFCURVE",
"137 966 CURVE SMOOTH",
"150 1109 OFFCURVE",
"161 1252 OFFCURVE",
"170 1395 CURVE",
"221 1379 OFFCURVE",
"272 1373 OFFCURVE",
"328 1372 CURVE",
"324 1295 OFFCURVE",
"319 1206 OFFCURVE",
"314 1116 CURVE SMOOTH",
"309 1026 OFFCURVE",
"303 935 OFFCURVE",
"298 859 CURVE SMOOTH",
"293 782 OFFCURVE",
"289 706 OFFCURVE",
"284 630 CURVE SMOOTH",
"279 554 OFFCURVE",
"275 478 OFFCURVE",
"271 401 CURVE SMOOTH"
);
},
{
closed = 1;
nodes = (
"63 29 LINE",
"64 60 OFFCURVE",
"66 91 OFFCURVE",
"69 124 CURVE SMOOTH",
"70 138 OFFCURVE",
"71 153 OFFCURVE",
"72 168 CURVE",
"72 183 OFFCURVE",
"73 197 OFFCURVE",
"74 211 CURVE",
"105 211 LINE SMOOTH",
"153 211 OFFCURVE",
"201 207 OFFCURVE",
"249 199 CURVE",
"248 192 LINE",
"247 163 OFFCURVE",
"245 133 OFFCURVE",
"244 104 CURVE SMOOTH",
"242 74 OFFCURVE",
"241 44 OFFCURVE",
"240 15 CURVE",
"185 31 OFFCURVE",
"129 37 OFFCURVE",
"68 37 CURVE SMOOTH",
"54 37 LINE"
);
}
);
width = 416;
}
);
unicode = 0021;
},
{
glyphname = quotedbl;
lastChange = "2012-07-01 20:32:51 +0000";
layers = (
{
layerId = "48AD09F1-34FF-452A-86DA-A72F7276366E";
name = Regular;
paths = (
{
closed = 1;
nodes = (
"655 960 OFFCURVE",
"604 964 OFFCURVE",
"553 964 CURVE SMOOTH",
"522 964 LINE",
"519 1007 OFFCURVE",
"518 1048 OFFCURVE",
"518 1091 CURVE SMOOTH",
"518 1175 OFFCURVE",
"522 1258 OFFCURVE",
"527 1341 CURVE SMOOTH",
"529 1376 LINE",
"529 1410 LINE",
"601 1411 OFFCURVE",
"676 1413 OFFCURVE",
"745 1416 CURVE",
"736 1380 OFFCURVE",
"730 1354 OFFCURVE",
"723 1318 CURVE SMOOTH",
"700 1214 OFFCURVE",
"688 1110 OFFCURVE",
"688 1009 CURVE SMOOTH",
"688 986 OFFCURVE",
"689 966 OFFCURVE",
"690 943 CURVE"
);
},
{
closed = 1;
nodes = (
"325 965 LINE",
"294 964 OFFCURVE",
"266 964 OFFCURVE",
"240 964 CURVE",
"213 963 OFFCURVE",
"185 962 OFFCURVE",
"155 961 CURVE",
"170 1057 OFFCURVE",
"177 1152 OFFCURVE",
"177 1247 CURVE SMOOTH",
"177 1306 OFFCURVE",
"174 1362 OFFCURVE",
"167 1419 CURVE",
"240 1412 OFFCURVE",
"304 1411 OFFCURVE",
"377 1411 CURVE",
"366 1274 OFFCURVE",
"348 1131 OFFCURVE",
"329 994 CURVE SMOOTH"
);
}
);
width = 890;
}
);
unicode = 0022;
},
{
glyphname = numbersign;
lastChange = "2012-07-01 20:32:51 +0000";
layers = (
{
layerId = "48AD09F1-34FF-452A-86DA-A72F7276366E";
name = Regular;
paths = (
{
closed = 1;
nodes = (
"972 861 LINE",
"960 821 OFFCURVE",
"949 781 OFFCURVE",
"938 742 CURVE SMOOTH",
"927 703 OFFCURVE",
"915 663 OFFCURVE",
"904 623 CURVE SMOOTH",
"879 531 LINE",
"956 531 OFFCURVE",
"1041 530 OFFCURVE",
"1120 527 CURVE",
"1113 400 LINE",
"1068 402 OFFCURVE",
"1023 404 OFFCURVE",
"980 405 CURVE SMOOTH",
"936 406 OFFCURVE",
"891 407 OFFCURVE",
"846 408 CURVE",
"811 280 OFFCURVE",
"778 142 OFFCURVE",
"747 13 CURVE",
"727 14 OFFCURVE",
"709 15 OFFCURVE",
"692 15 CURVE",
"675 14 OFFCURVE",
"656 14 OFFCURVE",
"637 15 CURVE",
"633 15 OFFCURVE",
"628 15 OFFCURVE",
"623 16 CURVE",
"617 16 OFFCURVE",
"612 16 OFFCURVE",
"607 16 CURVE",
"642 148 OFFCURVE",
"676 278 OFFCURVE",
"712 410 CURVE",
"691 410 OFFCURVE",
"669 410 OFFCURVE",
"645 411 CURVE",
"621 411 OFFCURVE",
"599 411 OFFCURVE",
"578 411 CURVE SMOOTH",
"519 411 OFFCURVE",
"455 410 OFFCURVE",
"395 409 CURVE",
"358 277 OFFCURVE",
"319 144 OFFCURVE",
"276 13 CURVE",
"175 13 LINE",
"168 12 OFFCURVE",
"162 11 OFFCURVE",
"155 10 CURVE SMOOTH",
"148 9 OFFCURVE",
"141 8 OFFCURVE",
"135 7 CURVE",
"182 140 OFFCURVE",
"223 271 OFFCURVE",
"263 406 CURVE",
"189 406 LINE",
"170 405 OFFCURVE",
"151 404 OFFCURVE",
"132 404 CURVE",
"113 403 OFFCURVE",
"93 402 OFFCURVE",
"74 401 CURVE",
"81 448 OFFCURVE",
"85 481 OFFCURVE",
"88 526 CURVE",
"136 527 OFFCURVE",
"172 528 OFFCURVE",
"220 528 CURVE SMOOTH",
"232 528 OFFCURVE",
"245 528 OFFCURVE",
"260 529 CURVE",
"275 529 OFFCURVE",
"288 529 OFFCURVE",
"300 529 CURVE",
"332 636 OFFCURVE",
"367 761 OFFCURVE",
"396 869 CURVE",
"320 869 OFFCURVE",
"240 872 OFFCURVE",
"164 875 CURVE",
"166 898 OFFCURVE",
"167 920 OFFCURVE",
"168 940 CURVE SMOOTH",
"169 959 OFFCURVE",
"170 980 OFFCURVE",
"171 1002 CURVE",
"214 999 OFFCURVE",
"257 997 OFFCURVE",
"300 996 CURVE SMOOTH",
"342 995 OFFCURVE",
"385 993 OFFCURVE",
"428 992 CURVE",
"463 1120 OFFCURVE",
"496 1258 OFFCURVE",
"528 1387 CURVE",
"579 1384 OFFCURVE",
"619 1384 OFFCURVE",
"670 1384 CURVE",
"661 1351 OFFCURVE",
"652 1320 OFFCURVE",
"644 1291 CURVE SMOOTH",
"636 1262 OFFCURVE",
"627 1231 OFFCURVE",
"618 1198 CURVE SMOOTH",
"609 1165 OFFCURVE",
"599 1130 OFFCURVE",
"590 1094 CURVE SMOOTH",
"580 1057 OFFCURVE",
"570 1023 OFFCURVE",
"561 990 CURVE",
"586 989 OFFCURVE",
"612 989 OFFCURVE",
"640 989 CURVE SMOOTH",
"668 989 OFFCURVE",
"695 989 OFFCURVE",
"720 989 CURVE SMOOTH",
"745 989 OFFCURVE",
"771 989 OFFCURVE",
"799 989 CURVE SMOOTH",
"826 989 OFFCURVE",
"853 989 OFFCURVE",
"878 990 CURVE",
"915 1112 LINE SMOOTH",
"943 1203 OFFCURVE",
"972 1298 OFFCURVE",
"1003 1387 CURVE",
"1119 1387 LINE",
"1123 1388 OFFCURVE",
"1127 1389 OFFCURVE",
"1132 1390 CURVE",
"1136 1391 OFFCURVE",
"1140 1392 OFFCURVE",
"1145 1393 CURVE",
"1124 1334 OFFCURVE",
"1104 1278 OFFCURVE",
"1087 1223 CURVE SMOOTH",
"1069 1168 OFFCURVE",
"1050 1111 OFFCURVE",
"1031 1054 CURVE SMOOTH",
"1010 993 LINE",
"1041 994 OFFCURVE",
"1074 995 OFFCURVE",
"1109 996 CURVE SMOOTH",
"1144 997 OFFCURVE",
"1178 998 OFFCURVE",
"1210 999 CURVE",
"1195 875 LINE",
"1182 875 OFFCURVE",
"1163 874 OFFCURVE",
"1151 873 CURVE",
"1096 871 OFFCURVE",
"1040 870 OFFCURVE",
"983 870 CURVE"
);
},
{
closed = 1;
nodes = (
"528 858 LINE",
"499 753 OFFCURVE",
"465 636 OFFCURVE",
"433 531 CURVE",
"590 531 LINE SMOOTH",
"615 531 OFFCURVE",
"641 531 OFFCURVE",
"669 532 CURVE",
"696 532 OFFCURVE",
"722 532 OFFCURVE",
"747 532 CURVE",
"842 868 LINE",
"793 867 OFFCURVE",
"743 867 OFFCURVE",
"691 867 CURVE SMOOTH",
"639 867 OFFCURVE",
"589 867 OFFCURVE",
"540 867 CURVE"
);
}
);
width = 1280;
}
);
unicode = 0023;
},
{
glyphname = dollar;
lastChange = "2012-07-01 20:32:51 +0000";
layers = (
{
layerId = "48AD09F1-34FF-452A-86DA-A72F7276366E";
name = Regular;
paths = (
{
closed = 1;
nodes = (
"517 38 LINE",
"497 38 LINE SMOOTH",
"385 38 OFFCURVE",
"281 71 OFFCURVE",
"203 132 CURVE SMOOTH",
"125 192 OFFCURVE",
"73 280 OFFCURVE",
"69 389 CURVE",
"262 435 LINE",
"273 368 OFFCURVE",
"295 299 OFFCURVE",
"344 259 CURVE SMOOTH",
"389 220 OFFCURVE",
"460 202 OFFCURVE",
"528 198 CURVE",
"531 241 OFFCURVE",
"535 287 OFFCURVE",
"539 335 CURVE SMOOTH",
"542 383 OFFCURVE",
"546 429 OFFCURVE",
"549 472 CURVE SMOOTH",
"562 657 LINE",
"522 668 LINE SMOOTH",
"459 685 OFFCURVE",
"398 703 OFFCURVE",
"343 732 CURVE",
"306 755 OFFCURVE",
"271 783 OFFCURVE",
"244 815 CURVE SMOOTH",
"197 867 OFFCURVE",
"182 936 OFFCURVE",
"182 1011 CURVE SMOOTH",
"182 1016 OFFCURVE",
"182 1022 OFFCURVE",
"182 1027 CURVE SMOOTH",
"182 1032 OFFCURVE",
"182 1038 OFFCURVE",
"183 1043 CURVE",
"184 1066 OFFCURVE",
"187 1086 OFFCURVE",
"191 1109 CURVE",
"206 1174 OFFCURVE",
"238 1240 OFFCURVE",
"298 1283 CURVE SMOOTH",
"343 1315 OFFCURVE",
"394 1335 OFFCURVE",
"447 1348 CURVE SMOOTH",
"499 1360 OFFCURVE",
"554 1365 OFFCURVE",
"607 1366 CURVE",
"613 1495 LINE",
"620 1495 OFFCURVE",
"629 1495 OFFCURVE",
"638 1495 CURVE",
"647 1494 OFFCURVE",
"654 1494 OFFCURVE",
"659 1494 CURVE SMOOTH",
"695 1493 OFFCURVE",
"732 1492 OFFCURVE",
"768 1492 CURVE",
"767 1478 OFFCURVE",
"766 1465 OFFCURVE",
"765 1454 CURVE SMOOTH",
"764 1442 OFFCURVE",
"762 1429 OFFCURVE",
"761 1415 CURVE SMOOTH",
"757 1363 LINE",
"858 1358 OFFCURVE",
"957 1338 OFFCURVE",
"1028 1285 CURVE SMOOTH",
"1101 1229 OFFCURVE",
"1135 1140 OFFCURVE",
"1150 1048 CURVE",
"1131 1044 LINE SMOOTH",
"1070 1031 OFFCURVE",
"1016 1019 OFFCURVE",
"955 1007 CURVE",
"947 1055 OFFCURVE",
"923 1104 OFFCURVE",
"888 1141 CURVE SMOOTH",
"852 1177 OFFCURVE",
"804 1203 OFFCURVE",
"747 1206 CURVE",
"715 798 LINE",
"795 779 OFFCURVE",
"873 758 OFFCURVE",
"944 727 CURVE",
"983 704 OFFCURVE",
"1024 680 OFFCURVE",
"1053 647 CURVE SMOOTH",
"1102 590 OFFCURVE",
"1123 512 OFFCURVE",
"1123 429 CURVE SMOOTH",
"1123 424 OFFCURVE",
"1123 418 OFFCURVE",
"1123 413 CURVE SMOOTH",
"1123 407 OFFCURVE",
"1123 401 OFFCURVE",
"1122 396 CURVE",
"1121 373 OFFCURVE",
"1119 351 OFFCURVE",
"1114 328 CURVE SMOOTH",
"1099 257 OFFCURVE",
"1056 184 OFFCURVE",
"996 133 CURVE",
"900 64 OFFCURVE",
"776 39 OFFCURVE",
"665 36 CURVE",
"659 -122 LINE",
"631 -121 OFFCURVE",
"605 -120 OFFCURVE",
"582 -120 CURVE SMOOTH",
"558 -120 OFFCURVE",
"533 -120 OFFCURVE",
"506 -120 CURVE",
"507 -88 OFFCURVE",
"509 -61 OFFCURVE",
"512 -28 CURVE SMOOTH"
);
},
{
closed = 1;
nodes = (
"935 406 OFFCURVE",
"935 409 OFFCURVE",
"936 412 CURVE",
"936 415 OFFCURVE",
"936 418 OFFCURVE",
"936 421 CURVE SMOOTH",
"936 450 OFFCURVE",
"930 478 OFFCURVE",
"917 503 CURVE SMOOTH",
"904 530 OFFCURVE",
"883 552 OFFCURVE",
"856 568 CURVE SMOOTH",
"821 589 OFFCURVE",
"782 601 OFFCURVE",
"742 612 CURVE SMOOTH",
"703 622 LINE",
"695 515 LINE SMOOTH",
"687 411 OFFCURVE",
"679 302 OFFCURVE",
"674 198 CURVE",
"737 199 OFFCURVE",
"804 213 OFFCURVE",
"856 252 CURVE SMOOTH",
"897 283 OFFCURVE",
"922 326 OFFCURVE",
"931 369 CURVE",
"934 381 OFFCURVE",
"935 392 OFFCURVE",
"935 403 CURVE SMOOTH"
);
},
{
closed = 1;
nodes = (
"368 1031 OFFCURVE",
"368 1027 OFFCURVE",
"368 1024 CURVE SMOOTH",
"368 1021 OFFCURVE",
"368 1017 OFFCURVE",
"368 1014 CURVE SMOOTH",
"368 959 OFFCURVE",
"394 919 OFFCURVE",
"433 889 CURVE SMOOTH",
"472 859 OFFCURVE",
"523 838 OFFCURVE",
"575 829 CURVE",
"583 946 LINE SMOOTH",
"590 1034 OFFCURVE",
"596 1125 OFFCURVE",
"600 1210 CURVE",
"549 1207 OFFCURVE",
"501 1202 OFFCURVE",
"460 1182 CURVE",
"407 1151 OFFCURVE",
"382 1107 OFFCURVE",
"373 1066 CURVE",
"373 1065 OFFCURVE",
"373 1065 OFFCURVE",
"373 1065 CURVE",
"372 1064 OFFCURVE",
"372 1064 OFFCURVE",
"372 1063 CURVE",
"370 1052 OFFCURVE",
"369 1042 OFFCURVE",
"369 1034 CURVE"
);
}
);
width = 1240;
}
);
unicode = 0024;
},
{
glyphname = percent;
lastChange = "2012-07-01 20:32:51 +0000";
layers = (
{
layerId = "48AD09F1-34FF-452A-86DA-A72F7276366E";
name = Regular;
paths = (
{
closed = 1;
nodes = (
"1702 373 OFFCURVE",
"1698 309 OFFCURVE",
"1685 248 CURVE SMOOTH",
"1674 196 OFFCURVE",
"1656 145 OFFCURVE",
"1629 98 CURVE SMOOTH",
"1608 61 OFFCURVE",
"1575 35 OFFCURVE",
"1539 19 CURVE SMOOTH",
"1502 2 OFFCURVE",
"1460 -6 OFFCURVE",
"1423 -6 CURVE SMOOTH",
"1418 -6 OFFCURVE",
"1414 -6 OFFCURVE",
"1410 -6 CURVE SMOOTH",
"1405 -6 OFFCURVE",
"1401 -6 OFFCURVE",
"1396 -5 CURVE",
"1387 -5 LINE SMOOTH",
"1282 -5 OFFCURVE",
"1204 42 OFFCURVE",
"1153 112 CURVE SMOOTH",
"1101 182 OFFCURVE",
"1076 276 OFFCURVE",
"1076 372 CURVE SMOOTH",
"1076 397 OFFCURVE",
"1078 422 OFFCURVE",
"1081 446 CURVE",
"1084 493 OFFCURVE",
"1088 541 OFFCURVE",
"1099 588 CURVE SMOOTH",
"1107 625 OFFCURVE",
"1118 660 OFFCURVE",
"1134 699 CURVE SMOOTH",
"1159 762 OFFCURVE",
"1203 809 OFFCURVE",
"1252 841 CURVE SMOOTH",
"1301 873 OFFCURVE",
"1357 889 OFFCURVE",
"1409 889 CURVE SMOOTH",
"1412 889 OFFCURVE",
"1414 889 OFFCURVE",
"1417 889 CURVE",
"1420 888 OFFCURVE",
"1422 888 OFFCURVE",
"1425 888 CURVE SMOOTH",
"1442 888 LINE SMOOTH",
"1494 888 OFFCURVE",
"1541 875 OFFCURVE",
"1581 851 CURVE SMOOTH",
"1620 827 OFFCURVE",
"1650 791 OFFCURVE",
"1666 746 CURVE SMOOTH",
"1699 654 OFFCURVE",
"1706 569 OFFCURVE",
"1706 481 CURVE SMOOTH",
"1706 473 OFFCURVE",
"1706 465 OFFCURVE",
"1706 458 CURVE",
"1705 450 OFFCURVE",
"1705 442 OFFCURVE",
"1705 434 CURVE"
);
},
{
closed = 1;
nodes = (
"511 16 LINE",
"479 15 OFFCURVE",
"447 15 OFFCURVE",
"414 15 CURVE SMOOTH",
"381 14 OFFCURVE",
"349 13 OFFCURVE",
"317 12 CURVE",
"414 132 OFFCURVE",
"506 252 OFFCURVE",
"594 373 CURVE SMOOTH",
"638 433 OFFCURVE",
"682 494 OFFCURVE",
"726 555 CURVE SMOOTH",
"769 616 OFFCURVE",
"814 677 OFFCURVE",
"859 740 CURVE SMOOTH",
"1016 960 OFFCURVE",
"1173 1179 OFFCURVE",
"1342 1392 CURVE",
"1408 1392 LINE",
"1429 1393 OFFCURVE",
"1449 1394 OFFCURVE",
"1470 1395 CURVE",
"1490 1395 OFFCURVE",
"1510 1396 OFFCURVE",
"1531 1397 CURVE",
"1342 1165 OFFCURVE",
"1171 927 OFFCURVE",
"998 687 CURVE SMOOTH",
"961 635 LINE SMOOTH",
"810 424 OFFCURVE",
"661 216 OFFCURVE",
"501 11 CURVE"
);
},
{
closed = 1;
nodes = (
"462 1413 LINE SMOOTH",
"566 1413 OFFCURVE",
"641 1367 OFFCURVE",
"692 1296 CURVE SMOOTH",
"743 1225 OFFCURVE",
"767 1131 OFFCURVE",
"767 1035 CURVE SMOOTH",
"767 1011 OFFCURVE",
"765 986 OFFCURVE",
"762 962 CURVE",
"759 918 OFFCURVE",
"754 872 OFFCURVE",
"743 828 CURVE SMOOTH",
"728 760 OFFCURVE",
"705 694 OFFCURVE",
"662 633 CURVE SMOOTH",
"634 594 OFFCURVE",
"596 566 OFFCURVE",
"554 547 CURVE SMOOTH",
"512 528 OFFCURVE",
"465 520 OFFCURVE",
"424 520 CURVE SMOOTH",
"417 520 LINE SMOOTH",
"414 520 OFFCURVE",
"411 520 OFFCURVE",
"408 520 CURVE",
"405 519 OFFCURVE",
"401 519 OFFCURVE",
"398 519 CURVE SMOOTH",
"298 519 OFFCURVE",
"232 569 OFFCURVE",
"192 641 CURVE SMOOTH",
"151 713 OFFCURVE",
"136 808 OFFCURVE",
"136 899 CURVE SMOOTH",
"136 912 OFFCURVE",
"136 925 OFFCURVE",
"137 938 CURVE SMOOTH",
"138 950 OFFCURVE",
"138 962 OFFCURVE",
"139 975 CURVE SMOOTH",
"142 1043 OFFCURVE",
"145 1110 OFFCURVE",
"160 1178 CURVE",
"162 1189 OFFCURVE",
"165 1199 OFFCURVE",
"168 1210 CURVE SMOOTH",
"171 1221 OFFCURVE",
"175 1232 OFFCURVE",
"178 1243 CURVE SMOOTH",
"195 1302 OFFCURVE",
"231 1345 OFFCURVE",
"275 1374 CURVE SMOOTH",
"318 1402 OFFCURVE",
"369 1416 OFFCURVE",
"416 1416 CURVE SMOOTH",
"426 1416 OFFCURVE",
"438 1415 OFFCURVE",
"452 1413 CURVE"
);
},
{
closed = 1;
nodes = (
"1540 532 LINE SMOOTH",
"1540 587 OFFCURVE",
"1538 640 OFFCURVE",
"1522 687 CURVE SMOOTH",
"1507 728 OFFCURVE",
"1471 763 OFFCURVE",
"1422 763 CURVE SMOOTH",
"1414 763 LINE SMOOTH",
"1367 763 OFFCURVE",
"1319 732 OFFCURVE",
"1296 687 CURVE SMOOTH",
"1280 655 OFFCURVE",
"1270 623 OFFCURVE",
"1263 591 CURVE SMOOTH",
"1258 570 OFFCURVE",
"1255 549 OFFCURVE",
"1254 528 CURVE SMOOTH",
"1253 507 OFFCURVE",
"1251 487 OFFCURVE",
"1248 466 CURVE SMOOTH",
"1245 441 LINE",
"1245 423 LINE SMOOTH",
"1245 366 OFFCURVE",
"1248 298 OFFCURVE",
"1267 240 CURVE SMOOTH",
"1286 182 OFFCURVE",
"1321 135 OFFCURVE",
"1385 122 CURVE",
"1391 122 LINE SMOOTH",
"1419 122 OFFCURVE",
"1446 136 OFFCURVE",
"1467 157 CURVE SMOOTH",
"1488 177 OFFCURVE",
"1505 204 OFFCURVE",
"1512 229 CURVE",
"1514 234 OFFCURVE",
"1516 241 OFFCURVE",
"1517 248 CURVE SMOOTH",
"1518 255 OFFCURVE",
"1520 262 OFFCURVE",
"1521 267 CURVE SMOOTH",
"1536 331 OFFCURVE",
"1539 386 OFFCURVE",
"1540 442 CURVE SMOOTH"
);
},
{
closed = 1;
nodes = (
"597 980 LINE SMOOTH",
"598 1003 OFFCURVE",
"599 1024 OFFCURVE",
"599 1047 CURVE SMOOTH",
"599 1103 OFFCURVE",
"593 1159 OFFCURVE",
"570 1208 CURVE",
"553 1251 OFFCURVE",
"513 1284 OFFCURVE",
"461 1287 CURVE",
"457 1287 LINE SMOOTH",
"436 1287 OFFCURVE",
"410 1280 OFFCURVE",
"389 1266 CURVE SMOOTH",
"368 1252 OFFCURVE",
"349 1232 OFFCURVE",
"340 1211 CURVE",
"329 1190 OFFCURVE",
"323 1165 OFFCURVE",
"318 1142 CURVE SMOOTH",
"309 1097 OFFCURVE",
"307 1052 OFFCURVE",
"304 1009 CURVE SMOOTH",
"301 967 LINE SMOOTH",
"299 945 OFFCURVE",
"298 923 OFFCURVE",
"298 901 CURVE SMOOTH",
"298 857 OFFCURVE",
"302 813 OFFCURVE",
"310 769 CURVE SMOOTH",
"317 736 OFFCURVE",
"329 705 OFFCURVE",
"348 683 CURVE SMOOTH",
"367 661 OFFCURVE",
"393 647 OFFCURVE",
"425 647 CURVE SMOOTH",
"433 647 LINE SMOOTH",
"462 647 OFFCURVE",
"490 661 OFFCURVE",
"511 681 CURVE SMOOTH",
"532 701 OFFCURVE",
"550 728 OFFCURVE",
"559 755 CURVE SMOOTH",
"567 780 OFFCURVE",
"573 804 OFFCURVE",
"578 828 CURVE SMOOTH",
"589 879 OFFCURVE",
"593 922 OFFCURVE",
"596 965 CURVE SMOOTH"
);
}
);
width = 1835;
}
);
unicode = 0025;
},
{
glyphname = ampersand;
lastChange = "2012-07-01 20:32:51 +0000";
layers = (
{
layerId = "48AD09F1-34FF-452A-86DA-A72F7276366E";
name = Regular;
paths = (
{
closed = 1;
nodes = (
"1073 -3 OFFCURVE",
"968 38 OFFCURVE",
"893 121 CURVE",
"840 77 OFFCURVE",
"783 53 OFFCURVE",
"728 33 CURVE SMOOTH",
"657 6 OFFCURVE",
"587 -1 OFFCURVE",
"518 -2 CURVE SMOOTH",
"500 -2 LINE SMOOTH",
"441 -2 OFFCURVE",
"383 3 OFFCURVE",
"328 17 CURVE SMOOTH",
"273 31 OFFCURVE",
"224 54 OFFCURVE",
"184 90 CURVE SMOOTH",
"128 142 OFFCURVE",
"103 219 OFFCURVE",
"103 303 CURVE SMOOTH",
"103 328 OFFCURVE",
"105 352 OFFCURVE",
"109 376 CURVE",
"110 395 OFFCURVE",
"113 412 OFFCURVE",
"116 428 CURVE SMOOTH",
"133 508 OFFCURVE",
"179 585 OFFCURVE",
"241 650 CURVE SMOOTH",
"303 715 OFFCURVE",
"382 767 OFFCURVE",
"466 799 CURVE",
"445 850 OFFCURVE",
"435 897 OFFCURVE",
"424 940 CURVE",
"416 988 OFFCURVE",
"408 1041 OFFCURVE",
"408 1094 CURVE SMOOTH",
"408 1119 OFFCURVE",
"412 1145 OFFCURVE",
"417 1169 CURVE SMOOTH",
"429 1228 OFFCURVE",
"456 1284 OFFCURVE",
"507 1327 CURVE",
"590 1386 OFFCURVE",
"678 1399 OFFCURVE",
"755 1399 CURVE SMOOTH",
"771 1399 LINE SMOOTH",
"864 1399 OFFCURVE",
"954 1377 OFFCURVE",
"1019 1321 CURVE SMOOTH",
"1068 1281 OFFCURVE",
"1095 1218 OFFCURVE",
"1095 1149 CURVE SMOOTH",
"1095 1143 OFFCURVE",
"1095 1137 OFFCURVE",
"1095 1132 CURVE SMOOTH",
"1095 1126 OFFCURVE",
"1094 1120 OFFCURVE",
"1093 1114 CURVE",
"1093 1103 OFFCURVE",
"1091 1090 OFFCURVE",
"1088 1077 CURVE SMOOTH",
"1069 990 OFFCURVE",
"1008 920 OFFCURVE",
"931 864 CURVE SMOOTH",
"854 807 OFFCURVE",
"760 765 OFFCURVE",
"679 734 CURVE",
"739 607 OFFCURVE",
"810 487 OFFCURVE",
"901 374 CURVE",
"953 431 OFFCURVE",
"992 494 OFFCURVE",
"1024 558 CURVE SMOOTH",
"1055 621 OFFCURVE",
"1079 685 OFFCURVE",
"1099 749 CURVE",
"1115 744 OFFCURVE",
"1130 739 OFFCURVE",
"1145 735 CURVE",
"1159 730 OFFCURVE",
"1174 725 OFFCURVE",
"1191 720 CURVE SMOOTH",
"1247 702 LINE",
"1196 545 OFFCURVE",
"1126 387 OFFCURVE",
"1022 242 CURVE",
"1069 191 OFFCURVE",
"1128 149 OFFCURVE",
"1201 149 CURVE SMOOTH",
"1217 149 LINE SMOOTH",
"1253 149 OFFCURVE",
"1290 154 OFFCURVE",
"1327 164 CURVE",
"1328 105 OFFCURVE",
"1329 60 OFFCURVE",
"1333 3 CURVE",
"1294 -9 OFFCURVE",
"1259 -11 OFFCURVE",
"1219 -11 CURVE SMOOTH",
"1214 -11 OFFCURVE",
"1208 -11 OFFCURVE",
"1203 -11 CURVE SMOOTH",
"1197 -11 OFFCURVE",
"1191 -11 OFFCURVE",
"1186 -10 CURVE"
);
},
{
closed = 1;
nodes = (
"921 1118 OFFCURVE",
"921 1121 OFFCURVE",
"921 1124 CURVE SMOOTH",
"921 1127 OFFCURVE",
"921 1130 OFFCURVE",
"921 1133 CURVE SMOOTH",
"921 1173 OFFCURVE",
"903 1204 OFFCURVE",
"876 1227 CURVE SMOOTH",
"848 1250 OFFCURVE",
"812 1262 OFFCURVE",
"773 1262 CURVE SMOOTH",
"760 1262 LINE SMOOTH",
"717 1262 OFFCURVE",
"670 1252 OFFCURVE",
"633 1219 CURVE",
"604 1187 OFFCURVE",
"592 1156 OFFCURVE",
"585 1125 CURVE SMOOTH",
"582 1110 OFFCURVE",
"580 1096 OFFCURVE",
"580 1084 CURVE SMOOTH",
"580 1065 LINE SMOOTH",
"580 997 OFFCURVE",
"594 930 OFFCURVE",
"623 866 CURVE",
"647 876 LINE SMOOTH",
"702 899 OFFCURVE",
"766 925 OFFCURVE",
"819 963 CURVE SMOOTH",
"871 1001 OFFCURVE",
"912 1048 OFFCURVE",
"920 1115 CURVE"
);
},
{
closed = 1;
nodes = (
"769 253 LINE",
"673 377 OFFCURVE",
"592 510 OFFCURVE",
"524 659 CURVE",
"469 639 OFFCURVE",
"419 606 OFFCURVE",
"380 564 CURVE SMOOTH",
"340 522 OFFCURVE",
"312 472 OFFCURVE",
"301 420 CURVE SMOOTH",
"298 407 OFFCURVE",
"296 391 OFFCURVE",
"295 379 CURVE",
"294 376 OFFCURVE",
"294 373 OFFCURVE",
"294 370 CURVE SMOOTH",
"294 367 OFFCURVE",
"294 364 OFFCURVE",
"294 361 CURVE SMOOTH",
"294 313 OFFCURVE",
"319 273 OFFCURVE",
"350 242 CURVE SMOOTH",
"394 195 OFFCURVE",
"463 181 OFFCURVE",
"531 181 CURVE SMOOTH",
"552 181 LINE SMOOTH",
"573 181 OFFCURVE",
"595 182 OFFCURVE",
"617 184 CURVE SMOOTH",
"656 187 LINE SMOOTH",
"696 190 OFFCURVE",
"735 211 OFFCURVE",
"766 239 CURVE"
);
}
);
width = 1435;
}
);
unicode = 0026;
},
{
glyphname = quotesingle;
lastChange = "2012-07-01 20:32:51 +0000";
layers = (
{
layerId = "48AD09F1-34FF-452A-86DA-A72F7276366E";
name = Regular;
paths = (
{
closed = 1;
nodes = (
"377 936 LINE",
"325 943 OFFCURVE",
"272 946 OFFCURVE",
"216 946 CURVE SMOOTH",
"205 946 OFFCURVE",
"194 946 OFFCURVE",
"183 946 CURVE SMOOTH",
"172 946 OFFCURVE",
"160 946 OFFCURVE",
"149 945 CURVE",
"158 1081 OFFCURVE",
"164 1212 OFFCURVE",
"164 1344 CURVE SMOOTH",
"164 1359 OFFCURVE",
"164 1375 OFFCURVE",
"164 1391 CURVE SMOOTH",
"164 1407 OFFCURVE",
"164 1423 OFFCURVE",
"163 1438 CURVE",
"211 1431 OFFCURVE",
"257 1429 OFFCURVE",
"308 1429 CURVE SMOOTH",
"347 1429 OFFCURVE",
"385 1430 OFFCURVE",
"425 1433 CURVE",
"394 1261 OFFCURVE",
"371 1091 OFFCURVE",
"364 924 CURVE"
);
}
);
width = 530;
}
);
unicode = 0027;
},
{
glyphname = parenleft;
lastChange = "2012-07-01 20:32:51 +0000";
layers = (
{
layerId = "48AD09F1-34FF-452A-86DA-A72F7276366E";
name = Regular;
paths = (
{
closed = 1;
nodes = (
"101 542 LINE",
"108 606 OFFCURVE",
"117 671 OFFCURVE",
"132 736 CURVE SMOOTH",
"155 841 OFFCURVE",
"188 945 OFFCURVE",
"237 1049 CURVE SMOOTH",
"312 1202 OFFCURVE",
"420 1337 OFFCURVE",
"549 1453 CURVE",
"592 1450 OFFCURVE",
"630 1448 OFFCURVE",
"673 1448 CURVE SMOOTH",
"687 1448 OFFCURVE",
"701 1448 OFFCURVE",
"715 1448 CURVE SMOOTH",
"729 1448 OFFCURVE",
"743 1448 OFFCURVE",
"757 1449 CURVE",
"626 1318 OFFCURVE",
"507 1176 OFFCURVE",
"428 1015 CURVE SMOOTH",
"379 911 OFFCURVE",
"344 804 OFFCURVE",
"321 695 CURVE SMOOTH",
"309 639 OFFCURVE",
"301 585 OFFCURVE",
"296 530 CURVE SMOOTH",
"292 479 OFFCURVE",
"289 431 OFFCURVE",
"289 380 CURVE SMOOTH",
"289 263 OFFCURVE",
"302 150 OFFCURVE",
"328 41 CURVE SMOOTH",
"349 -47 OFFCURVE",
"383 -129 OFFCURVE",
"423 -208 CURVE SMOOTH",
"463 -287 OFFCURVE",
"508 -362 OFFCURVE",
"555 -435 CURVE",
"492 -420 OFFCURVE",
"427 -410 OFFCURVE",
"359 -403 CURVE",
"310 -339 OFFCURVE",
"262 -272 OFFCURVE",
"222 -200 CURVE SMOOTH",
"182 -128 OFFCURVE",
"150 -52 OFFCURVE",
"130 31 CURVE SMOOTH",
"105 136 OFFCURVE",
"94 252 OFFCURVE",
"94 371 CURVE SMOOTH",
"94 427 OFFCURVE",
"96 481 OFFCURVE",
"101 537 CURVE"
);
}
);
width = 791;
}
);
unicode = 0028;
},
{
glyphname = parenright;
lastChange = "2012-07-01 20:32:51 +0000";
layers = (
{
layerId = "48AD09F1-34FF-452A-86DA-A72F7276366E";
name = Regular;
paths = (
{
closed = 1;
nodes = (
"689 517 LINE",
"674 390 OFFCURVE",
"651 276 OFFCURVE",
"616 169 CURVE SMOOTH",
"581 61 OFFCURVE",
"523 -73 OFFCURVE",
"418 -206 CURVE SMOOTH",
"365 -273 OFFCURVE",
"307 -335 OFFCURVE",
"243 -394 CURVE",
"200 -390 OFFCURVE",
"155 -390 OFFCURVE",
"110 -390 CURVE SMOOTH",
"97 -390 OFFCURVE",
"84 -390 OFFCURVE",
"72 -390 CURVE SMOOTH",
"59 -390 OFFCURVE",
"46 -390 OFFCURVE",
"33 -391 CURVE",
"164 -264 OFFCURVE",
"284 -119 OFFCURVE",
"360 41 CURVE SMOOTH",
"408 141 OFFCURVE",
"443 253 OFFCURVE",
"466 357 CURVE SMOOTH",
"478 414 OFFCURVE",
"487 470 OFFCURVE",
"492 526 CURVE SMOOTH",
"497 578 OFFCURVE",
"499 629 OFFCURVE",
"499 680 CURVE SMOOTH",
"499 797 OFFCURVE",
"488 909 OFFCURVE",
"461 1017 CURVE SMOOTH",
"441 1098 OFFCURVE",
"409 1177 OFFCURVE",
"372 1253 CURVE SMOOTH",
"335 1328 OFFCURVE",
"293 1401 OFFCURVE",
"253 1470 CURVE SMOOTH",
"238 1495 LINE",
"299 1478 OFFCURVE",
"365 1468 OFFCURVE",
"432 1461 CURVE",
"480 1398 OFFCURVE",
"526 1330 OFFCURVE",
"565 1256 CURVE SMOOTH",
"604 1182 OFFCURVE",
"636 1104 OFFCURVE",
"656 1025 CURVE SMOOTH",
"683 918 OFFCURVE",
"695 794 OFFCURVE",
"695 670 CURVE SMOOTH",
"695 619 OFFCURVE",
"693 569 OFFCURVE",
"689 521 CURVE",
"689 516 OFFCURVE",
"690 514 OFFCURVE",
"691 511 CURVE"
);
}
);
width = 789;
}
);
unicode = 0029;
},
{
glyphname = asterisk;
lastChange = "2012-07-01 20:32:51 +0000";
layers = (
{
layerId = "48AD09F1-34FF-452A-86DA-A72F7276366E";
name = Regular;
paths = (
{
closed = 1;
nodes = (
"499 1128 LINE",
"580 1159 OFFCURVE",
"672 1194 OFFCURVE",
"753 1227 CURVE",
"756 1210 OFFCURVE",
"760 1195 OFFCURVE",
"763 1182 CURVE SMOOTH",
"766 1169 OFFCURVE",
"770 1153 OFFCURVE",
"774 1136 CURVE SMOOTH",
"787 1078 LINE",
"743 1066 OFFCURVE",
"699 1054 OFFCURVE",
"654 1043 CURVE SMOOTH",
"609 1032 OFFCURVE",
"564 1020 OFFCURVE",
"520 1009 CURVE",
"571 929 OFFCURVE",
"629 839 OFFCURVE",
"682 762 CURVE",
"659 749 OFFCURVE",
"636 736 OFFCURVE",
"615 723 CURVE SMOOTH",
"594 710 OFFCURVE",
"571 696 OFFCURVE",
"548 683 CURVE",
"501 759 OFFCURVE",
"457 846 OFFCURVE",
"418 927 CURVE",
"366 850 OFFCURVE",
"307 765 OFFCURVE",
"252 689 CURVE",
"243 694 OFFCURVE",
"235 699 OFFCURVE",
"229 703 CURVE SMOOTH",
"223 707 OFFCURVE",
"215 712 OFFCURVE",
"206 717 CURVE",
"192 726 OFFCURVE",
"178 735 OFFCURVE",
"164 743 CURVE SMOOTH",
"150 751 OFFCURVE",
"136 760 OFFCURVE",
"122 769 CURVE",
"153 804 OFFCURVE",
"182 839 OFFCURVE",
"209 872 CURVE SMOOTH",
"236 905 OFFCURVE",
"265 939 OFFCURVE",
"296 975 CURVE SMOOTH",
"325 1009 LINE",
"298 1015 LINE SMOOTH",
"221 1032 OFFCURVE",
"147 1055 OFFCURVE",
"71 1079 CURVE",
"84 1113 LINE SMOOTH",
"99 1152 OFFCURVE",
"114 1191 OFFCURVE",
"127 1231 CURVE",
"198 1196 OFFCURVE",
"272 1166 OFFCURVE",
"347 1135 CURVE SMOOTH",
"368 1126 LINE",
"371 1174 OFFCURVE",
"371 1229 OFFCURVE",
"371 1284 CURVE SMOOTH",
"371 1299 OFFCURVE",
"371 1315 OFFCURVE",
"371 1330 CURVE",
"370 1345 OFFCURVE",
"370 1360 OFFCURVE",
"370 1373 CURVE SMOOTH",
"370 1378 OFFCURVE",
"370 1384 OFFCURVE",
"370 1389 CURVE",
"369 1394 OFFCURVE",
"369 1399 OFFCURVE",
"369 1404 CURVE",
"382 1403 OFFCURVE",
"394 1403 OFFCURVE",
"405 1403 CURVE SMOOTH",
"416 1403 OFFCURVE",
"427 1403 OFFCURVE",
"438 1403 CURVE SMOOTH",
"536 1403 LINE",
"534 1394 LINE"
);
}
);
width = 855;
}
);
unicode = 002A;
},
{
glyphname = plus;
lastChange = "2012-07-01 20:32:51 +0000";
layers = (
{
layerId = "48AD09F1-34FF-452A-86DA-A72F7276366E";
name = Regular;
paths = (
{
closed = 1;
nodes = (
"575 457 OFFCURVE",
"569 322 OFFCURVE",
"566 189 CURVE",
"550 190 OFFCURVE",
"535 190 OFFCURVE",
"521 190 CURVE SMOOTH",
"506 190 OFFCURVE",
"492 190 OFFCURVE",
"478 190 CURVE SMOOTH",
"391 190 LINE",
"396 259 OFFCURVE",
"401 327 OFFCURVE",
"406 396 CURVE SMOOTH",
"411 464 OFFCURVE",
"417 532 OFFCURVE",
"422 601 CURVE",
"402 601 OFFCURVE",
"380 601 OFFCURVE",
"357 601 CURVE SMOOTH",
"310 601 OFFCURVE",
"262 600 OFFCURVE",
"215 600 CURVE",
"191 599 OFFCURVE",
"169 599 OFFCURVE",
"148 599 CURVE SMOOTH",
"128 599 OFFCURVE",
"108 599 OFFCURVE",
"87 599 CURVE",
"66 598 OFFCURVE",
"45 598 OFFCURVE",
"25 598 CURVE",
"32 655 OFFCURVE",
"36 707 OFFCURVE",
"39 763 CURVE",
"127 760 OFFCURVE",
"214 760 OFFCURVE",
"302 760 CURVE SMOOTH",
"434 760 LINE",
"443 893 OFFCURVE",
"451 1039 OFFCURVE",
"456 1172 CURVE",
"471 1171 OFFCURVE",
"486 1171 OFFCURVE",
"501 1171 CURVE SMOOTH",
"515 1171 OFFCURVE",
"529 1171 OFFCURVE",
"544 1171 CURVE SMOOTH",
"632 1171 LINE",
"622 1043 LINE SMOOTH",
"619 997 OFFCURVE",
"615 950 OFFCURVE",
"611 902 CURVE SMOOTH",
"606 853 OFFCURVE",
"602 806 OFFCURVE",
"599 760 CURVE",
"665 761 OFFCURVE",
"731 761 OFFCURVE",
"798 762 CURVE SMOOTH",
"865 762 OFFCURVE",
"931 763 OFFCURVE",
"998 764 CURVE",
"991 707 OFFCURVE",
"987 654 OFFCURVE",
"984 598 CURVE",
"961 599 OFFCURVE",
"938 599 OFFCURVE",
"916 599 CURVE SMOOTH",
"893 599 OFFCURVE",
"871 599 OFFCURVE",
"849 599 CURVE SMOOTH",
"765 599 OFFCURVE",
"682 597 OFFCURVE",
"586 590 CURVE"
);
}
);
width = 1023;
}
);
unicode = 002B;
},
{
glyphname = comma;
lastChange = "2012-07-01 20:32:51 +0000";
layers = (
{
layerId = "48AD09F1-34FF-452A-86DA-A72F7276366E";
name = Regular;
paths = (
{
closed = 1;
nodes = (
"365 182 LINE SMOOTH",
"360 139 OFFCURVE",
"354 92 OFFCURVE",
"351 49 CURVE SMOOTH",
"348 10 OFFCURVE",
"343 -31 OFFCURVE",
"335 -70 CURVE SMOOTH",
"331 -89 OFFCURVE",
"326 -109 OFFCURVE",
"319 -129 CURVE SMOOTH",
"304 -174 OFFCURVE",
"282 -222 OFFCURVE",
"255 -265 CURVE",
"228 -262 OFFCURVE",
"204 -262 OFFCURVE",
"175 -262 CURVE SMOOTH",
"151 -262 OFFCURVE",
"121 -263 OFFCURVE",
"97 -264 CURVE",
"146 -199 OFFCURVE",
"196 -125 OFFCURVE",
"212 -49 CURVE SMOOTH",
"213 -44 OFFCURVE",
"214 -38 OFFCURVE",
"215 -31 CURVE",
"215 -24 OFFCURVE",
"216 -17 OFFCURVE",
"217 -10 CURVE",
"134 -10 LINE",
"141 69 OFFCURVE",
"146 152 OFFCURVE",
"147 228 CURVE",
"188 222 OFFCURVE",
"230 219 OFFCURVE",
"273 219 CURVE SMOOTH",
"309 219 OFFCURVE",
"344 221 OFFCURVE",
"371 234 CURVE"
);
}
);
width = 470;
}
);
unicode = 002C;
},
{
glyphname = hyphen;
lastChange = "2012-07-01 20:32:51 +0000";
layers = (
{
layerId = "48AD09F1-34FF-452A-86DA-A72F7276366E";
name = Regular;
paths = (
{
closed = 1;
nodes = (
"164 443 LINE",
"172 462 OFFCURVE",
"178 483 OFFCURVE",
"183 504 CURVE SMOOTH",
"188 527 OFFCURVE",
"190 549 OFFCURVE",
"190 572 CURVE SMOOTH",
"190 595 OFFCURVE",
"188 615 OFFCURVE",
"183 633 CURVE",
"279 630 OFFCURVE",
"358 630 OFFCURVE",
"455 630 CURVE SMOOTH",
"540 630 OFFCURVE",
"619 630 OFFCURVE",
"703 633 CURVE",
"696 616 OFFCURVE",
"692 600 OFFCURVE",
"688 581 CURVE SMOOTH",
"684 560 OFFCURVE",
"681 539 OFFCURVE",
"681 518 CURVE SMOOTH",
"681 497 OFFCURVE",
"684 476 OFFCURVE",
"689 455 CURVE",
"593 458 OFFCURVE",
"514 458 OFFCURVE",
"417 458 CURVE SMOOTH",
"330 458 OFFCURVE",
"243 457 OFFCURVE",
"156 455 CURVE"
);
}
);
width = 847;
}
);
unicode = 002D;
},
{
glyphname = period;
lastChange = "2012-07-01 20:32:51 +0000";
layers = (
{
layerId = "48AD09F1-34FF-452A-86DA-A72F7276366E";
name = Regular;
paths = (
{
closed = 1;
nodes = (
"156 96 OFFCURVE",
"167 180 OFFCURVE",
"167 268 CURVE SMOOTH",
"167 277 OFFCURVE",
"167 285 OFFCURVE",
"167 293 CURVE SMOOTH",
"167 301 OFFCURVE",
"167 309 OFFCURVE",
"166 318 CURVE",
"214 314 OFFCURVE",
"267 313 OFFCURVE",
"318 313 CURVE SMOOTH",
"356 313 OFFCURVE",
"395 314 OFFCURVE",
"435 316 CURVE",
"420 229 OFFCURVE",
"411 148 OFFCURVE",
"411 67 CURVE SMOOTH",
"411 58 OFFCURVE",
"412 49 OFFCURVE",
"413 40 CURVE",
"413 21 LINE SMOOTH",
"413 16 OFFCURVE",
"412 14 OFFCURVE",
"410 14 CURVE SMOOTH",
"406 14 LINE SMOOTH",
"399 14 OFFCURVE",
"388 14 OFFCURVE",
"374 15 CURVE",
"360 15 OFFCURVE",
"346 15 OFFCURVE",
"331 15 CURVE SMOOTH",
"316 15 OFFCURVE",
"303 15 OFFCURVE",
"291 16 CURVE",
"279 16 OFFCURVE",
"271 16 OFFCURVE",
"268 16 CURVE SMOOTH",
"223 16 OFFCURVE",
"180 15 OFFCURVE",
"141 4 CURVE"
);
}
);
width = 576;
}
);
unicode = 002E;
},
{
glyphname = slash;
lastChange = "2012-07-01 20:32:51 +0000";
layers = (
{
layerId = "48AD09F1-34FF-452A-86DA-A72F7276366E";
name = Regular;
paths = (
{
closed = 1;
nodes = (
"20 -42 LINE",
"143 286 OFFCURVE",
"252 610 OFFCURVE",
"365 941 CURVE SMOOTH",
"395 1028 OFFCURVE",
"425 1115 OFFCURVE",
"454 1202 CURVE SMOOTH",
"483 1289 OFFCURVE",
"512 1376 OFFCURVE",
"543 1463 CURVE",
"608 1464 OFFCURVE",
"672 1470 OFFCURVE",
"736 1489 CURVE",
"674 1322 OFFCURVE",
"616 1158 OFFCURVE",
"561 996 CURVE SMOOTH",
"506 833 OFFCURVE",
"450 669 OFFCURVE",
"393 503 CURVE SMOOTH",
"222 -1 LINE",
"188 -1 LINE SMOOTH",
"164 -1 OFFCURVE",
"145 -1 OFFCURVE",
"125 -4 CURVE",
"104 -8 OFFCURVE",
"80 -13 OFFCURVE",
"51 -21 CURVE"
);
}
);
width = 754;
}
);
unicode = 002F;
},
{
glyphname = zero;
lastChange = "2012-07-01 20:32:51 +0000";
layers = (
{
layerId = "48AD09F1-34FF-452A-86DA-A72F7276366E";
name = Regular;
paths = (
{
closed = 1;
nodes = (
"1033 621 OFFCURVE",
"1025 538 OFFCURVE",
"1006 454 CURVE SMOOTH",
"987 365 OFFCURVE",
"954 273 OFFCURVE",
"907 189 CURVE",
"867 129 OFFCURVE",
"811 85 OFFCURVE",
"752 57 CURVE SMOOTH",
"692 28 OFFCURVE",
"628 15 OFFCURVE",
"569 15 CURVE SMOOTH",
"566 15 OFFCURVE",
"562 15 OFFCURVE",
"558 16 CURVE",
"554 16 OFFCURVE",
"550 16 OFFCURVE",
"547 16 CURVE SMOOTH",
"479 16 OFFCURVE",
"413 30 OFFCURVE",
"354 58 CURVE SMOOTH",
"295 85 OFFCURVE",
"245 124 OFFCURVE",
"212 176 CURVE",
"183 232 OFFCURVE",
"164 296 OFFCURVE",
"153 362 CURVE SMOOTH",
"141 428 OFFCURVE",
"137 495 OFFCURVE",
"137 563 CURVE SMOOTH",
"137 611 OFFCURVE",
"137 658 OFFCURVE",
"142 705 CURVE SMOOTH",
"148 762 LINE SMOOTH",
"156 834 OFFCURVE",
"166 909 OFFCURVE",
"181 981 CURVE SMOOTH",
"198 1061 OFFCURVE",
"229 1150 OFFCURVE",
"272 1225 CURVE",
"313 1286 OFFCURVE",
"372 1329 OFFCURVE",
"434 1355 CURVE SMOOTH",
"496 1381 OFFCURVE",
"562 1392 OFFCURVE",
"622 1392 CURVE SMOOTH",
"641 1392 LINE SMOOTH",
"709 1392 OFFCURVE",
"776 1379 OFFCURVE",
"835 1352 CURVE SMOOTH",
"894 1325 OFFCURVE",
"944 1286 OFFCURVE",
"976 1234 CURVE",
"1032 1125 OFFCURVE",
"1047 1001 OFFCURVE",
"1047 876 CURVE SMOOTH",
"1047 847 OFFCURVE",
"1046 818 OFFCURVE",
"1045 790 CURVE SMOOTH",
"1043 761 OFFCURVE",
"1041 733 OFFCURVE",
"1040 704 CURVE"
);
},
{
closed = 1;
nodes = (
"904 874 OFFCURVE",
"906 913 OFFCURVE",
"906 952 CURVE SMOOTH",
"906 1036 OFFCURVE",
"898 1118 OFFCURVE",
"863 1187 CURVE SMOOTH",
"844 1226 OFFCURVE",
"812 1254 OFFCURVE",
"773 1272 CURVE SMOOTH",
"734 1290 OFFCURVE",
"689 1298 OFFCURVE",
"642 1298 CURVE SMOOTH",
"622 1298 LINE SMOOTH",
"582 1298 OFFCURVE",
"537 1291 OFFCURVE",
"497 1274 CURVE SMOOTH",
"456 1257 OFFCURVE",
"418 1230 OFFCURVE",
"391 1190 CURVE",
"358 1134 OFFCURVE",
"338 1079 OFFCURVE",
"325 1020 CURVE SMOOTH",
"318 988 OFFCURVE",
"314 957 OFFCURVE",
"311 926 CURVE SMOOTH",
"306 864 OFFCURVE",
"302 814 OFFCURVE",
"300 774 CURVE SMOOTH",
"299 754 OFFCURVE",
"298 734 OFFCURVE",
"298 715 CURVE SMOOTH",
"298 618 OFFCURVE",
"311 538 OFFCURVE",
"339 488 CURVE SMOOTH",
"367 438 OFFCURVE",
"410 401 OFFCURVE",
"463 382 CURVE SMOOTH",
"490 372 OFFCURVE",
"519 367 OFFCURVE",
"550 367 CURVE SMOOTH",
"565 367 LINE SMOOTH",
"568 367 OFFCURVE",
"570 367 OFFCURVE",
"573 367 CURVE",
"575 366 OFFCURVE",
"578 366 OFFCURVE",
"581 366 CURVE SMOOTH",
"634 366 OFFCURVE",
"692 386 OFFCURVE",
"740 421 CURVE SMOOTH",
"788 456 OFFCURVE",
"826 504 OFFCURVE",
"843 559 CURVE",
"859 599 OFFCURVE",
"870 640 OFFCURVE",
"878 680 CURVE SMOOTH",
"889 733 OFFCURVE",
"896 784 OFFCURVE",
"901 835 CURVE SMOOTH"
);
}
);
width = 1185;
}
);
unicode = 0030;
},
{
glyphname = one;
lastChange = "2012-07-01 20:32:51 +0000";
layers = (
{
layerId = "48AD09F1-34FF-452A-86DA-A72F7276366E";
name = Regular;
paths = (
{
closed = 1;
nodes = (
"98 13 LINE",
"111 101 OFFCURVE",
"122 186 OFFCURVE",
"133 274 CURVE",
"250 281 OFFCURVE",
"364 283 OFFCURVE",
"480 284 CURVE",
"484 338 LINE SMOOTH",
"507 633 OFFCURVE",
"532 946 OFFCURVE",
"545 1237 CURVE",
"526 1224 OFFCURVE",
"504 1208 OFFCURVE",
"479 1191 CURVE SMOOTH",
"454 1174 OFFCURVE",
"431 1159 OFFCURVE",
"411 1146 CURVE SMOOTH",
"352 1107 OFFCURVE",
"294 1068 OFFCURVE",
"235 1028 CURVE",
"235 1040 OFFCURVE",
"235 1049 OFFCURVE",
"236 1056 CURVE",
"237 1069 OFFCURVE",
"239 1099 OFFCURVE",
"240 1130 CURVE SMOOTH",
"241 1145 OFFCURVE",
"241 1161 OFFCURVE",
"241 1176 CURVE",
"556 1375 LINE",
"620 1375 LINE",
"635 1374 OFFCURVE",
"648 1373 OFFCURVE",
"663 1373 CURVE SMOOTH",
"670 1373 OFFCURVE",
"678 1373 OFFCURVE",
"686 1373 CURVE",
"694 1372 OFFCURVE",
"702 1372 OFFCURVE",
"710 1372 CURVE",
"705 1291 OFFCURVE",
"699 1211 OFFCURVE",
"693 1132 CURVE SMOOTH",
"687 1053 OFFCURVE",
"681 973 OFFCURVE",
"676 892 CURVE SMOOTH",
"661 691 OFFCURVE",
"646 485 OFFCURVE",
"634 284 CURVE",
"738 281 OFFCURVE",
"856 278 OFFCURVE",
"959 271 CURVE",
"959 263 LINE",
"959 257 LINE",
"959 251 LINE",
"959 245 LINE",
"959 239 LINE",
"959 233 LINE",
"959 227 LINE",
"959 221 LINE",
"959 215 LINE",
"959 209 LINE",
"959 203 LINE",
"959 198 LINE",
"959 195 LINE",
"959 192 LINE",
"959 189 LINE",
"959 186 LINE",
"959 183 LINE",
"959 180 LINE",
"958 165 OFFCURVE",
"957 153 OFFCURVE",
"957 141 CURVE SMOOTH",
"957 100 OFFCURVE",
"958 61 OFFCURVE",
"959 18 CURVE SMOOTH",
"959 12 LINE",
"802 31 OFFCURVE",
"643 37 OFFCURVE",
"480 37 CURVE SMOOTH",
"350 37 OFFCURVE",
"220 32 OFFCURVE",
"89 22 CURVE"
);
}
);
width = 1057;
}
);
unicode = 0031;
},
{
glyphname = two;
lastChange = "2012-07-01 20:32:51 +0000";
layers = (
{
layerId = "48AD09F1-34FF-452A-86DA-A72F7276366E";
name = Regular;
paths = (
{
closed = 1;
nodes = (
"113 14 LINE",
"121 62 OFFCURVE",
"128 112 OFFCURVE",
"134 163 CURVE SMOOTH",
"146 257 LINE",
"155 268 LINE",
"177 292 OFFCURVE",
"199 316 OFFCURVE",
"221 341 CURVE SMOOTH",
"264 389 OFFCURVE",
"305 434 OFFCURVE",
"354 474 CURVE SMOOTH",
"402 514 OFFCURVE",
"453 549 OFFCURVE",
"510 589 CURVE SMOOTH",
"566 629 OFFCURVE",
"618 665 OFFCURVE",
"669 705 CURVE SMOOTH",
"720 745 OFFCURVE",
"760 781 OFFCURVE",
"797 822 CURVE SMOOTH",
"833 862 OFFCURVE",
"861 896 OFFCURVE",
"876 932 CURVE SMOOTH",
"883 949 OFFCURVE",
"889 967 OFFCURVE",
"893 984 CURVE SMOOTH",
"896 997 OFFCURVE",
"898 1012 OFFCURVE",
"899 1025 CURVE",
"901 1038 OFFCURVE",
"902 1050 OFFCURVE",
"902 1063 CURVE SMOOTH",
"902 1123 OFFCURVE",
"876 1175 OFFCURVE",
"835 1211 CURVE SMOOTH",
"794 1247 OFFCURVE",
"736 1268 OFFCURVE",
"675 1268 CURVE SMOOTH",
"653 1268 LINE SMOOTH",
"596 1268 OFFCURVE",
"531 1255 OFFCURVE",
"478 1215 CURVE SMOOTH",
"415 1168 OFFCURVE",
"385 1105 OFFCURVE",
"374 1045 CURVE",
"353 1047 OFFCURVE",
"334 1050 OFFCURVE",
"319 1053 CURVE SMOOTH",
"303 1056 OFFCURVE",
"285 1059 OFFCURVE",
"265 1062 CURVE SMOOTH",
"223 1069 LINE",
"224 1074 OFFCURVE",
"224 1078 OFFCURVE",
"225 1081 CURVE SMOOTH",
"226 1084 OFFCURVE",
"227 1088 OFFCURVE",
"228 1094 CURVE",
"245 1174 OFFCURVE",
"285 1258 OFFCURVE",
"358 1311 CURVE SMOOTH",
"445 1375 OFFCURVE",
"546 1392 OFFCURVE",
"641 1392 CURVE SMOOTH",
"665 1392 LINE SMOOTH",
"760 1389 OFFCURVE",
"852 1377 OFFCURVE",
"929 1334 CURVE SMOOTH",
"1020 1283 OFFCURVE",
"1060 1189 OFFCURVE",
"1060 1088 CURVE SMOOTH",
"1060 1069 OFFCURVE",
"1059 1053 OFFCURVE",
"1056 1034 CURVE",
"1055 1029 OFFCURVE",
"1055 1023 OFFCURVE",
"1054 1018 CURVE SMOOTH",
"1053 1012 OFFCURVE",
"1052 1006 OFFCURVE",
"1051 1001 CURVE SMOOTH",
"1035 925 OFFCURVE",
"995 865 OFFCURVE",
"958 817 CURVE SMOOTH",
"921 768 OFFCURVE",
"869 705 OFFCURVE",
"799 626 CURVE SMOOTH",
"764 587 OFFCURVE",
"729 548 OFFCURVE",
"694 511 CURVE",
"647 474 LINE SMOOTH",
"610 445 OFFCURVE",
"572 416 OFFCURVE",
"535 381 CURVE SMOOTH",
"499 348 OFFCURVE",
"446 316 OFFCURVE",
"390 284 CURVE",
"401 284 OFFCURVE",
"415 284 OFFCURVE",
"430 285 CURVE",
"461 285 OFFCURVE",
"492 286 OFFCURVE",
"523 286 CURVE SMOOTH",
"538 286 OFFCURVE",
"552 286 OFFCURVE",
"563 286 CURVE SMOOTH",
"719 286 OFFCURVE",
"869 282 OFFCURVE",
"1022 273 CURVE",
"1022 264 LINE SMOOTH",
"1022 244 OFFCURVE",
"1022 225 OFFCURVE",
"1022 206 CURVE",
"1021 187 OFFCURVE",
"1021 169 OFFCURVE",
"1021 150 CURVE SMOOTH",
"1021 106 OFFCURVE",
"1022 60 OFFCURVE",
"1024 12 CURVE",
"857 31 OFFCURVE",
"689 37 OFFCURVE",
"514 37 CURVE SMOOTH",
"377 37 OFFCURVE",
"241 32 OFFCURVE",
"104 23 CURVE"
);
}
);
width = 1213;
}
);
unicode = 0032;
},
{
glyphname = three;
lastChange = "2012-07-01 20:32:51 +0000";
layers = (
{
layerId = "48AD09F1-34FF-452A-86DA-A72F7276366E";
name = Regular;
paths = (
{
closed = 1;
nodes = (
"1005 358 OFFCURVE",
"1003 327 OFFCURVE",
"996 296 CURVE SMOOTH",
"980 221 OFFCURVE",
"940 144 OFFCURVE",
"872 93 CURVE",
"816 58 OFFCURVE",
"760 40 OFFCURVE",
"705 29 CURVE SMOOTH",
"649 18 OFFCURVE",
"596 16 OFFCURVE",
"544 16 CURVE",
"539 15 OFFCURVE",
"534 15 OFFCURVE",
"529 15 CURVE SMOOTH",
"524 15 OFFCURVE",
"519 15 OFFCURVE",
"514 15 CURVE SMOOTH",
"410 15 OFFCURVE",
"308 43 OFFCURVE",
"232 99 CURVE SMOOTH",
"156 154 OFFCURVE",
"106 236 OFFCURVE",
"106 343 CURVE SMOOTH",
"106 359 LINE",
"296 397 LINE",
"308 342 OFFCURVE",
"344 307 OFFCURVE",
"390 284 CURVE SMOOTH",
"436 261 OFFCURVE",
"491 252 OFFCURVE",
"546 252 CURVE SMOOTH",
"555 252 LINE SMOOTH",
"587 252 OFFCURVE",
"623 254 OFFCURVE",
"657 259 CURVE SMOOTH",
"691 264 OFFCURVE",
"725 276 OFFCURVE",
"757 296 CURVE",
"801 321 OFFCURVE",
"832 368 OFFCURVE",
"835 415 CURVE",
"836 419 OFFCURVE",
"836 423 OFFCURVE",
"836 427 CURVE SMOOTH",
"836 430 OFFCURVE",
"836 434 OFFCURVE",
"836 437 CURVE SMOOTH",
"836 508 OFFCURVE",
"799 559 OFFCURVE",
"747 593 CURVE SMOOTH",
"694 627 OFFCURVE",
"624 642 OFFCURVE",
"557 642 CURVE SMOOTH",
"554 642 OFFCURVE",
"550 642 OFFCURVE",
"547 642 CURVE",
"543 641 OFFCURVE",
"539 641 OFFCURVE",
"536 641 CURVE SMOOTH",
"449 641 LINE",
"453 707 LINE SMOOTH",
"454 718 OFFCURVE",
"454 729 OFFCURVE",
"455 739 CURVE",
"455 748 OFFCURVE",
"456 759 OFFCURVE",
"457 770 CURVE",
"539 770 LINE SMOOTH",
"615 770 OFFCURVE",
"700 784 OFFCURVE",
"768 840 CURVE SMOOTH",
"816 879 OFFCURVE",
"848 934 OFFCURVE",
"860 989 CURVE",
"861 996 OFFCURVE",
"862 1002 OFFCURVE",
"863 1008 CURVE SMOOTH",
"864 1014 OFFCURVE",
"864 1020 OFFCURVE",
"865 1026 CURVE",
"868 1039 OFFCURVE",
"869 1052 OFFCURVE",
"869 1064 CURVE SMOOTH",
"869 1125 OFFCURVE",
"839 1177 OFFCURVE",
"795 1213 CURVE SMOOTH",
"750 1249 OFFCURVE",
"689 1269 OFFCURVE",
"626 1269 CURVE SMOOTH",
"619 1269 LINE SMOOTH",
"560 1268 OFFCURVE",
"489 1257 OFFCURVE",
"433 1216 CURVE SMOOTH",
"366 1167 OFFCURVE",
"339 1098 OFFCURVE",
"330 1037 CURVE",
"289 1054 OFFCURVE",
"236 1062 OFFCURVE",
"184 1070 CURVE",
"185 1074 OFFCURVE",
"186 1079 OFFCURVE",
"187 1086 CURVE SMOOTH",
"188 1092 OFFCURVE",
"189 1097 OFFCURVE",
"190 1101 CURVE",
"198 1140 OFFCURVE",
"212 1180 OFFCURVE",
"233 1217 CURVE SMOOTH",
"254 1254 OFFCURVE",
"282 1288 OFFCURVE",
"318 1313 CURVE SMOOTH",
"406 1376 OFFCURVE",
"512 1392 OFFCURVE",
"608 1392 CURVE SMOOTH",
"626 1392 LINE SMOOTH",
"743 1389 OFFCURVE",
"858 1369 OFFCURVE",
"941 1301 CURVE SMOOTH",
"1000 1253 OFFCURVE",
"1025 1176 OFFCURVE",
"1025 1095 CURVE SMOOTH",
"1025 1062 OFFCURVE",
"1021 1027 OFFCURVE",
"1016 995 CURVE",
"1001 928 OFFCURVE",
"963 866 OFFCURVE",
"911 816 CURVE SMOOTH",
"858 766 OFFCURVE",
"789 730 OFFCURVE",
"717 721 CURVE",
"713 698 LINE",
"794 694 OFFCURVE",
"868 664 OFFCURVE",
"921 615 CURVE SMOOTH",
"974 566 OFFCURVE",
"1007 499 OFFCURVE",
"1007 419 CURVE SMOOTH",
"1007 414 OFFCURVE",
"1007 410 OFFCURVE",
"1007 405 CURVE SMOOTH",
"1007 400 OFFCURVE",
"1007 394 OFFCURVE",
"1006 389 CURVE"
);
}
);
width = 1166;
}
);
unicode = 0033;
},
{
glyphname = four;
lastChange = "2012-07-01 20:32:51 +0000";
layers = (
{
layerId = "48AD09F1-34FF-452A-86DA-A72F7276366E";
name = Regular;
paths = (
{
closed = 1;
nodes = (
"843 327 LINE",
"846 223 OFFCURVE",
"853 122 OFFCURVE",
"865 19 CURVE",
"752 31 OFFCURVE",
"652 33 OFFCURVE",
"536 36 CURVE",
"551 139 OFFCURVE",
"568 240 OFFCURVE",
"585 343 CURVE",
"493 343 LINE SMOOTH",
"333 343 OFFCURVE",
"180 340 OFFCURVE",
"19 331 CURVE",
"24 377 LINE SMOOTH",
"25 390 OFFCURVE",
"27 404 OFFCURVE",
"29 417 CURVE",
"30 430 OFFCURVE",
"32 444 OFFCURVE",
"33 457 CURVE",
"102 552 OFFCURVE",
"172 648 OFFCURVE",
"240 743 CURVE SMOOTH",
"317 848 OFFCURVE",
"393 954 OFFCURVE",
"470 1059 CURVE SMOOTH",
"546 1164 OFFCURVE",
"624 1268 OFFCURVE",
"703 1372 CURVE",
"773 1372 LINE SMOOTH",
"790 1372 OFFCURVE",
"808 1372 OFFCURVE",
"825 1372 CURVE SMOOTH",
"842 1372 OFFCURVE",
"860 1373 OFFCURVE",
"879 1374 CURVE",
"860 1077 OFFCURVE",
"847 781 OFFCURVE",
"840 487 CURVE",
"984 487 LINE",
"981 427 OFFCURVE",
"980 385 OFFCURVE",
"980 330 CURVE",
"969 331 OFFCURVE",
"959 331 OFFCURVE",
"952 332 CURVE",
"945 332 OFFCURVE",
"935 333 OFFCURVE",
"924 334 CURVE SMOOTH",
"913 335 OFFCURVE",
"901 336 OFFCURVE",
"890 337 CURVE SMOOTH",
"879 338 OFFCURVE",
"867 338 OFFCURVE",
"856 339 CURVE"
);
},
{
closed = 1;
nodes = (
"717 1218 LINE",
"699 1219 LINE",
"696 1212 OFFCURVE",
"692 1206 OFFCURVE",
"689 1202 CURVE",
"686 1197 OFFCURVE",
"682 1192 OFFCURVE",
"679 1187 CURVE",
"677 1184 LINE",
"656 1150 LINE",
"648 1135 OFFCURVE",
"638 1121 OFFCURVE",
"626 1104 CURVE SMOOTH",
"481 909 OFFCURVE",
"337 715 OFFCURVE",
"193 518 CURVE",
"189 513 LINE",
"173 503 LINE",
"168 485 LINE",
"285 488 OFFCURVE",
"409 489 OFFCURVE",
"526 489 CURVE SMOOTH",
"612 489 LINE",
"644 714 OFFCURVE",
"678 948 OFFCURVE",
"711 1173 CURVE SMOOTH"
);
}
);
width = 1098;
}
);
unicode = 0034;
},
{
glyphname = five;
lastChange = "2012-07-01 20:32:51 +0000";
layers = (
{
layerId = "48AD09F1-34FF-452A-86DA-A72F7276366E";
name = Regular;
paths = (
{
closed = 1;
nodes = (
"1019 423 OFFCURVE",
"1015 386 OFFCURVE",
"1007 347 CURVE SMOOTH",
"990 266 OFFCURVE",
"958 186 OFFCURVE",
"890 125 CURVE SMOOTH",
"842 81 OFFCURVE",
"786 54 OFFCURVE",
"727 38 CURVE SMOOTH",
"668 22 OFFCURVE",
"608 17 OFFCURVE",
"551 17 CURVE SMOOTH",
"534 17 LINE",
"529 16 OFFCURVE",
"524 16 OFFCURVE",
"519 16 CURVE SMOOTH",
"514 16 OFFCURVE",
"509 16 OFFCURVE",
"504 16 CURVE SMOOTH",
"407 16 OFFCURVE",
"310 40 OFFCURVE",
"237 89 CURVE SMOOTH",
"164 137 OFFCURVE",
"115 211 OFFCURVE",
"112 314 CURVE",
"138 323 OFFCURVE",
"162 330 OFFCURVE",
"185 337 CURVE SMOOTH",
"207 343 OFFCURVE",
"231 350 OFFCURVE",
"257 358 CURVE SMOOTH",
"313 376 LINE",
"326 325 OFFCURVE",
"365 296 OFFCURVE",
"411 277 CURVE SMOOTH",
"457 258 OFFCURVE",
"511 251 OFFCURVE",
"559 246 CURVE",
"627 254 OFFCURVE",
"697 262 OFFCURVE",
"761 294 CURVE",
"794 315 OFFCURVE",
"815 344 OFFCURVE",
"828 374 CURVE SMOOTH",
"841 404 OFFCURVE",
"848 436 OFFCURVE",
"853 465 CURVE SMOOTH",
"857 485 OFFCURVE",
"859 504 OFFCURVE",
"859 523 CURVE SMOOTH",
"859 583 OFFCURVE",
"840 638 OFFCURVE",
"803 679 CURVE SMOOTH",
"755 734 OFFCURVE",
"679 759 OFFCURVE",
"599 759 CURVE SMOOTH",
"588 759 LINE SMOOTH",
"501 759 OFFCURVE",
"408 725 OFFCURVE",
"336 661 CURVE",
"186 661 LINE",
"221 909 OFFCURVE",
"247 1155 OFFCURVE",
"258 1398 CURVE",
"415 1378 OFFCURVE",
"576 1371 OFFCURVE",
"741 1371 CURVE SMOOTH",
"836 1371 OFFCURVE",
"933 1373 OFFCURVE",
"1031 1377 CURVE",
"1018 1248 LINE",
"921 1243 OFFCURVE",
"833 1242 OFFCURVE",
"737 1242 CURVE SMOOTH",
"625 1242 OFFCURVE",
"506 1246 OFFCURVE",
"395 1251 CURVE",
"392 1215 OFFCURVE",
"388 1177 OFFCURVE",
"385 1138 CURVE SMOOTH",
"377 1058 OFFCURVE",
"368 976 OFFCURVE",
"359 897 CURVE SMOOTH",
"354 857 OFFCURVE",
"350 819 OFFCURVE",
"345 783 CURVE",
"438 856 OFFCURVE",
"543 880 OFFCURVE",
"635 880 CURVE SMOOTH",
"640 880 LINE SMOOTH",
"753 880 OFFCURVE",
"861 846 OFFCURVE",
"929 766 CURVE",
"997 695 OFFCURVE",
"1023 597 OFFCURVE",
"1023 493 CURVE SMOOTH",
"1023 488 OFFCURVE",
"1023 482 OFFCURVE",
"1023 477 CURVE SMOOTH",
"1023 471 OFFCURVE",
"1023 465 OFFCURVE",
"1022 460 CURVE"
);
}
);
width = 1137;
}
);
unicode = 0035;
},
{
glyphname = six;
lastChange = "2012-07-01 20:32:51 +0000";
layers = (
{
layerId = "48AD09F1-34FF-452A-86DA-A72F7276366E";
name = Regular;
paths = (
{
closed = 1;
nodes = (
"982 380 OFFCURVE",
"968 302 OFFCURVE",
"933 227 CURVE SMOOTH",
"897 151 OFFCURVE",
"844 100 OFFCURVE",
"796 73 CURVE SMOOTH",
"747 45 OFFCURVE",
"693 28 OFFCURVE",
"640 21 CURVE SMOOTH",
"613 18 OFFCURVE",
"587 16 OFFCURVE",
"562 16 CURVE SMOOTH",
"544 16 LINE SMOOTH",
"476 16 OFFCURVE",
"410 29 OFFCURVE",
"353 54 CURVE SMOOTH",
"296 79 OFFCURVE",
"246 118 OFFCURVE",
"213 170 CURVE SMOOTH",
"148 274 OFFCURVE",
"130 399 OFFCURVE",
"130 527 CURVE SMOOTH",
"130 576 OFFCURVE",
"133 626 OFFCURVE",
"137 673 CURVE SMOOTH",
"145 757 OFFCURVE",
"154 844 OFFCURVE",
"173 928 CURVE SMOOTH",
"193 1025 OFFCURVE",
"230 1130 OFFCURVE",
"289 1219 CURVE SMOOTH",
"326 1276 OFFCURVE",
"379 1320 OFFCURVE",
"438 1349 CURVE SMOOTH",
"497 1377 OFFCURVE",
"561 1392 OFFCURVE",
"621 1392 CURVE SMOOTH",
"626 1392 OFFCURVE",
"630 1392 OFFCURVE",
"635 1392 CURVE SMOOTH",
"639 1392 OFFCURVE",
"643 1392 OFFCURVE",
"647 1391 CURVE",
"652 1391 OFFCURVE",
"656 1391 OFFCURVE",
"661 1392 CURVE",
"665 1392 OFFCURVE",
"669 1392 OFFCURVE",
"673 1392 CURVE SMOOTH",
"756 1392 OFFCURVE",
"834 1369 OFFCURVE",
"894 1326 CURVE SMOOTH",
"954 1282 OFFCURVE",
"995 1219 OFFCURVE",
"1006 1138 CURVE",
"991 1134 OFFCURVE",
"977 1131 OFFCURVE",
"965 1129 CURVE SMOOTH",
"941 1125 OFFCURVE",
"913 1119 OFFCURVE",
"891 1115 CURVE",
"880 1112 OFFCURVE",
"868 1110 OFFCURVE",
"857 1107 CURVE",
"846 1154 OFFCURVE",
"818 1194 OFFCURVE",
"779 1223 CURVE SMOOTH",
"740 1252 OFFCURVE",
"690 1270 OFFCURVE",
"641 1270 CURVE SMOOTH",
"628 1270 LINE SMOOTH",
"568 1270 OFFCURVE",
"509 1243 OFFCURVE",
"461 1203 CURVE SMOOTH",
"412 1162 OFFCURVE",
"372 1106 OFFCURVE",
"352 1050 CURVE SMOOTH",
"336 1003 OFFCURVE",
"324 956 OFFCURVE",
"313 911 CURVE",
"300 848 OFFCURVE",
"292 783 OFFCURVE",
"287 718 CURVE",
"304 716 LINE",
"336 773 OFFCURVE",
"385 818 OFFCURVE",
"441 847 CURVE SMOOTH",
"497 876 OFFCURVE",
"560 892 OFFCURVE",
"617 892 CURVE SMOOTH",
"636 892 LINE SMOOTH",
"744 892 OFFCURVE",
"841 855 OFFCURVE",
"904 780 CURVE SMOOTH",
"965 708 OFFCURVE",
"988 610 OFFCURVE",
"988 509 CURVE SMOOTH",
"988 493 OFFCURVE",
"987 477 OFFCURVE",
"986 461 CURVE SMOOTH"
);
},
{
closed = 1;
nodes = (
"862 575 OFFCURVE",
"863 587 OFFCURVE",
"863 598 CURVE SMOOTH",
"863 663 OFFCURVE",
"835 718 OFFCURVE",
"791 756 CURVE SMOOTH",
"746 794 OFFCURVE",
"685 816 OFFCURVE",
"618 816 CURVE SMOOTH",
"603 816 LINE SMOOTH",
"539 815 OFFCURVE",
"462 799 OFFCURVE",
"403 758 CURVE SMOOTH",
"355 723 OFFCURVE",
"327 673 OFFCURVE",
"316 624 CURVE SMOOTH",
"315 619 OFFCURVE",
"314 614 OFFCURVE",
"314 609 CURVE",
"313 604 OFFCURVE",
"313 599 OFFCURVE",
"312 594 CURVE",
"311 582 OFFCURVE",
"310 570 OFFCURVE",
"310 558 CURVE SMOOTH",
"310 490 OFFCURVE",
"329 428 OFFCURVE",
"372 383 CURVE SMOOTH",
"419 332 OFFCURVE",
"486 304 OFFCURVE",
"562 304 CURVE SMOOTH",
"576 304 LINE SMOOTH",
"639 304 OFFCURVE",
"709 319 OFFCURVE",
"766 363 CURVE",
"818 410 OFFCURVE",
"843 463 OFFCURVE",
"854 514 CURVE",
"857 531 OFFCURVE",
"859 548 OFFCURVE",
"860 563 CURVE"
);
}
);
width = 1129;
}
);
unicode = 0036;
},
{
glyphname = seven;
lastChange = "2012-07-01 20:32:51 +0000";
layers = (
{
layerId = "48AD09F1-34FF-452A-86DA-A72F7276366E";
name = Regular;
paths = (
{
closed = 1;
nodes = (
"974 1267 LINE",
"874 1098 OFFCURVE",
"775 921 OFFCURVE",
"683 749 CURVE SMOOTH",
"600 598 OFFCURVE",
"537 436 OFFCURVE",
"504 279 CURVE SMOOTH",
"485 194 OFFCURVE",
"475 116 OFFCURVE",
"474 32 CURVE",
"402 36 OFFCURVE",
"339 37 OFFCURVE",
"270 37 CURVE SMOOTH",
"199 37 LINE",
"204 80 OFFCURVE",
"210 123 OFFCURVE",
"219 166 CURVE SMOOTH",
"248 303 OFFCURVE",
"301 438 OFFCURVE",
"372 570 CURVE SMOOTH",
"497 806 OFFCURVE",
"654 1030 OFFCURVE",
"829 1253 CURVE",
"725 1248 OFFCURVE",
"604 1243 OFFCURVE",
"500 1243 CURVE SMOOTH",
"359 1243 OFFCURVE",
"221 1248 OFFCURVE",
"84 1263 CURVE",
"84 1288 OFFCURVE",
"84 1310 OFFCURVE",
"85 1331 CURVE",
"85 1351 OFFCURVE",
"85 1373 OFFCURVE",
"85 1398 CURVE",
"230 1379 OFFCURVE",
"377 1371 OFFCURVE",
"530 1371 CURVE SMOOTH",
"685 1371 OFFCURVE",
"836 1380 OFFCURVE",
"992 1397 CURVE",
"986 1358 LINE SMOOTH",
"981 1326 OFFCURVE",
"976 1294 OFFCURVE",
"972 1262 CURVE"
);
}
);
width = 1032;
}
);
unicode = 0037;
},
{
glyphname = eight;
lastChange = "2012-07-01 20:32:51 +0000";
layers = (
{
layerId = "48AD09F1-34FF-452A-86DA-A72F7276366E";
name = Regular;
paths = (
{
closed = 1;
nodes = (
"1016 330 OFFCURVE",
"1004 261 OFFCURVE",
"970 194 CURVE SMOOTH",
"936 127 OFFCURVE",
"874 83 OFFCURVE",
"822 60 CURVE SMOOTH",
"769 36 OFFCURVE",
"714 25 OFFCURVE",
"658 22 CURVE SMOOTH",
"630 20 OFFCURVE",
"603 19 OFFCURVE",
"576 19 CURVE SMOOTH",
"553 19 LINE SMOOTH",
"492 19 OFFCURVE",
"429 25 OFFCURVE",
"370 38 CURVE SMOOTH",
"311 51 OFFCURVE",
"258 75 OFFCURVE",
"214 111 CURVE SMOOTH",
"150 164 OFFCURVE",
"124 249 OFFCURVE",
"124 337 CURVE SMOOTH",
"124 357 OFFCURVE",
"125 376 OFFCURVE",
"128 396 CURVE",
"129 413 OFFCURVE",
"131 428 OFFCURVE",
"134 443 CURVE",
"149 504 OFFCURVE",
"175 566 OFFCURVE",
"220 618 CURVE SMOOTH",
"271 674 OFFCURVE",
"344 714 OFFCURVE",
"420 725 CURVE",
"423 747 LINE",
"351 764 OFFCURVE",
"293 803 OFFCURVE",
"258 859 CURVE SMOOTH",
"225 912 OFFCURVE",
"209 976 OFFCURVE",
"209 1044 CURVE SMOOTH",
"209 1048 OFFCURVE",
"209 1052 OFFCURVE",
"210 1056 CURVE",
"210 1060 OFFCURVE",
"210 1064 OFFCURVE",
"210 1068 CURVE SMOOTH",
"210 1109 OFFCURVE",
"221 1169 OFFCURVE",
"254 1231 CURVE SMOOTH",
"287 1293 OFFCURVE",
"347 1331 OFFCURVE",
"397 1352 CURVE SMOOTH",
"447 1373 OFFCURVE",
"499 1385 OFFCURVE",
"551 1389 CURVE SMOOTH",
"576 1391 OFFCURVE",
"601 1392 OFFCURVE",
"626 1392 CURVE SMOOTH",
"638 1392 LINE SMOOTH",
"695 1391 OFFCURVE",
"754 1386 OFFCURVE",
"807 1372 CURVE SMOOTH",
"860 1358 OFFCURVE",
"911 1335 OFFCURVE",
"952 1302 CURVE SMOOTH",
"1011 1255 OFFCURVE",
"1040 1173 OFFCURVE",
"1040 1090 CURVE SMOOTH",
"1040 1079 OFFCURVE",
"1039 1067 OFFCURVE",
"1038 1056 CURVE",
"1032 1017 LINE",
"1020 961 OFFCURVE",
"995 905 OFFCURVE",
"955 856 CURVE",
"914 800 OFFCURVE",
"846 763 OFFCURVE",
"775 750 CURVE",
"771 728 LINE",
"852 713 OFFCURVE",
"922 678 OFFCURVE",
"963 618 CURVE SMOOTH",
"1002 563 OFFCURVE",
"1018 495 OFFCURVE",
"1018 420 CURVE SMOOTH",
"1018 415 OFFCURVE",
"1018 411 OFFCURVE",
"1018 407 CURVE",
"1017 402 OFFCURVE",
"1017 398 OFFCURVE",
"1017 393 CURVE SMOOTH"
);
},
{
closed = 1;
nodes = (
"885 1102 OFFCURVE",
"887 1116 OFFCURVE",
"887 1129 CURVE SMOOTH",
"887 1190 OFFCURVE",
"859 1240 OFFCURVE",
"816 1274 CURVE SMOOTH",
"773 1308 OFFCURVE",
"714 1327 OFFCURVE",
"653 1327 CURVE SMOOTH",
"650 1327 OFFCURVE",
"647 1327 OFFCURVE",
"644 1327 CURVE",
"641 1326 OFFCURVE",
"638 1326 OFFCURVE",
"635 1326 CURVE SMOOTH",
"604 1326 OFFCURVE",
"570 1324 OFFCURVE",
"538 1317 CURVE SMOOTH",
"505 1310 OFFCURVE",
"473 1300 OFFCURVE",
"448 1281 CURVE",
"397 1236 OFFCURVE",
"376 1188 OFFCURVE",
"367 1144 CURVE",
"362 1125 OFFCURVE",
"360 1106 OFFCURVE",
"360 1087 CURVE SMOOTH",
"360 1082 LINE",
"359 1073 OFFCURVE",
"358 1064 OFFCURVE",
"358 1055 CURVE SMOOTH",
"358 992 OFFCURVE",
"382 937 OFFCURVE",
"422 897 CURVE SMOOTH",
"462 857 OFFCURVE",
"519 832 OFFCURVE",
"584 832 CURVE SMOOTH",
"587 832 OFFCURVE",
"591 832 OFFCURVE",
"594 833 CURVE",
"597 833 OFFCURVE",
"600 833 OFFCURVE",
"603 833 CURVE SMOOTH",
"662 834 OFFCURVE",
"735 844 OFFCURVE",
"796 891 CURVE",
"843 934 OFFCURVE",
"863 984 OFFCURVE",
"874 1035 CURVE SMOOTH",
"878 1054 OFFCURVE",
"881 1070 OFFCURVE",
"882 1085 CURVE"
);
},
{
closed = 1;
nodes = (
"911 470 OFFCURVE",
"912 477 OFFCURVE",
"912 485 CURVE SMOOTH",
"912 558 OFFCURVE",
"874 613 OFFCURVE",
"818 649 CURVE SMOOTH",
"762 685 OFFCURVE",
"689 703 OFFCURVE",
"618 703 CURVE SMOOTH",
"598 703 LINE",
"523 700 OFFCURVE",
"436 690 OFFCURVE",
"367 645 CURVE SMOOTH",
"303 602 OFFCURVE",
"269 543 OFFCURVE",
"256 484 CURVE SMOOTH",
"255 479 OFFCURVE",
"254 473 OFFCURVE",
"254 468 CURVE",
"253 463 OFFCURVE",
"253 458 OFFCURVE",
"252 453 CURVE",
"252 422 OFFCURVE",
"281 379 OFFCURVE",
"326 343 CURVE SMOOTH",
"371 307 OFFCURVE",
"435 278 OFFCURVE",
"504 278 CURVE SMOOTH",
"517 278 OFFCURVE",
"531 279 OFFCURVE",
"544 281 CURVE",
"569 281 LINE SMOOTH",
"609 281 OFFCURVE",
"650 282 OFFCURVE",
"692 287 CURVE SMOOTH",
"734 291 OFFCURVE",
"777 301 OFFCURVE",
"821 320 CURVE",
"869 344 OFFCURVE",
"895 392 OFFCURVE",
"906 441 CURVE SMOOTH",
"907 446 OFFCURVE",
"908 449 OFFCURVE",
"909 451 CURVE",
"910 452 OFFCURVE",
"910 455 OFFCURVE",
"910 459 CURVE"
);
}
);
width = 1180;
}
);
unicode = 0038;
},
{
glyphname = nine;
lastChange = "2012-07-01 20:32:51 +0000";
layers = (
{
layerId = "48AD09F1-34FF-452A-86DA-A72F7276366E";
name = Regular;
paths = (
{
closed = 1;
nodes = (
"998 705 LINE SMOOTH",
"989 617 OFFCURVE",
"980 529 OFFCURVE",
"961 441 CURVE SMOOTH",
"942 356 OFFCURVE",
"914 269 OFFCURVE",
"870 186 CURVE SMOOTH",
"835 122 OFFCURVE",
"780 80 OFFCURVE",
"717 53 CURVE SMOOTH",
"653 26 OFFCURVE",
"584 16 OFFCURVE",
"521 16 CURVE SMOOTH",
"516 16 OFFCURVE",
"510 16 OFFCURVE",
"504 16 CURVE SMOOTH",
"498 16 OFFCURVE",
"492 16 OFFCURVE",
"487 17 CURVE",
"482 16 OFFCURVE",
"476 16 OFFCURVE",
"470 16 CURVE SMOOTH",
"464 16 OFFCURVE",
"458 16 OFFCURVE",
"453 16 CURVE SMOOTH",
"369 16 OFFCURVE",
"291 40 OFFCURVE",
"232 85 CURVE SMOOTH",
"172 129 OFFCURVE",
"131 194 OFFCURVE",
"123 278 CURVE",
"243 317 LINE SMOOTH",
"256 321 OFFCURVE",
"270 325 OFFCURVE",
"283 329 CURVE SMOOTH",
"296 333 OFFCURVE",
"310 337 OFFCURVE",
"323 342 CURVE",
"350 290 OFFCURVE",
"409 271 OFFCURVE",
"472 271 CURVE SMOOTH",
"478 271 OFFCURVE",
"485 271 OFFCURVE",
"492 271 CURVE SMOOTH",
"499 271 OFFCURVE",
"505 272 OFFCURVE",
"511 273 CURVE",
"550 276 OFFCURVE",
"593 280 OFFCURVE",
"635 293 CURVE SMOOTH",
"677 306 OFFCURVE",
"716 328 OFFCURVE",
"748 365 CURVE",
"795 433 OFFCURVE",
"814 507 OFFCURVE",
"830 583 CURVE SMOOTH",
"857 709 LINE",
"814 665 OFFCURVE",
"785 652 OFFCURVE",
"757 639 CURVE",
"689 614 OFFCURVE",
"615 609 OFFCURVE",
"542 604 CURVE",
"537 604 OFFCURVE",
"532 604 OFFCURVE",
"527 603 CURVE SMOOTH",
"521 602 OFFCURVE",
"515 602 OFFCURVE",
"510 602 CURVE",
"415 607 OFFCURVE",
"317 633 OFFCURVE",
"249 688 CURVE",
"220 719 OFFCURVE",
"197 762 OFFCURVE",
"181 810 CURVE SMOOTH",
"165 857 OFFCURVE",
"155 908 OFFCURVE",
"152 955 CURVE",
"155 991 OFFCURVE",
"159 1039 OFFCURVE",
"167 1075 CURVE SMOOTH",
"183 1151 OFFCURVE",
"215 1225 OFFCURVE",
"278 1284 CURVE SMOOTH",
"322 1325 OFFCURVE",
"377 1353 OFFCURVE",
"434 1370 CURVE SMOOTH",
"490 1386 OFFCURVE",
"549 1392 OFFCURVE",
"602 1392 CURVE SMOOTH",
"609 1392 LINE SMOOTH",
"673 1392 OFFCURVE",
"738 1379 OFFCURVE",
"795 1354 CURVE SMOOTH",
"851 1329 OFFCURVE",
"900 1291 OFFCURVE",
"932 1242 CURVE",
"991 1134 OFFCURVE",
"1007 1007 OFFCURVE",
"1007 882 CURVE SMOOTH",
"1007 831 OFFCURVE",
"1004 780 OFFCURVE",
"1001 731 CURVE"
);
},
{
closed = 1;
nodes = (
"836 963 OFFCURVE",
"837 976 OFFCURVE",
"837 991 CURVE SMOOTH",
"837 1066 OFFCURVE",
"821 1137 OFFCURVE",
"780 1192 CURVE SMOOTH",
"737 1252 OFFCURVE",
"664 1287 OFFCURVE",
"581 1287 CURVE SMOOTH",
"498 1287 OFFCURVE",
"424 1264 OFFCURVE",
"365 1209 CURVE",
"326 1169 OFFCURVE",
"303 1117 OFFCURVE",
"292 1066 CURVE SMOOTH",
"287 1039 OFFCURVE",
"283 1014 OFFCURVE",
"282 990 CURVE",
"282 987 OFFCURVE",
"282 985 OFFCURVE",
"282 982 CURVE",
"281 979 OFFCURVE",
"281 977 OFFCURVE",
"281 974 CURVE SMOOTH",
"281 915 OFFCURVE",
"306 866 OFFCURVE",
"345 829 CURVE SMOOTH",
"393 784 OFFCURVE",
"464 766 OFFCURVE",
"537 766 CURVE SMOOTH",
"584 766 OFFCURVE",
"634 774 OFFCURVE",
"681 797 CURVE SMOOTH",
"714 813 OFFCURVE",
"754 834 OFFCURVE",
"786 857 CURVE",
"815 880 OFFCURVE",
"831 917 OFFCURVE",
"835 948 CURVE"
);
}
);
width = 1146;
}
);
unicode = 0039;
},
{
glyphname = colon;
lastChange = "2012-07-01 20:32:51 +0000";
layers = (
{
layerId = "48AD09F1-34FF-452A-86DA-A72F7276366E";
name = Regular;
paths = (
{
closed = 1;
nodes = (
"175 872 OFFCURVE",
"179 965 OFFCURVE",
"182 1068 CURVE",
"246 1053 OFFCURVE",
"310 1050 OFFCURVE",
"378 1050 CURVE SMOOTH",
"390 1050 OFFCURVE",
"402 1050 OFFCURVE",
"414 1050 CURVE SMOOTH",
"425 1050 OFFCURVE",
"437 1050 OFFCURVE",
"449 1051 CURVE",
"444 1004 OFFCURVE",
"440 957 OFFCURVE",
"437 912 CURVE SMOOTH",
"434 866 OFFCURVE",
"430 819 OFFCURVE",
"425 772 CURVE",
"406 771 OFFCURVE",
"389 771 OFFCURVE",
"375 771 CURVE SMOOTH",
"360 771 OFFCURVE",
"344 771 OFFCURVE",
"325 771 CURVE SMOOTH",
"252 771 LINE SMOOTH",
"223 771 OFFCURVE",
"195 771 OFFCURVE",
"168 768 CURVE"
);
},
{
closed = 1;
nodes = (
"112 79 OFFCURVE",
"117 136 OFFCURVE",
"122 196 CURVE SMOOTH",
"123 214 OFFCURVE",
"125 233 OFFCURVE",
"128 252 CURVE",
"130 271 OFFCURVE",
"132 289 OFFCURVE",
"133 308 CURVE",
"150 309 OFFCURVE",
"165 309 OFFCURVE",
"178 309 CURVE SMOOTH",
"191 309 OFFCURVE",
"206 309 OFFCURVE",
"223 309 CURVE SMOOTH",
"279 309 OFFCURVE",
"333 308 OFFCURVE",
"388 305 CURVE",
"381 204 OFFCURVE",
"380 113 OFFCURVE",
"377 13 CURVE",
"310 26 OFFCURVE",
"246 30 OFFCURVE",
"175 30 CURVE SMOOTH",
"150 30 OFFCURVE",
"125 30 OFFCURVE",
"108 19 CURVE"
);
}
);
width = 557;
}
);
unicode = 003A;
},
{
glyphname = semicolon;
lastChange = "2012-07-01 20:32:51 +0000";
layers = (
{
layerId = "48AD09F1-34FF-452A-86DA-A72F7276366E";
name = Regular;
paths = (
{
closed = 1;
nodes = (
"387 298 LINE",
"384 279 OFFCURVE",
"382 261 OFFCURVE",
"381 244 CURVE SMOOTH",
"380 227 OFFCURVE",
"378 208 OFFCURVE",
"376 189 CURVE SMOOTH",
"363 73 LINE SMOOTH",
"356 18 OFFCURVE",
"351 -35 OFFCURVE",
"340 -88 CURVE SMOOTH",
"333 -119 OFFCURVE",
"324 -154 OFFCURVE",
"313 -186 CURVE SMOOTH",
"293 -245 OFFCURVE",
"259 -306 OFFCURVE",
"220 -362 CURVE",
"169 -353 OFFCURVE",
"111 -350 OFFCURVE",
"59 -350 CURVE",
"135 -255 OFFCURVE",
"195 -148 OFFCURVE",
"218 -40 CURVE SMOOTH",
"222 -21 OFFCURVE",
"225 1 OFFCURVE",
"228 25 CURVE",
"211 26 OFFCURVE",
"192 27 OFFCURVE",
"173 27 CURVE SMOOTH",
"154 27 OFFCURVE",
"135 27 OFFCURVE",
"118 27 CURVE SMOOTH",
"102 27 LINE",
"134 306 LINE",
"194 305 OFFCURVE",
"245 303 OFFCURVE",
"305 300 CURVE SMOOTH"
);
},
{
closed = 1;
nodes = (
"189 870 OFFCURVE",
"199 971 OFFCURVE",
"206 1072 CURVE",
"273 1047 OFFCURVE",
"345 1039 OFFCURVE",
"420 1039 CURVE SMOOTH",
"429 1039 OFFCURVE",
"437 1039 OFFCURVE",
"446 1039 CURVE SMOOTH",
"454 1039 OFFCURVE",
"463 1039 OFFCURVE",
"472 1040 CURVE",
"467 1007 OFFCURVE",
"464 976 OFFCURVE",
"461 947 CURVE SMOOTH",
"458 917 OFFCURVE",
"454 886 OFFCURVE",
"450 854 CURVE SMOOTH",
"438 761 LINE",
"425 760 OFFCURVE",
"415 760 OFFCURVE",
"407 760 CURVE SMOOTH",
"398 760 OFFCURVE",
"388 760 OFFCURVE",
"375 760 CURVE SMOOTH",
"306 760 OFFCURVE",
"240 765 OFFCURVE",
"173 778 CURVE"
);
}
);
width = 532;
}
);
unicode = 003B;
},
{
glyphname = less;
lastChange = "2012-07-01 20:32:51 +0000";
layers = (
{
layerId = "48AD09F1-34FF-452A-86DA-A72F7276366E";
name = Regular;
paths = (
{
closed = 1;
nodes = (
"27 562 LINE",
"40 645 OFFCURVE",
"54 734 OFFCURVE",
"63 818 CURVE",
"273 880 LINE SMOOTH",
"538 959 OFFCURVE",
"803 1038 OFFCURVE",
"1066 1135 CURVE",
"1063 1128 OFFCURVE",
"1060 1120 OFFCURVE",
"1059 1113 CURVE",
"1046 1065 OFFCURVE",
"1034 1016 OFFCURVE",
"1023 968 CURVE",
"828 896 OFFCURVE",
"643 837 OFFCURVE",
"447 774 CURVE SMOOTH",
"199 694 LINE",
"432 561 LINE SMOOTH",
"593 469 OFFCURVE",
"750 379 OFFCURVE",
"906 282 CURVE",
"906 238 LINE",
"902 186 OFFCURVE",
"898 131 OFFCURVE",
"897 79 CURVE",
"812 132 OFFCURVE",
"729 179 OFFCURVE",
"646 226 CURVE SMOOTH",
"562 273 OFFCURVE",
"477 319 OFFCURVE",
"389 367 CURVE SMOOTH",
"265 435 OFFCURVE",
"145 500 OFFCURVE",
"24 571 CURVE"
);
}
);
width = 1191;
}
);
unicode = 003C;
},
{
glyphname = equal;
lastChange = "2012-07-01 20:32:51 +0000";
layers = (
{
layerId = "48AD09F1-34FF-452A-86DA-A72F7276366E";
name = Regular;
paths = (
{
closed = 1;
nodes = (
"218 853 OFFCURVE",
"219 871 OFFCURVE",
"219 892 CURVE SMOOTH",
"219 925 OFFCURVE",
"216 961 OFFCURVE",
"211 997 CURVE",
"386 986 OFFCURVE",
"548 983 OFFCURVE",
"725 983 CURVE SMOOTH",
"880 983 OFFCURVE",
"1028 986 OFFCURVE",
"1185 993 CURVE",
"1181 978 OFFCURVE",
"1178 964 OFFCURVE",
"1176 953 CURVE",
"1173 942 OFFCURVE",
"1170 928 OFFCURVE",
"1167 913 CURVE",
"1160 886 OFFCURVE",
"1156 861 OFFCURVE",
"1152 834 CURVE",
"987 830 OFFCURVE",
"835 828 OFFCURVE",
"671 828 CURVE SMOOTH",
"519 828 OFFCURVE",
"367 830 OFFCURVE",
"215 834 CURVE"
);
},
{
closed = 1;
nodes = (
"166 357 OFFCURVE",
"171 378 OFFCURVE",
"175 399 CURVE SMOOTH",
"183 435 OFFCURVE",
"189 468 OFFCURVE",
"196 504 CURVE",
"361 507 OFFCURVE",
"513 509 OFFCURVE",
"678 509 CURVE SMOOTH",
"830 509 OFFCURVE",
"972 507 OFFCURVE",
"1124 504 CURVE",
"1125 448 OFFCURVE",
"1128 399 OFFCURVE",
"1137 343 CURVE",
"961 352 OFFCURVE",
"799 355 OFFCURVE",
"622 355 CURVE SMOOTH",
"465 355 OFFCURVE",
"309 352 OFFCURVE",
"153 346 CURVE"
);
}
);
width = 1330;
}
);
unicode = 003D;
},
{
glyphname = greater;
lastChange = "2012-07-01 20:32:51 +0000";
layers = (
{
layerId = "48AD09F1-34FF-452A-86DA-A72F7276366E";
name = Regular;
paths = (
{
closed = 1;
nodes = (
"145 207 LINE",
"157 254 OFFCURVE",
"168 298 OFFCURVE",
"179 345 CURVE SMOOTH",
"184 368 LINE",
"367 433 OFFCURVE",
"552 495 OFFCURVE",
"735 555 CURVE SMOOTH",
"1004 643 LINE",
"983 655 OFFCURVE",
"962 668 OFFCURVE",
"939 681 CURVE SMOOTH",
"916 694 OFFCURVE",
"892 707 OFFCURVE",
"869 720 CURVE SMOOTH",
"822 747 OFFCURVE",
"774 773 OFFCURVE",
"733 796 CURVE SMOOTH",
"582 880 OFFCURVE",
"436 962 OFFCURVE",
"292 1055 CURVE",
"294 1083 OFFCURVE",
"296 1111 OFFCURVE",
"298 1139 CURVE SMOOTH",
"300 1167 OFFCURVE",
"302 1195 OFFCURVE",
"303 1222 CURVE",
"476 1111 OFFCURVE",
"652 1016 OFFCURVE",
"833 919 CURVE SMOOTH",
"890 888 OFFCURVE",
"947 857 OFFCURVE",
"1004 826 CURVE SMOOTH",
"1060 795 OFFCURVE",
"1116 764 OFFCURVE",
"1172 731 CURVE",
"1157 646 OFFCURVE",
"1148 567 OFFCURVE",
"1137 483 CURVE",
"997 440 LINE SMOOTH",
"850 395 OFFCURVE",
"703 350 OFFCURVE",
"558 305 CURVE SMOOTH",
"412 260 OFFCURVE",
"266 212 OFFCURVE",
"119 160 CURVE"
);
}
);
width = 1195;
}
);
unicode = 003E;
},
{
glyphname = question;
lastChange = "2012-07-01 20:32:51 +0000";
layers = (
{
layerId = "48AD09F1-34FF-452A-86DA-A72F7276366E";
name = Regular;
paths = (
{
closed = 1;
nodes = (
"1005 1012 OFFCURVE",
"1002 996 OFFCURVE",
"999 983 CURVE SMOOTH",
"987 924 OFFCURVE",
"962 878 OFFCURVE",
"941 843 CURVE SMOOTH",
"920 807 OFFCURVE",
"887 768 OFFCURVE",
"841 731 CURVE SMOOTH",
"818 712 OFFCURVE",
"794 694 OFFCURVE",
"770 677 CURVE SMOOTH",
"695 623 LINE",
"660 582 OFFCURVE",
"634 546 OFFCURVE",
"610 510 CURVE SMOOTH",
"589 479 OFFCURVE",
"576 448 OFFCURVE",
"569 416 CURVE",
"567 409 OFFCURVE",
"566 402 OFFCURVE",
"566 396 CURVE",
"543 397 OFFCURVE",
"523 397 OFFCURVE",
"504 397 CURVE SMOOTH",
"485 397 OFFCURVE",
"465 397 OFFCURVE",
"442 397 CURVE SMOOTH",
"421 397 OFFCURVE",
"400 397 OFFCURVE",
"379 397 CURVE SMOOTH",
"358 397 OFFCURVE",
"337 397 OFFCURVE",
"316 396 CURVE",
"317 411 OFFCURVE",
"318 417 OFFCURVE",
"322 433 CURVE",
"333 488 OFFCURVE",
"361 546 OFFCURVE",
"408 585 CURVE SMOOTH",
"440 611 LINE SMOOTH",
"483 646 OFFCURVE",
"526 679 OFFCURVE",
"571 710 CURVE SMOOTH",
"626 747 OFFCURVE",
"678 785 OFFCURVE",
"729 828 CURVE SMOOTH",
"782 873 OFFCURVE",
"816 937 OFFCURVE",
"829 998 CURVE",
"830 1005 OFFCURVE",
"831 1012 OFFCURVE",
"832 1018 CURVE SMOOTH",
"833 1024 OFFCURVE",
"833 1030 OFFCURVE",
"834 1035 CURVE",
"831 1098 OFFCURVE",
"815 1159 OFFCURVE",
"778 1208 CURVE SMOOTH",
"758 1236 OFFCURVE",
"728 1252 OFFCURVE",
"695 1261 CURVE SMOOTH",
"662 1269 OFFCURVE",
"625 1272 OFFCURVE",
"589 1272 CURVE SMOOTH",
"509 1272 OFFCURVE",
"423 1255 OFFCURVE",
"351 1198 CURVE SMOOTH",
"291 1149 OFFCURVE",
"255 1079 OFFCURVE",
"240 1008 CURVE",
"204 1013 LINE SMOOTH",
"186 1016 OFFCURVE",
"168 1018 OFFCURVE",
"151 1020 CURVE",
"133 1021 OFFCURVE",
"115 1024 OFFCURVE",
"98 1027 CURVE",
"99 1033 OFFCURVE",
"100 1038 OFFCURVE",
"101 1041 CURVE SMOOTH",
"102 1044 OFFCURVE",
"103 1049 OFFCURVE",
"104 1056 CURVE",
"113 1100 OFFCURVE",
"128 1145 OFFCURVE",
"150 1186 CURVE SMOOTH",
"172 1227 OFFCURVE",
"202 1266 OFFCURVE",
"242 1295 CURVE SMOOTH",
"298 1336 OFFCURVE",
"357 1360 OFFCURVE",
"415 1373 CURVE SMOOTH",
"473 1386 OFFCURVE",
"528 1389 OFFCURVE",
"583 1389 CURVE SMOOTH",
"644 1389 OFFCURVE",
"707 1383 OFFCURVE",
"764 1370 CURVE SMOOTH",
"821 1357 OFFCURVE",
"875 1335 OFFCURVE",
"919 1300 CURVE SMOOTH",
"980 1251 OFFCURVE",
"1010 1171 OFFCURVE",
"1010 1086 CURVE SMOOTH",
"1010 1067 OFFCURVE",
"1009 1048 OFFCURVE",
"1006 1029 CURVE"
);
},
{
closed = 1;
nodes = (
"257 -39 OFFCURVE",
"260 1 OFFCURVE",
"263 44 CURVE SMOOTH",
"266 96 OFFCURVE",
"271 148 OFFCURVE",
"276 200 CURVE",
"293 201 OFFCURVE",
"309 201 OFFCURVE",
"322 201 CURVE SMOOTH",
"335 201 OFFCURVE",
"351 201 OFFCURVE",
"368 201 CURVE SMOOTH",
"424 201 OFFCURVE",
"480 199 OFFCURVE",
"536 198 CURVE",
"529 103 OFFCURVE",
"528 20 OFFCURVE",
"525 -73 CURVE",
"457 -72 OFFCURVE",
"406 -71 OFFCURVE",
"338 -71 CURVE SMOOTH",
"323 -71 OFFCURVE",
"307 -71 OFFCURVE",
"292 -71 CURVE SMOOTH",
"276 -71 OFFCURVE",
"260 -71 OFFCURVE",
"245 -72 CURVE"
);
}
);
width = 1071;
}
);
unicode = 003F;
},
{
glyphname = at;
lastChange = "2012-07-01 20:32:51 +0000";
layers = (
{
layerId = "48AD09F1-34FF-452A-86DA-A72F7276366E";
name = Regular;
paths = (
{
closed = 1;
nodes = (
"1765 706 OFFCURVE",
"1758 658 OFFCURVE",
"1747 611 CURVE SMOOTH",
"1722 487 OFFCURVE",
"1683 384 OFFCURVE",
"1636 314 CURVE SMOOTH",
"1589 244 OFFCURVE",
"1527 187 OFFCURVE",
"1455 153 CURVE SMOOTH",
"1419 136 OFFCURVE",
"1382 127 OFFCURVE",
"1343 127 CURVE SMOOTH",
"1340 127 OFFCURVE",
"1336 127 OFFCURVE",
"1332 127 CURVE SMOOTH",
"1328 127 OFFCURVE",
"1324 127 OFFCURVE",
"1321 128 CURVE",
"1308 128 LINE SMOOTH",
"1264 128 OFFCURVE",
"1222 142 OFFCURVE",
"1191 166 CURVE SMOOTH",
"1159 190 OFFCURVE",
"1140 226 OFFCURVE",
"1140 270 CURVE SMOOTH",
"1140 277 OFFCURVE",
"1141 285 OFFCURVE",
"1142 292 CURVE",
"1149 369 LINE",
"1127 369 LINE",
"1092 302 OFFCURVE",
"1039 244 OFFCURVE",
"977 202 CURVE SMOOTH",
"915 160 OFFCURVE",
"844 133 OFFCURVE",
"776 133 CURVE SMOOTH",
"756 133 LINE SMOOTH",
"669 133 OFFCURVE",
"591 161 OFFCURVE",
"546 225 CURVE SMOOTH",
"503 285 OFFCURVE",
"489 361 OFFCURVE",
"489 441 CURVE SMOOTH",
"489 458 OFFCURVE",
"490 475 OFFCURVE",
"491 492 CURVE",
"498 565 OFFCURVE",
"512 629 OFFCURVE",
"533 690 CURVE SMOOTH",
"554 751 OFFCURVE",
"589 826 OFFCURVE",
"649 899 CURVE SMOOTH",
"708 971 OFFCURVE",
"786 1024 OFFCURVE",
"868 1049 CURVE SMOOTH",
"909 1062 OFFCURVE",
"949 1068 OFFCURVE",
"990 1068 CURVE SMOOTH",
"1008 1068 LINE SMOOTH",
"1067 1068 OFFCURVE",
"1122 1051 OFFCURVE",
"1166 1022 CURVE SMOOTH",
"1210 993 OFFCURVE",
"1244 948 OFFCURVE",
"1260 895 CURVE",
"1280 895 LINE",
"1283 908 OFFCURVE",
"1288 923 OFFCURVE",
"1293 938 CURVE SMOOTH",
"1298 953 OFFCURVE",
"1303 967 OFFCURVE",
"1308 980 CURVE",
"1332 1050 LINE",
"1355 1050 OFFCURVE",
"1377 1050 OFFCURVE",
"1397 1051 CURVE SMOOTH",
"1416 1052 OFFCURVE",
"1438 1052 OFFCURVE",
"1461 1052 CURVE",
"1406 888 OFFCURVE",
"1358 739 OFFCURVE",
"1311 575 CURVE",
"1295 534 OFFCURVE",
"1282 491 OFFCURVE",
"1271 447 CURVE SMOOTH",
"1268 435 OFFCURVE",
"1266 423 OFFCURVE",
"1265 411 CURVE SMOOTH",
"1264 399 OFFCURVE",
"1262 387 OFFCURVE",
"1261 376 CURVE",
"1260 374 OFFCURVE",
"1260 372 OFFCURVE",
"1260 370 CURVE SMOOTH",
"1260 367 OFFCURVE",
"1260 365 OFFCURVE",
"1260 363 CURVE SMOOTH",
"1260 318 OFFCURVE",
"1288 275 OFFCURVE",
"1336 275 CURVE SMOOTH",
"1347 275 LINE SMOOTH",
"1394 275 OFFCURVE",
"1444 289 OFFCURVE",
"1488 318 CURVE SMOOTH",
"1519 338 OFFCURVE",
"1541 365 OFFCURVE",
"1559 394 CURVE SMOOTH",
"1577 423 OFFCURVE",
"1590 454 OFFCURVE",
"1602 485 CURVE SMOOTH",
"1619 529 OFFCURVE",
"1631 575 OFFCURVE",
"1642 622 CURVE SMOOTH",
"1651 665 OFFCURVE",
"1657 709 OFFCURVE",
"1661 752 CURVE SMOOTH",
"1663 776 OFFCURVE",
"1664 801 OFFCURVE",
"1664 826 CURVE SMOOTH",
"1664 910 OFFCURVE",
"1651 993 OFFCURVE",
"1622 1064 CURVE SMOOTH",
"1582 1161 OFFCURVE",
"1508 1229 OFFCURVE",
"1416 1273 CURVE SMOOTH",
"1324 1317 OFFCURVE",
"1215 1336 OFFCURVE",
"1106 1336 CURVE SMOOTH",
"1098 1336 LINE SMOOTH",
"958 1333 OFFCURVE",
"809 1311 OFFCURVE",
"670 1238 CURVE SMOOTH",
"543 1170 OFFCURVE",
"443 1058 OFFCURVE",
"375 937 CURVE SMOOTH",
"323 841 OFFCURVE",
"290 744 OFFCURVE",
"269 645 CURVE SMOOTH",
"258 592 OFFCURVE",
"250 541 OFFCURVE",
"246 490 CURVE SMOOTH",
"244 469 OFFCURVE",
"243 447 OFFCURVE",
"243 426 CURVE SMOOTH",
"243 334 OFFCURVE",
"260 246 OFFCURVE",
"304 174 CURVE SMOOTH",
"351 99 OFFCURVE",
"420 36 OFFCURVE",
"508 5 CURVE SMOOTH",
"608 -31 OFFCURVE",
"718 -39 OFFCURVE",
"829 -40 CURVE SMOOTH",
"920 -40 OFFCURVE",
"1019 -36 OFFCURVE",
"1111 -25 CURVE SMOOTH",
"1195 -14 OFFCURVE",
"1289 20 OFFCURVE",
"1364 76 CURVE",
"1379 46 OFFCURVE",
"1393 18 OFFCURVE",
"1408 -7 CURVE",
"1422 -33 OFFCURVE",
"1437 -61 OFFCURVE",
"1452 -90 CURVE",
"1352 -146 OFFCURVE",
"1246 -183 OFFCURVE",
"1139 -206 CURVE SMOOTH",
"1032 -230 OFFCURVE",
"924 -240 OFFCURVE",
"820 -240 CURVE SMOOTH",
"673 -240 OFFCURVE",
"533 -217 OFFCURVE",
"412 -154 CURVE SMOOTH",
"309 -101 OFFCURVE",
"223 -11 OFFCURVE",
"179 97 CURVE",
"148 186 OFFCURVE",
"132 299 OFFCURVE",
"132 407 CURVE SMOOTH",
"132 436 OFFCURVE",
"134 464 OFFCURVE",
"137 492 CURVE SMOOTH",
"142 548 OFFCURVE",
"151 609 OFFCURVE",
"163 665 CURVE SMOOTH",
"187 778 OFFCURVE",
"224 887 OFFCURVE",
"281 992 CURVE SMOOTH",
"356 1129 OFFCURVE",
"470 1249 OFFCURVE",
"611 1325 CURVE SMOOTH",
"768 1409 OFFCURVE",
"935 1439 OFFCURVE",
"1094 1439 CURVE SMOOTH",
"1114 1439 LINE SMOOTH",
"1211 1439 OFFCURVE",
"1308 1428 OFFCURVE",
"1396 1401 CURVE SMOOTH",
"1484 1373 OFFCURVE",
"1562 1331 OFFCURVE",
"1625 1268 CURVE SMOOTH",
"1733 1159 OFFCURVE",
"1776 1013 OFFCURVE",
"1776 860 CURVE SMOOTH",
"1776 825 OFFCURVE",
"1773 789 OFFCURVE",
"1769 754 CURVE SMOOTH"
);
},
{
closed = 1;
nodes = (
"1182 929 OFFCURVE",
"1156 962 OFFCURVE",
"1119 977 CURVE",
"1072 992 OFFCURVE",
"1012 1000 OFFCURVE",
"959 1004 CURVE",
"895 991 OFFCURVE",
"835 966 OFFCURVE",
"779 927 CURVE SMOOTH",
"723 887 OFFCURVE",
"676 832 OFFCURVE",
"647 775 CURVE SMOOTH",
"627 734 OFFCURVE",
"608 686 OFFCURVE",
"599 642 CURVE SMOOTH",
"595 623 OFFCURVE",
"592 603 OFFCURVE",
"590 583 CURVE",
"589 579 OFFCURVE",
"589 575 OFFCURVE",
"589 572 CURVE SMOOTH",
"589 568 OFFCURVE",
"589 564 OFFCURVE",
"589 560 CURVE SMOOTH",
"589 517 OFFCURVE",
"598 476 OFFCURVE",
"629 448 CURVE SMOOTH",
"649 429 OFFCURVE",
"673 418 OFFCURVE",
"701 411 CURVE SMOOTH",
"728 404 OFFCURVE",
"756 401 OFFCURVE",
"784 398 CURVE SMOOTH",
"808 396 LINE",
"887 408 OFFCURVE",
"961 448 OFFCURVE",
"1021 505 CURVE SMOOTH",
"1081 561 OFFCURVE",
"1129 632 OFFCURVE",
"1153 707 CURVE",
"1174 800 LINE SMOOTH",
"1180 828 OFFCURVE",
"1185 858 OFFCURVE",
"1189 890 CURVE"
);
}
);
width = 1908;
}
);
unicode = 0040;
},
{
glyphname = A;
lastChange = "2012-07-01 20:32:51 +0000";
layers = (
{
anchors = (
{
name = ogonek;
position = "{1316, 10}";
},
{
name = top;
position = "{731, 1399}";
}
);
layerId = "48AD09F1-34FF-452A-86DA-A72F7276366E";
name = Regular;
paths = (
{
closed = 1;
nodes = (
"1116 23 LINE",
"1093 108 OFFCURVE",
"1076 199 OFFCURVE",
"1059 287 CURVE",
"962 288 OFFCURVE",
"858 289 OFFCURVE",
"761 289 CURVE SMOOTH",
"652 289 OFFCURVE",
"536 288 OFFCURVE",
"425 285 CURVE",
"393 201 OFFCURVE",
"359 113 OFFCURVE",
"324 29 CURVE",
"276 26 OFFCURVE",
"230 24 OFFCURVE",
"186 22 CURVE SMOOTH",
"142 19 OFFCURVE",
"96 16 OFFCURVE",
"48 12 CURVE",
"164 197 OFFCURVE",
"267 386 OFFCURVE",
"364 575 CURVE SMOOTH",
"461 763 OFFCURVE",
"552 954 OFFCURVE",
"643 1143 CURVE SMOOTH",
"679 1219 OFFCURVE",
"718 1299 OFFCURVE",
"755 1375 CURVE",
"824 1372 OFFCURVE",
"887 1372 OFFCURVE",
"958 1372 CURVE",
"1006 1216 OFFCURVE",
"1049 1066 OFFCURVE",
"1092 907 CURVE SMOOTH",
"1109 843 LINE SMOOTH",
"1188 558 OFFCURVE",
"1265 279 OFFCURVE",
"1370 12 CURVE",
"1287 20 OFFCURVE",
"1223 23 OFFCURVE",
"1147 23 CURVE SMOOTH"
);
},
{
closed = 1;
nodes = (
"852 1251 LINE",
"835 1257 LINE",
"823 1218 OFFCURVE",
"807 1178 OFFCURVE",
"788 1139 CURVE SMOOTH",
"769 1100 OFFCURVE",
"751 1060 OFFCURVE",
"734 1020 CURVE",
"654 854 LINE SMOOTH",
"603 750 OFFCURVE",
"546 633 OFFCURVE",
"494 529 CURVE",
"579 530 OFFCURVE",
"672 531 OFFCURVE",
"765 531 CURVE SMOOTH",
"812 531 OFFCURVE",
"858 531 OFFCURVE",
"904 531 CURVE SMOOTH",
"949 531 OFFCURVE",
"993 531 OFFCURVE",
"1036 531 CURVE",
"912 1022 LINE",
"905 1045 OFFCURVE",
"898 1070 OFFCURVE",
"893 1095 CURVE",
"887 1120 OFFCURVE",
"880 1146 OFFCURVE",
"873 1173 CURVE SMOOTH"
);
}
);
width = 1462;
}
);
unicode = 0041;
},
{
glyphname = B;
lastChange = "2012-07-01 20:32:51 +0000";
layers = (
{
layerId = "48AD09F1-34FF-452A-86DA-A72F7276366E";
name = Regular;
paths = (
{
closed = 1;
nodes = (
"1185 368 OFFCURVE",
"1183 336 OFFCURVE",
"1176 307 CURVE SMOOTH",
"1161 235 OFFCURVE",
"1127 164 OFFCURVE",
"1060 116 CURVE",
"1004 81 OFFCURVE",
"943 61 OFFCURVE",
"883 50 CURVE SMOOTH",
"822 39 OFFCURVE",
"763 37 OFFCURVE",
"711 37 CURVE SMOOTH",
"573 37 LINE SMOOTH",
"429 37 OFFCURVE",
"289 34 OFFCURVE",
"144 26 CURVE",
"204 437 OFFCURVE",
"246 846 OFFCURVE",
"246 1249 CURVE SMOOTH",
"246 1300 OFFCURVE",
"245 1349 OFFCURVE",
"244 1398 CURVE",
"405 1381 OFFCURVE",
"569 1373 OFFCURVE",
"736 1373 CURVE SMOOTH",
"821 1373 OFFCURVE",
"909 1362 OFFCURVE",
"980 1326 CURVE SMOOTH",
"1071 1279 OFFCURVE",
"1109 1191 OFFCURVE",
"1109 1099 CURVE SMOOTH",
"1109 1084 OFFCURVE",
"1108 1070 OFFCURVE",
"1106 1055 CURVE SMOOTH",
"1105 1046 OFFCURVE",
"1104 1036 OFFCURVE",
"1103 1027 CURVE SMOOTH",
"1102 1017 OFFCURVE",
"1100 1007 OFFCURVE",
"1098 998 CURVE SMOOTH",
"1087 947 OFFCURVE",
"1067 894 OFFCURVE",
"1036 850 CURVE SMOOTH",
"1004 805 OFFCURVE",
"961 767 OFFCURVE",
"905 750 CURVE",
"903 732 LINE",
"987 728 OFFCURVE",
"1059 694 OFFCURVE",
"1109 641 CURVE SMOOTH",
"1159 588 OFFCURVE",
"1188 514 OFFCURVE",
"1188 434 CURVE SMOOTH",
"1188 423 OFFCURVE",
"1187 412 OFFCURVE",
"1186 397 CURVE SMOOTH"
);
},
{
closed = 1;
nodes = (
"978 1073 OFFCURVE",
"979 1085 OFFCURVE",
"979 1096 CURVE SMOOTH",
"979 1159 OFFCURVE",
"944 1204 OFFCURVE",
"896 1233 CURVE SMOOTH",
"847 1261 OFFCURVE",
"783 1274 OFFCURVE",
"723 1274 CURVE SMOOTH",
"710 1274 LINE SMOOTH",
"611 1274 OFFCURVE",
"503 1278 OFFCURVE",
"407 1282 CURVE",
"404 1137 OFFCURVE",
"397 972 OFFCURVE",
"388 825 CURVE",
"435 824 OFFCURVE",
"484 824 OFFCURVE",
"534 824 CURVE SMOOTH",
"583 824 OFFCURVE",
"632 824 OFFCURVE",
"679 824 CURVE SMOOTH",
"746 824 OFFCURVE",
"815 832 OFFCURVE",
"879 875 CURVE",
"935 919 OFFCURVE",
"959 972 OFFCURVE",
"970 1023 CURVE",
"971 1030 OFFCURVE",
"972 1036 OFFCURVE",
"973 1043 CURVE SMOOTH",
"974 1049 OFFCURVE",
"975 1055 OFFCURVE",
"976 1060 CURVE"
);
},
{
closed = 1;
nodes = (
"1029 479 LINE",
"1029 482 OFFCURVE",
"1029 485 OFFCURVE",
"1030 488 CURVE",
"1030 490 OFFCURVE",
"1030 492 OFFCURVE",
"1030 495 CURVE SMOOTH",
"1030 567 OFFCURVE",
"990 613 OFFCURVE",
"934 639 CURVE SMOOTH",
"878 665 OFFCURVE",
"806 673 OFFCURVE",
"742 673 CURVE SMOOTH",
"725 673 LINE SMOOTH",
"668 673 OFFCURVE",
"611 673 OFFCURVE",
"552 673 CURVE SMOOTH",
"493 673 OFFCURVE",
"435 673 OFFCURVE",
"378 672 CURVE",
"369 547 OFFCURVE",
"356 404 OFFCURVE",
"343 279 CURVE",
"430 282 OFFCURVE",
"525 283 OFFCURVE",
"610 283 CURVE SMOOTH",
"627 283 OFFCURVE",
"643 283 OFFCURVE",
"660 283 CURVE SMOOTH",
"676 283 OFFCURVE",
"692 283 OFFCURVE",
"708 282 CURVE",
"713 282 OFFCURVE",
"718 282 OFFCURVE",
"723 283 CURVE",
"728 283 OFFCURVE",
"733 283 OFFCURVE",
"738 283 CURVE",
"755 284 OFFCURVE",
"773 284 OFFCURVE",
"791 285 CURVE SMOOTH",
"826 286 OFFCURVE",
"862 292 OFFCURVE",
"897 304 CURVE SMOOTH",
"932 316 OFFCURVE",
"975 339 OFFCURVE",
"1000 380 CURVE SMOOTH",
"1012 401 OFFCURVE",
"1020 422 OFFCURVE",
"1025 443 CURVE"
);
}
);
width = 1320;
}
);
unicode = 0042;
},
{
glyphname = C;
lastChange = "2012-07-01 20:32:51 +0000";
layers = (
{
anchors = (
{
name = bottom;
position = "{692, 0}";
},
{
name = top;
position = "{692, 1399}";
}
);
layerId = "48AD09F1-34FF-452A-86DA-A72F7276366E";
name = Regular;
paths = (
{
closed = 1;
nodes = (
"804 1260 LINE SMOOTH",
"744 1260 OFFCURVE",
"678 1249 OFFCURVE",
"615 1225 CURVE SMOOTH",
"551 1201 OFFCURVE",
"491 1164 OFFCURVE",
"446 1112 CURVE SMOOTH",
"377 1035 OFFCURVE",
"334 934 OFFCURVE",
"314 842 CURVE SMOOTH",
"305 798 OFFCURVE",
"303 751 OFFCURVE",
"300 704 CURVE",
"305 644 OFFCURVE",
"312 583 OFFCURVE",
"329 527 CURVE SMOOTH",
"346 471 OFFCURVE",
"375 422 OFFCURVE",
"423 387 CURVE SMOOTH",
"468 354 OFFCURVE",
"520 333 OFFCURVE",
"576 319 CURVE SMOOTH",
"631 305 OFFCURVE",
"688 298 OFFCURVE",
"747 294 CURVE",
"751 294 OFFCURVE",
"755 294 OFFCURVE",
"759 294 CURVE",
"763 293 OFFCURVE",
"767 293 OFFCURVE",
"771 293 CURVE SMOOTH",
"840 293 OFFCURVE",
"913 312 OFFCURVE",
"980 346 CURVE SMOOTH",
"1047 380 OFFCURVE",
"1109 429 OFFCURVE",
"1157 489 CURVE",
"1152 400 OFFCURVE",
"1150 327 OFFCURVE",
"1150 247 CURVE SMOOTH",
"1150 215 OFFCURVE",
"1151 186 OFFCURVE",
"1152 151 CURVE SMOOTH",
"1152 118 LINE",
"1103 79 OFFCURVE",
"1048 43 OFFCURVE",
"989 30 CURVE SMOOTH",
"930 17 OFFCURVE",
"877 14 OFFCURVE",
"821 14 CURVE SMOOTH",
"810 14 OFFCURVE",
"800 14 OFFCURVE",
"791 15 CURVE",
"781 15 OFFCURVE",
"771 15 OFFCURVE",
"760 15 CURVE SMOOTH",
"732 15 LINE SMOOTH",
"643 16 OFFCURVE",
"553 30 OFFCURVE",
"472 58 CURVE SMOOTH",
"391 86 OFFCURVE",
"318 128 OFFCURVE",
"262 188 CURVE",
"215 247 OFFCURVE",
"183 318 OFFCURVE",
"162 394 CURVE SMOOTH",
"141 469 OFFCURVE",
"131 548 OFFCURVE",
"131 627 CURVE SMOOTH",
"131 655 OFFCURVE",
"132 683 OFFCURVE",
"135 711 CURVE SMOOTH",
"140 767 OFFCURVE",
"148 826 OFFCURVE",
"160 882 CURVE SMOOTH",
"185 1001 OFFCURVE",
"235 1123 OFFCURVE",
"330 1218 CURVE SMOOTH",
"395 1283 OFFCURVE",
"478 1327 OFFCURVE",
"564 1354 CURVE SMOOTH",
"650 1381 OFFCURVE",
"739 1391 OFFCURVE",
"819 1391 CURVE SMOOTH",
"830 1391 OFFCURVE",
"840 1391 OFFCURVE",
"850 1392 CURVE",
"860 1392 OFFCURVE",
"870 1392 OFFCURVE",
"881 1392 CURVE SMOOTH",
"948 1392 OFFCURVE",
"1011 1388 OFFCURVE",
"1075 1372 CURVE SMOOTH",
"1138 1357 OFFCURVE",
"1201 1330 OFFCURVE",
"1250 1291 CURVE",
"1230 1142 LINE",
"1157 1178 OFFCURVE",
"1082 1211 OFFCURVE",
"1002 1234 CURVE SMOOTH",
"942 1251 OFFCURVE",
"880 1259 OFFCURVE",
"812 1260 CURVE SMOOTH"
);
}
);
width = 1383;
}
);
unicode = 0043;
},
{
glyphname = D;
lastChange = "2012-07-01 20:32:51 +0000";
layers = (
{
anchors = (
{
name = center;
position = "{739, 700}";
},
{
name = top;
position = "{739, 1399}";
}
);
layerId = "48AD09F1-34FF-452A-86DA-A72F7276366E";
name = Regular;
paths = (
{
closed = 1;
nodes = (
"1342 668 OFFCURVE",
"1335 615 OFFCURVE",
"1324 563 CURVE SMOOTH",
"1299 444 OFFCURVE",
"1247 321 OFFCURVE",
"1160 221 CURVE",
"1093 153 OFFCURVE",
"1015 107 OFFCURVE",
"934 78 CURVE SMOOTH",
"853 49 OFFCURVE",
"769 37 OFFCURVE",
"692 37 CURVE SMOOTH",
"617 37 LINE SMOOTH",
"460 37 OFFCURVE",
"306 34 OFFCURVE",
"147 25 CURVE",
"211 422 OFFCURVE",
"252 816 OFFCURVE",
"252 1204 CURVE SMOOTH",
"252 1269 OFFCURVE",
"251 1334 OFFCURVE",
"248 1399 CURVE",
"395 1384 OFFCURVE",
"541 1377 OFFCURVE",
"693 1374 CURVE SMOOTH",
"790 1371 OFFCURVE",
"890 1361 OFFCURVE",
"981 1336 CURVE SMOOTH",
"1072 1311 OFFCURVE",
"1155 1270 OFFCURVE",
"1220 1207 CURVE SMOOTH",
"1269 1159 OFFCURVE",
"1302 1100 OFFCURVE",
"1323 1034 CURVE SMOOTH",
"1343 968 OFFCURVE",
"1351 894 OFFCURVE",
"1351 821 CURVE SMOOTH",
"1351 786 OFFCURVE",
"1349 754 OFFCURVE",
"1346 719 CURVE SMOOTH"
);
},
{
closed = 1;
nodes = (
"1197 829 OFFCURVE",
"1198 847 OFFCURVE",
"1198 866 CURVE SMOOTH",
"1198 969 OFFCURVE",
"1168 1064 OFFCURVE",
"1093 1127 CURVE SMOOTH",
"1037 1174 OFFCURVE",
"973 1203 OFFCURVE",
"903 1220 CURVE SMOOTH",
"833 1236 OFFCURVE",
"758 1243 OFFCURVE",
"686 1244 CURVE SMOOTH",
"642 1245 OFFCURVE",
"596 1247 OFFCURVE",
"548 1248 CURVE SMOOTH",
"500 1249 OFFCURVE",
"454 1251 OFFCURVE",
"410 1253 CURVE",
"407 944 OFFCURVE",
"385 647 OFFCURVE",
"354 346 CURVE",
"454 349 OFFCURVE",
"563 350 OFFCURVE",
"663 350 CURVE SMOOTH",
"669 350 LINE SMOOTH",
"726 350 OFFCURVE",
"787 357 OFFCURVE",
"847 374 CURVE SMOOTH",
"907 390 OFFCURVE",
"966 417 OFFCURVE",
"1018 457 CURVE",
"1114 541 OFFCURVE",
"1164 640 OFFCURVE",
"1184 737 CURVE SMOOTH",
"1189 762 OFFCURVE",
"1192 787 OFFCURVE",
"1195 810 CURVE SMOOTH"
);
}
);
width = 1478;
}
);
unicode = 0044;
},
{
glyphname = E;
lastChange = "2012-07-01 20:32:51 +0000";
layers = (
{
anchors = (
{
name = bottom;
position = "{617, 0}";
},
{
name = ogonek;
position = "{1110, 10}";
},
{
name = top;
position = "{617, 1399}";
}
);
layerId = "48AD09F1-34FF-452A-86DA-A72F7276366E";
name = Regular;
paths = (
{
closed = 1;
nodes = (
"201 438 OFFCURVE",
"244 852 OFFCURVE",
"244 1264 CURVE SMOOTH",
"244 1309 OFFCURVE",
"243 1354 OFFCURVE",
"242 1398 CURVE",
"414 1379 OFFCURVE",
"593 1372 OFFCURVE",
"772 1372 CURVE SMOOTH",
"891 1372 OFFCURVE",
"1013 1373 OFFCURVE",
"1133 1380 CURVE",
"1131 1367 OFFCURVE",
"1130 1356 OFFCURVE",
"1129 1346 CURVE SMOOTH",
"1128 1336 OFFCURVE",
"1126 1325 OFFCURVE",
"1125 1314 CURVE",
"1116 1248 LINE",
"996 1243 OFFCURVE",
"889 1241 OFFCURVE",
"770 1241 CURVE SMOOTH",
"650 1241 OFFCURVE",
"522 1245 OFFCURVE",
"405 1250 CURVE",
"402 1102 OFFCURVE",
"394 936 OFFCURVE",
"383 787 CURVE",
"570 787 LINE SMOOTH",
"641 787 OFFCURVE",
"711 787 OFFCURVE",
"782 787 CURVE SMOOTH",
"852 787 OFFCURVE",
"922 787 OFFCURVE",
"993 788 CURVE",
"981 660 LINE",
"841 660 LINE SMOOTH",
"764 660 OFFCURVE",
"687 660 OFFCURVE",
"608 660 CURVE SMOOTH",
"529 660 OFFCURVE",
"451 660 OFFCURVE",
"374 659 CURVE",
"373 645 OFFCURVE",
"371 629 OFFCURVE",
"370 612 CURVE SMOOTH",
"369 595 OFFCURVE",
"367 579 OFFCURVE",
"366 565 CURVE SMOOTH",
"349 377 LINE",
"433 378 OFFCURVE",
"525 379 OFFCURVE",
"609 379 CURVE SMOOTH",
"766 379 OFFCURVE",
"922 377 OFFCURVE",
"1078 370 CURVE",
"1075 309 OFFCURVE",
"1074 250 OFFCURVE",
"1074 190 CURVE SMOOTH",
"1074 130 OFFCURVE",
"1075 72 OFFCURVE",
"1078 13 CURVE",
"906 30 OFFCURVE",
"728 38 OFFCURVE",
"549 38 CURVE SMOOTH",
"412 38 OFFCURVE",
"273 33 OFFCURVE",
"133 26 CURVE"
);
}
);
width = 1233;
}
);
unicode = 0045;
},
{
glyphname = F;
lastChange = "2012-07-01 20:32:51 +0000";
layers = (
{
layerId = "48AD09F1-34FF-452A-86DA-A72F7276366E";
name = Regular;
paths = (
{
closed = 1;
nodes = (
"484 1233 LINE",
"468 1086 OFFCURVE",
"448 933 OFFCURVE",
"427 785 CURVE",
"537 785 LINE SMOOTH",
"603 785 OFFCURVE",
"669 785 OFFCURVE",
"734 785 CURVE SMOOTH",
"799 785 OFFCURVE",
"865 786 OFFCURVE",
"932 787 CURVE",
"931 770 OFFCURVE",
"930 755 OFFCURVE",
"929 740 CURVE",
"925 711 OFFCURVE",
"922 675 OFFCURVE",
"919 639 CURVE SMOOTH",
"917 620 OFFCURVE",
"916 602 OFFCURVE",
"915 584 CURVE",
"869 585 OFFCURVE",
"825 586 OFFCURVE",
"783 586 CURVE SMOOTH",
"741 586 OFFCURVE",
"697 586 OFFCURVE",
"650 586 CURVE SMOOTH",
"612 586 OFFCURVE",
"572 586 OFFCURVE",
"530 586 CURVE SMOOTH",
"488 586 OFFCURVE",
"448 586 OFFCURVE",
"410 585 CURVE",
"435 36 LINE",
"392 57 OFFCURVE",
"338 58 OFFCURVE",
"302 58 CURVE SMOOTH",
"283 58 LINE SMOOTH",
"247 58 OFFCURVE",
"225 51 OFFCURVE",
"204 44 CURVE",
"183 36 OFFCURVE",
"162 28 OFFCURVE",
"130 25 CURVE",
"207 489 OFFCURVE",
"265 943 OFFCURVE",
"282 1398 CURVE",
"425 1379 OFFCURVE",
"567 1371 OFFCURVE",
"716 1371 CURVE SMOOTH",
"868 1371 OFFCURVE",
"1018 1380 OFFCURVE",
"1171 1396 CURVE",
"1168 1379 OFFCURVE",
"1165 1364 OFFCURVE",
"1164 1350 CURVE SMOOTH",
"1163 1335 OFFCURVE",
"1161 1320 OFFCURVE",
"1158 1304 CURVE SMOOTH",
"1151 1261 LINE",
"998 1245 OFFCURVE",
"855 1240 OFFCURVE",
"707 1240 CURVE SMOOTH",
"635 1240 OFFCURVE",
"567 1241 OFFCURVE",
"496 1244 CURVE"
);
}
);
width = 1181;
}
);
unicode = 0046;
},
{
glyphname = G;
lastChange = "2012-07-01 20:32:51 +0000";
layers = (
{
anchors = (
{
name = bottom;
position = "{734, 0}";
},
{
name = top;
position = "{734, 1399}";
}
);
layerId = "48AD09F1-34FF-452A-86DA-A72F7276366E";
name = Regular;
paths = (
{
closed = 1;
nodes = (
"145 771 OFFCURVE",
"153 832 OFFCURVE",
"166 892 CURVE SMOOTH",
"191 1008 OFFCURVE",
"241 1130 OFFCURVE",
"334 1222 CURVE SMOOTH",
"402 1290 OFFCURVE",
"485 1332 OFFCURVE",
"571 1357 CURVE SMOOTH",
"657 1382 OFFCURVE",
"745 1391 OFFCURVE",
"828 1391 CURVE SMOOTH",
"835 1391 LINE SMOOTH",
"894 1390 OFFCURVE",
"953 1389 OFFCURVE",
"1010 1382 CURVE SMOOTH",
"1067 1374 OFFCURVE",
"1122 1363 OFFCURVE",
"1171 1339 CURVE SMOOTH",
"1239 1307 OFFCURVE",
"1293 1253 OFFCURVE",
"1328 1188 CURVE",
"1295 1155 OFFCURVE",
"1258 1120 OFFCURVE",
"1225 1088 CURVE",
"1197 1160 OFFCURVE",
"1144 1211 OFFCURVE",
"1077 1246 CURVE SMOOTH",
"1010 1281 OFFCURVE",
"931 1297 OFFCURVE",
"851 1297 CURVE SMOOTH",
"814 1297 LINE SMOOTH",
"751 1297 OFFCURVE",
"684 1283 OFFCURVE",
"621 1255 CURVE SMOOTH",
"558 1227 OFFCURVE",
"501 1184 OFFCURVE",
"461 1125 CURVE SMOOTH",
"404 1041 OFFCURVE",
"368 944 OFFCURVE",
"349 852 CURVE SMOOTH",
"338 801 OFFCURVE",
"332 753 OFFCURVE",
"328 706 CURVE",
"331 595 OFFCURVE",
"361 491 OFFCURVE",
"426 410 CURVE SMOOTH",
"463 363 OFFCURVE",
"514 333 OFFCURVE",
"571 311 CURVE SMOOTH",
"627 289 OFFCURVE",
"690 276 OFFCURVE",
"751 268 CURVE",
"756 267 OFFCURVE",
"762 267 OFFCURVE",
"767 267 CURVE SMOOTH",
"772 267 OFFCURVE",
"778 267 OFFCURVE",
"783 267 CURVE SMOOTH",
"836 267 OFFCURVE",
"892 280 OFFCURVE",
"946 304 CURVE SMOOTH",
"1000 328 OFFCURVE",
"1051 363 OFFCURVE",
"1095 407 CURVE",
"1095 423 OFFCURVE",
"1096 443 OFFCURVE",
"1097 460 CURVE",
"1098 469 OFFCURVE",
"1099 479 OFFCURVE",
"1100 490 CURVE SMOOTH",
"1101 501 OFFCURVE",
"1101 511 OFFCURVE",
"1102 520 CURVE",
"1056 521 OFFCURVE",
"1009 521 OFFCURVE",
"961 521 CURVE SMOOTH",
"912 521 OFFCURVE",
"865 521 OFFCURVE",
"819 521 CURVE",
"822 552 OFFCURVE",
"824 582 OFFCURVE",
"826 613 CURVE SMOOTH",
"827 644 OFFCURVE",
"829 674 OFFCURVE",
"832 704 CURVE",
"1072 704 LINE SMOOTH",
"1112 704 OFFCURVE",
"1152 704 OFFCURVE",
"1193 704 CURVE SMOOTH",
"1233 704 OFFCURVE",
"1273 704 OFFCURVE",
"1314 705 CURVE",
"1302 549 OFFCURVE",
"1294 399 OFFCURVE",
"1294 247 CURVE SMOOTH",
"1294 220 LINE",
"1277 180 OFFCURVE",
"1248 149 OFFCURVE",
"1213 123 CURVE SMOOTH",
"1178 97 OFFCURVE",
"1139 77 OFFCURVE",
"1099 64 CURVE SMOOTH",
"994 29 OFFCURVE",
"886 16 OFFCURVE",
"779 16 CURVE SMOOTH",
"755 16 LINE SMOOTH",
"663 16 OFFCURVE",
"571 28 OFFCURVE",
"488 56 CURVE SMOOTH",
"404 84 OFFCURVE",
"329 127 OFFCURVE",
"272 190 CURVE SMOOTH",
"220 246 OFFCURVE",
"186 311 OFFCURVE",
"165 383 CURVE SMOOTH",
"144 454 OFFCURVE",
"135 530 OFFCURVE",
"135 606 CURVE SMOOTH",
"135 641 OFFCURVE",
"137 676 OFFCURVE",
"140 711 CURVE SMOOTH"
);
}
);
width = 1467;
}
);
unicode = 0047;
},
{
glyphname = H;
lastChange = "2012-07-01 20:32:51 +0000";
layers = (
{
anchors = (
{
name = center;
position = "{742, 700}";
},
{
name = top;
position = "{742, 1399}";
}
);
layerId = "48AD09F1-34FF-452A-86DA-A72F7276366E";
name = Regular;
paths = (
{
closed = 1;
nodes = (
"1034 21 LINE",
"1037 196 OFFCURVE",
"1049 369 OFFCURVE",
"1068 548 CURVE",
"1016 549 OFFCURVE",
"963 549 OFFCURVE",
"909 549 CURVE SMOOTH",
"855 549 OFFCURVE",
"802 549 OFFCURVE",
"750 549 CURVE SMOOTH",
"698 549 OFFCURVE",
"645 549 OFFCURVE",
"590 549 CURVE SMOOTH",
"535 549 OFFCURVE",
"481 549 OFFCURVE",
"429 548 CURVE",
"418 380 OFFCURVE",
"407 203 OFFCURVE",
"395 34 CURVE",
"303 31 OFFCURVE",
"221 29 OFFCURVE",
"130 22 CURVE",
"222 475 OFFCURVE",
"276 921 OFFCURVE",
"276 1364 CURVE SMOOTH",
"276 1399 LINE",
"300 1396 LINE SMOOTH",
"363 1389 OFFCURVE",
"425 1385 OFFCURVE",
"488 1382 CURVE",
"483 1171 OFFCURVE",
"467 963 OFFCURVE",
"444 750 CURVE",
"547 750 OFFCURVE",
"654 750 OFFCURVE",
"763 750 CURVE SMOOTH",
"872 750 OFFCURVE",
"979 750 OFFCURVE",
"1082 751 CURVE",
"1091 956 OFFCURVE",
"1106 1167 OFFCURVE",
"1121 1374 CURVE",
"1196 1375 OFFCURVE",
"1254 1377 OFFCURVE",
"1330 1381 CURVE",
"1297 1065 OFFCURVE",
"1271 754 OFFCURVE",
"1271 443 CURVE SMOOTH",
"1271 298 OFFCURVE",
"1277 155 OFFCURVE",
"1290 12 CURVE",
"1244 17 OFFCURVE",
"1200 20 OFFCURVE",
"1159 22 CURVE SMOOTH",
"1118 24 OFFCURVE",
"1074 26 OFFCURVE",
"1027 29 CURVE"
);
}
);
width = 1484;
}
);
unicode = 0048;
},
{
glyphname = I;
lastChange = "2012-07-01 20:32:51 +0000";
layers = (
{
anchors = (
{
name = ogonek;
position = "{456, 10}";
},
{
name = top;
position = "{254, 1399}";
}
);
layerId = "48AD09F1-34FF-452A-86DA-A72F7276366E";
name = Regular;
paths = (
{
closed = 1;
nodes = (
"92 268 LINE",
"137 644 OFFCURVE",
"182 1021 OFFCURVE",
"211 1396 CURVE",
"267 1377 OFFCURVE",
"332 1373 OFFCURVE",
"395 1372 CURVE",
"387 1211 OFFCURVE",
"377 1028 OFFCURVE",
"366 868 CURVE SMOOTH",
"347 581 OFFCURVE",
"329 301 OFFCURVE",
"322 14 CURVE",
"263 29 OFFCURVE",
"197 37 OFFCURVE",
"130 37 CURVE SMOOTH",
"105 37 OFFCURVE",
"80 36 OFFCURVE",
"55 34 CURVE"
);
}
);
width = 507;
}
);
unicode = 0049;
},
{
glyphname = J;
lastChange = "2012-07-01 20:32:51 +0000";
layers = (
{
anchors = (
{
name = top;
position = "{493, 1399}";
}
);
layerId = "48AD09F1-34FF-452A-86DA-A72F7276366E";
name = Regular;
paths = (
{
closed = 1;
nodes = (
"262 -474 OFFCURVE",
"258 -474 OFFCURVE",
"254 -474 CURVE",
"249 -475 OFFCURVE",
"245 -475 OFFCURVE",
"242 -475 CURVE SMOOTH",
"182 -475 LINE SMOOTH",
"180 -475 OFFCURVE",
"179 -475 OFFCURVE",
"179 -475 CURVE",
"178 -476 OFFCURVE",
"178 -476 OFFCURVE",
"177 -476 CURVE",
"176 -477 OFFCURVE",
"172 -477 OFFCURVE",
"167 -477 CURVE SMOOTH",
"160 -477 OFFCURVE",
"153 -477 OFFCURVE",
"146 -476 CURVE SMOOTH",
"138 -475 OFFCURVE",
"132 -475 OFFCURVE",
"129 -475 CURVE SMOOTH",
"118 -475 OFFCURVE",
"108 -475 OFFCURVE",
"99 -475 CURVE SMOOTH",
"81 -475 OFFCURVE",
"65 -473 OFFCURVE",
"49 -469 CURVE SMOOTH",
"41 -467 OFFCURVE",
"32 -464 OFFCURVE",
"23 -460 CURVE",
"40 -296 LINE SMOOTH",
"43 -263 OFFCURVE",
"47 -230 OFFCURVE",
"50 -197 CURVE SMOOTH",
"53 -164 OFFCURVE",
"57 -131 OFFCURVE",
"60 -98 CURVE",
"84 -119 OFFCURVE",
"115 -140 OFFCURVE",
"147 -151 CURVE SMOOTH",
"170 -159 OFFCURVE",
"193 -161 OFFCURVE",
"216 -161 CURVE SMOOTH",
"221 -161 OFFCURVE",
"226 -161 OFFCURVE",
"232 -161 CURVE SMOOTH",
"237 -161 OFFCURVE",
"242 -161 OFFCURVE",
"247 -160 CURVE",
"295 -159 OFFCURVE",
"351 -138 OFFCURVE",
"394 -107 CURVE",
"449 -32 OFFCURVE",
"475 47 OFFCURVE",
"494 131 CURVE SMOOTH",
"498 150 OFFCURVE",
"501 170 OFFCURVE",
"504 189 CURVE SMOOTH",
"507 208 OFFCURVE",
"510 228 OFFCURVE",
"513 247 CURVE",
"513 248 OFFCURVE",
"513 249 OFFCURVE",
"514 250 CURVE",
"514 250 OFFCURVE",
"514 251 OFFCURVE",
"514 252 CURVE",
"520 292 OFFCURVE",
"527 331 OFFCURVE",
"535 368 CURVE",
"680 1365 LINE",
"720 1361 OFFCURVE",
"750 1361 OFFCURVE",
"793 1361 CURVE SMOOTH",
"833 1361 OFFCURVE",
"870 1362 OFFCURVE",
"909 1365 CURVE",
"813 872 OFFCURVE",
"733 381 OFFCURVE",
"665 -111 CURVE",
"658 -143 LINE SMOOTH",
"649 -187 OFFCURVE",
"636 -234 OFFCURVE",
"616 -277 CURVE SMOOTH",
"596 -320 OFFCURVE",
"568 -358 OFFCURVE",
"527 -387 CURVE SMOOTH",
"447 -444 OFFCURVE",
"353 -466 OFFCURVE",
"265 -474 CURVE"
);
}
);
width = 986;
}
);
unicode = 004A;
},
{
glyphname = K;
lastChange = "2012-07-01 20:32:51 +0000";
layers = (
{
anchors = (
{
name = bottom;
position = "{706, 0}";
},
{
name = top;
position = "{706, 1399}";
}
);
layerId = "48AD09F1-34FF-452A-86DA-A72F7276366E";
name = Regular;
paths = (
{
closed = 1;
nodes = (
"816 33 LINE",
"692 209 OFFCURVE",
"574 393 OFFCURVE",
"459 576 CURVE",
"391 550 LINE",
"382 379 OFFCURVE",
"370 204 OFFCURVE",
"357 33 CURVE",
"277 30 OFFCURVE",
"211 29 OFFCURVE",
"131 22 CURVE",
"219 479 OFFCURVE",
"277 928 OFFCURVE",
"277 1376 CURVE SMOOTH",
"277 1399 LINE",
"286 1398 OFFCURVE",
"294 1398 OFFCURVE",
"300 1397 CURVE SMOOTH",
"306 1396 OFFCURVE",
"313 1396 OFFCURVE",
"322 1395 CURVE SMOOTH",
"357 1391 OFFCURVE",
"392 1388 OFFCURVE",
"428 1385 CURVE",
"421 1165 OFFCURVE",
"401 937 OFFCURVE",
"374 697 CURVE",
"603 921 OFFCURVE",
"850 1157 OFFCURVE",
"1087 1373 CURVE",
"1126 1374 OFFCURVE",
"1163 1376 OFFCURVE",
"1198 1377 CURVE SMOOTH",
"1233 1378 OFFCURVE",
"1269 1379 OFFCURVE",
"1307 1381 CURVE",
"1055 1149 OFFCURVE",
"824 918 OFFCURVE",
"580 677 CURVE",
"807 453 OFFCURVE",
"1038 233 OFFCURVE",
"1267 13 CURVE",
"1186 21 OFFCURVE",
"1113 25 OFFCURVE",
"1039 29 CURVE SMOOTH",
"1002 30 OFFCURVE",
"964 32 OFFCURVE",
"927 33 CURVE SMOOTH",
"889 34 OFFCURVE",
"850 35 OFFCURVE",
"809 36 CURVE"
);
}
);
width = 1412;
}
);
unicode = 004B;
},
{
glyphname = L;
lastChange = "2012-07-01 20:32:51 +0000";
layers = (
{
anchors = (
{
name = bottom;
position = "{526, 0}";
},
{
name = top;
position = "{526, 1399}";
}
);
layerId = "48AD09F1-34FF-452A-86DA-A72F7276366E";
name = Regular;
paths = (
{
closed = 1;
nodes = (
"127 14 LINE",
"206 478 OFFCURVE",
"266 943 OFFCURVE",
"273 1398 CURVE",
"333 1390 OFFCURVE",
"391 1384 OFFCURVE",
"454 1381 CURVE",
"438 1014 OFFCURVE",
"397 652 OFFCURVE",
"352 281 CURVE",
"420 284 OFFCURVE",
"494 284 OFFCURVE",
"562 284 CURVE SMOOTH",
"715 284 OFFCURVE",
"864 281 OFFCURVE",
"1016 270 CURVE",
"1015 233 OFFCURVE",
"1014 197 OFFCURVE",
"1014 161 CURVE SMOOTH",
"1014 112 OFFCURVE",
"1015 63 OFFCURVE",
"1017 12 CURVE",
"852 31 OFFCURVE",
"686 37 OFFCURVE",
"514 37 CURVE SMOOTH",
"382 37 OFFCURVE",
"252 33 OFFCURVE",
"119 24 CURVE"
);
}
);
width = 1051;
}
);
unicode = 004C;
},
{
glyphname = M;
lastChange = "2012-07-01 20:32:51 +0000";
layers = (
{
layerId = "48AD09F1-34FF-452A-86DA-A72F7276366E";
name = Regular;
paths = (
{
closed = 1;
nodes = (
"1377 19 LINE",
"1380 402 OFFCURVE",
"1432 784 OFFCURVE",
"1500 1175 CURVE",
"1482 1178 LINE",
"1314 829 OFFCURVE",
"1166 476 OFFCURVE",
"1025 121 CURVE",
"987 122 OFFCURVE",
"950 122 OFFCURVE",
"915 122 CURVE SMOOTH",
"880 122 OFFCURVE",
"843 122 OFFCURVE",
"805 122 CURVE",
"766 255 OFFCURVE",
"731 381 OFFCURVE",
"695 514 CURVE SMOOTH",
"687 544 LINE SMOOTH",
"628 759 OFFCURVE",
"570 974 OFFCURVE",
"497 1183 CURVE",
"477 1177 LINE",
"480 1104 OFFCURVE",
"481 1031 OFFCURVE",
"481 958 CURVE SMOOTH",
"481 649 OFFCURVE",
"460 342 OFFCURVE",
"429 31 CURVE",
"378 29 OFFCURVE",
"329 27 OFFCURVE",
"283 26 CURVE SMOOTH",
"237 24 OFFCURVE",
"189 22 OFFCURVE",
"138 19 CURVE",
"145 47 OFFCURVE",
"151 73 OFFCURVE",
"156 97 CURVE SMOOTH",
"161 120 OFFCURVE",
"166 146 OFFCURVE",
"172 174 CURVE SMOOTH",
"248 535 OFFCURVE",
"290 887 OFFCURVE",
"290 1239 CURVE SMOOTH",
"290 1291 OFFCURVE",
"289 1344 OFFCURVE",
"287 1397 CURVE",
"391 1388 OFFCURVE",
"481 1384 OFFCURVE",
"585 1380 CURVE",
"692 1140 OFFCURVE",
"778 892 OFFCURVE",
"865 641 CURVE SMOOTH",
"935 441 LINE",
"1031 628 LINE SMOOTH",
"1160 880 OFFCURVE",
"1285 1127 OFFCURVE",
"1433 1374 CURVE",
"1473 1375 OFFCURVE",
"1512 1376 OFFCURVE",
"1549 1379 CURVE SMOOTH",
"1586 1381 OFFCURVE",
"1625 1382 OFFCURVE",
"1665 1382 CURVE SMOOTH",
"1674 1382 OFFCURVE",
"1682 1382 OFFCURVE",
"1690 1383 CURVE SMOOTH",
"1697 1384 OFFCURVE",
"1705 1384 OFFCURVE",
"1714 1384 CURVE",
"1671 1080 OFFCURVE",
"1639 777 OFFCURVE",
"1639 476 CURVE SMOOTH",
"1639 319 OFFCURVE",
"1648 164 OFFCURVE",
"1668 11 CURVE",
"1564 19 OFFCURVE",
"1473 23 OFFCURVE",
"1368 27 CURVE"
);
}
);
width = 1870;
}
);
unicode = 004D;
},
{
glyphname = N;
lastChange = "2012-07-01 20:32:51 +0000";
layers = (
{
anchors = (
{
name = bottom;
position = "{782, 0}";
},
{
name = top;
position = "{782, 1399}";
}
);
layerId = "48AD09F1-34FF-452A-86DA-A72F7276366E";
name = Regular;
paths = (
{
closed = 1;
nodes = (
"1017 27 LINE",
"901 240 OFFCURVE",
"801 459 OFFCURVE",
"701 682 CURVE SMOOTH",
"626 849 OFFCURVE",
"550 1014 OFFCURVE",
"470 1177 CURVE",
"451 1170 LINE",
"453 1097 OFFCURVE",
"454 1023 OFFCURVE",
"454 950 CURVE SMOOTH",
"454 645 OFFCURVE",
"440 341 OFFCURVE",
"423 34 CURVE",
"320 31 OFFCURVE",
"232 29 OFFCURVE",
"131 21 CURVE",
"227 485 OFFCURVE",
"287 945 OFFCURVE",
"287 1398 CURVE",
"368 1389 OFFCURVE",
"438 1385 OFFCURVE",
"521 1381 CURVE",
"682 1146 OFFCURVE",
"842 883 OFFCURVE",
"989 639 CURVE SMOOTH",
"1146 380 LINE",
"1164 387 LINE",
"1180 720 OFFCURVE",
"1210 1050 OFFCURVE",
"1254 1377 CURVE",
"1283 1378 OFFCURVE",
"1311 1380 OFFCURVE",
"1338 1381 CURVE SMOOTH",
"1365 1382 OFFCURVE",
"1393 1384 OFFCURVE",
"1421 1385 CURVE",
"1360 1004 OFFCURVE",
"1316 627 OFFCURVE",
"1316 254 CURVE SMOOTH",
"1316 173 OFFCURVE",
"1319 92 OFFCURVE",
"1323 12 CURVE",
"1273 17 OFFCURVE",
"1225 20 OFFCURVE",
"1178 23 CURVE SMOOTH",
"1131 25 OFFCURVE",
"1083 27 OFFCURVE",
"1033 30 CURVE",
"1030 30 OFFCURVE",
"1026 30 OFFCURVE",
"1022 31 CURVE",
"1018 31 OFFCURVE",
"1014 31 OFFCURVE",
"1010 31 CURVE"
);
}
);
width = 1563;
}
);
unicode = 004E;
},
{
glyphname = O;
lastChange = "2012-07-01 20:32:51 +0000";
layers = (
{
anchors = (
{
name = top;
position = "{787, 1399}";
}
);
layerId = "48AD09F1-34FF-452A-86DA-A72F7276366E";
name = Regular;
paths = (
{
closed = 1;
nodes = (
"1426 654 OFFCURVE",
"1418 601 OFFCURVE",
"1407 546 CURVE SMOOTH",
"1382 429 OFFCURVE",
"1330 304 OFFCURVE",
"1246 204 CURVE",
"1178 135 OFFCURVE",
"1100 87 OFFCURVE",
"1018 58 CURVE SMOOTH",
"936 29 OFFCURVE",
"850 16 OFFCURVE",
"773 16 CURVE SMOOTH",
"768 16 OFFCURVE",
"763 16 OFFCURVE",
"758 17 CURVE",
"753 17 OFFCURVE",
"747 17 OFFCURVE",
"742 17 CURVE SMOOTH",
"732 17 LINE SMOOTH",
"644 17 OFFCURVE",
"555 30 OFFCURVE",
"475 58 CURVE SMOOTH",
"395 85 OFFCURVE",
"324 127 OFFCURVE",
"269 187 CURVE",
"222 247 OFFCURVE",
"190 318 OFFCURVE",
"170 394 CURVE SMOOTH",
"149 470 OFFCURVE",
"139 551 OFFCURVE",
"139 630 CURVE SMOOTH",
"139 686 OFFCURVE",
"145 738 OFFCURVE",
"153 797 CURVE SMOOTH",
"156 826 OFFCURVE",
"161 855 OFFCURVE",
"167 884 CURVE SMOOTH",
"192 1001 OFFCURVE",
"244 1126 OFFCURVE",
"336 1219 CURVE SMOOTH",
"401 1286 OFFCURVE",
"483 1330 OFFCURVE",
"567 1356 CURVE SMOOTH",
"651 1382 OFFCURVE",
"740 1391 OFFCURVE",
"820 1391 CURVE SMOOTH",
"843 1391 LINE SMOOTH",
"931 1391 OFFCURVE",
"1018 1379 OFFCURVE",
"1098 1352 CURVE SMOOTH",
"1177 1324 OFFCURVE",
"1247 1283 OFFCURVE",
"1299 1223 CURVE SMOOTH",
"1348 1167 OFFCURVE",
"1383 1100 OFFCURVE",
"1404 1029 CURVE SMOOTH",
"1425 957 OFFCURVE",
"1435 880 OFFCURVE",
"1435 804 CURVE SMOOTH",
"1435 772 OFFCURVE",
"1433 740 OFFCURVE",
"1430 709 CURVE SMOOTH"
);
},
{
closed = 1;
nodes = (
"1275 790 OFFCURVE",
"1276 815 OFFCURVE",
"1276 840 CURVE SMOOTH",
"1276 949 OFFCURVE",
"1250 1053 OFFCURVE",
"1182 1130 CURVE SMOOTH",
"1142 1177 OFFCURVE",
"1088 1210 OFFCURVE",
"1028 1231 CURVE SMOOTH",
"968 1251 OFFCURVE",
"901 1260 OFFCURVE",
"833 1260 CURVE SMOOTH",
"820 1260 LINE SMOOTH",
"759 1260 OFFCURVE",
"692 1253 OFFCURVE",
"629 1234 CURVE SMOOTH",
"565 1214 OFFCURVE",
"504 1182 OFFCURVE",
"453 1131 CURVE SMOOTH",
"380 1059 OFFCURVE",
"341 970 OFFCURVE",
"322 879 CURVE SMOOTH",
"314 840 OFFCURVE",
"309 799 OFFCURVE",
"306 763 CURVE SMOOTH",
"304 742 OFFCURVE",
"303 721 OFFCURVE",
"303 701 CURVE SMOOTH",
"303 649 OFFCURVE",
"309 596 OFFCURVE",
"325 549 CURVE SMOOTH",
"341 501 OFFCURVE",
"366 460 OFFCURVE",
"406 431 CURVE SMOOTH",
"501 362 OFFCURVE",
"628 340 OFFCURVE",
"756 340 CURVE SMOOTH",
"816 340 OFFCURVE",
"878 343 OFFCURVE",
"940 355 CURVE SMOOTH",
"1002 367 OFFCURVE",
"1064 389 OFFCURVE",
"1121 426 CURVE",
"1201 485 OFFCURVE",
"1238 570 OFFCURVE",
"1257 655 CURVE SMOOTH",
"1265 694 OFFCURVE",
"1269 730 OFFCURVE",
"1272 765 CURVE SMOOTH"
);
}
);
width = 1573;
}
);
unicode = 004F;
},
{
glyphname = P;
lastChange = "2012-07-01 20:32:51 +0000";
layers = (
{
layerId = "48AD09F1-34FF-452A-86DA-A72F7276366E";
name = Regular;
paths = (
{
closed = 1;
nodes = (
"1243 962 OFFCURVE",
"1240 943 OFFCURVE",
"1236 922 CURVE SMOOTH",
"1215 826 OFFCURVE",
"1167 729 OFFCURVE",
"1086 657 CURVE SMOOTH",
"1038 614 OFFCURVE",
"981 585 OFFCURVE",
"922 566 CURVE SMOOTH",
"863 547 OFFCURVE",
"801 540 OFFCURVE",
"745 540 CURVE SMOOTH",
"740 540 LINE SMOOTH",
"693 540 OFFCURVE",
"649 540 OFFCURVE",
"606 540 CURVE SMOOTH",
"563 540 OFFCURVE",
"519 540 OFFCURVE",
"472 539 CURVE",
"463 472 OFFCURVE",
"454 404 OFFCURVE",
"444 335 CURVE SMOOTH",
"434 265 OFFCURVE",
"424 197 OFFCURVE",
"415 130 CURVE SMOOTH",
"398 14 LINE",
"355 13 OFFCURVE",
"309 11 OFFCURVE",
"261 8 CURVE SMOOTH",
"213 5 OFFCURVE",
"165 3 OFFCURVE",
"122 -1 CURVE",
"222 475 OFFCURVE",
"293 943 OFFCURVE",
"316 1415 CURVE",
"481 1392 OFFCURVE",
"637 1386 OFFCURVE",
"793 1385 CURVE SMOOTH",
"858 1385 OFFCURVE",
"926 1380 OFFCURVE",
"988 1365 CURVE SMOOTH",
"1050 1349 OFFCURVE",
"1106 1325 OFFCURVE",
"1153 1286 CURVE SMOOTH",
"1221 1230 OFFCURVE",
"1249 1139 OFFCURVE",
"1249 1043 CURVE SMOOTH",
"1249 1022 OFFCURVE",
"1248 1001 OFFCURVE",
"1245 980 CURVE SMOOTH"
);
},
{
closed = 1;
nodes = (
"1094 1025 OFFCURVE",
"1095 1033 OFFCURVE",
"1095 1044 CURVE SMOOTH",
"1095 1100 OFFCURVE",
"1072 1154 OFFCURVE",
"1023 1190 CURVE",
"958 1227 OFFCURVE",
"872 1236 OFFCURVE",
"792 1236 CURVE SMOOTH",
"708 1236 OFFCURVE",
"636 1236 OFFCURVE",
"552 1240 CURVE",
"537 1083 OFFCURVE",
"524 942 OFFCURVE",
"504 783 CURVE",
"768 783 LINE SMOOTH",
"805 783 OFFCURVE",
"848 786 OFFCURVE",
"890 795 CURVE SMOOTH",
"932 804 OFFCURVE",
"974 821 OFFCURVE",
"1014 849 CURVE",
"1054 884 OFFCURVE",
"1078 933 OFFCURVE",
"1087 978 CURVE SMOOTH",
"1090 991 OFFCURVE",
"1092 1004 OFFCURVE",
"1093 1016 CURVE SMOOTH"
);
}
);
width = 1294;
}
);
unicode = 0050;
},
{
glyphname = Q;
lastChange = "2012-07-01 20:32:51 +0000";
layers = (
{
layerId = "48AD09F1-34FF-452A-86DA-A72F7276366E";
name = Regular;
paths = (
{
closed = 1;
nodes = (
"1387 672 LINE SMOOTH",
"1379 613 OFFCURVE",
"1371 552 OFFCURVE",
"1359 495 CURVE SMOOTH",
"1342 415 OFFCURVE",
"1318 340 OFFCURVE",
"1277 267 CURVE SMOOTH",
"1248 214 OFFCURVE",
"1201 174 OFFCURVE",
"1146 144 CURVE SMOOTH",
"1090 114 OFFCURVE",
"1029 94 OFFCURVE",
"970 83 CURVE",
"979 53 LINE SMOOTH",
"988 20 OFFCURVE",
"998 -16 OFFCURVE",
"1015 -47 CURVE",
"1031 -79 OFFCURVE",
"1053 -105 OFFCURVE",
"1089 -120 CURVE",
"1141 -132 OFFCURVE",
"1200 -138 OFFCURVE",
"1256 -141 CURVE",
"1261 -142 OFFCURVE",
"1268 -142 OFFCURVE",
"1275 -142 CURVE SMOOTH",
"1282 -142 OFFCURVE",
"1289 -142 OFFCURVE",
"1294 -142 CURVE SMOOTH",
"1311 -142 OFFCURVE",
"1333 -142 OFFCURVE",
"1350 -139 CURVE",
"1313 -210 LINE SMOOTH",
"1303 -229 OFFCURVE",
"1293 -249 OFFCURVE",
"1283 -268 CURVE",
"1272 -287 OFFCURVE",
"1262 -307 OFFCURVE",
"1253 -326 CURVE",
"1214 -333 OFFCURVE",
"1173 -335 OFFCURVE",
"1134 -335 CURVE SMOOTH",
"1126 -335 OFFCURVE",
"1119 -335 OFFCURVE",
"1112 -335 CURVE SMOOTH",
"1105 -335 OFFCURVE",
"1097 -335 OFFCURVE",
"1090 -334 CURVE",
"998 -329 OFFCURVE",
"911 -300 OFFCURVE",
"847 -243 CURVE SMOOTH",
"771 -172 OFFCURVE",
"719 -80 OFFCURVE",
"676 19 CURVE",
"612 20 OFFCURVE",
"547 27 OFFCURVE",
"486 42 CURVE SMOOTH",
"425 57 OFFCURVE",
"368 78 OFFCURVE",
"320 110 CURVE SMOOTH",
"239 163 OFFCURVE",
"183 242 OFFCURVE",
"148 333 CURVE SMOOTH",
"112 424 OFFCURVE",
"97 527 OFFCURVE",
"97 630 CURVE SMOOTH",
"97 683 OFFCURVE",
"100 741 OFFCURVE",
"108 802 CURVE SMOOTH",
"111 832 OFFCURVE",
"116 862 OFFCURVE",
"123 893 CURVE SMOOTH",
"147 1006 OFFCURVE",
"198 1125 OFFCURVE",
"289 1217 CURVE SMOOTH",
"354 1285 OFFCURVE",
"437 1327 OFFCURVE",
"523 1352 CURVE SMOOTH",
"609 1376 OFFCURVE",
"697 1385 OFFCURVE",
"780 1385 CURVE SMOOTH",
"787 1385 LINE SMOOTH",
"878 1385 OFFCURVE",
"968 1374 OFFCURVE",
"1050 1347 CURVE SMOOTH",
"1132 1320 OFFCURVE",
"1205 1279 OFFCURVE",
"1261 1218 CURVE SMOOTH",
"1312 1163 OFFCURVE",
"1347 1099 OFFCURVE",
"1368 1030 CURVE SMOOTH",
"1389 961 OFFCURVE",
"1398 888 OFFCURVE",
"1398 813 CURVE SMOOTH",
"1398 778 OFFCURVE",
"1396 742 OFFCURVE",
"1392 706 CURVE"
);
},
{
closed = 1;
nodes = (
"1234 769 OFFCURVE",
"1235 792 OFFCURVE",
"1235 819 CURVE SMOOTH",
"1235 932 OFFCURVE",
"1209 1037 OFFCURVE",
"1141 1117 CURVE SMOOTH",
"1100 1165 OFFCURVE",
"1045 1200 OFFCURVE",
"983 1221 CURVE SMOOTH",
"921 1242 OFFCURVE",
"852 1253 OFFCURVE",
"783 1253 CURVE SMOOTH",
"777 1253 LINE SMOOTH",
"716 1253 OFFCURVE",
"648 1246 OFFCURVE",
"584 1226 CURVE SMOOTH",
"519 1205 OFFCURVE",
"456 1172 OFFCURVE",
"407 1120 CURVE SMOOTH",
"339 1051 OFFCURVE",
"296 955 OFFCURVE",
"277 870 CURVE SMOOTH",
"268 826 OFFCURVE",
"263 782 OFFCURVE",
"260 739 CURVE",
"259 732 OFFCURVE",
"259 724 OFFCURVE",
"259 716 CURVE SMOOTH",
"259 708 OFFCURVE",
"259 700 OFFCURVE",
"259 693 CURVE SMOOTH",
"259 640 OFFCURVE",
"264 584 OFFCURVE",
"280 534 CURVE SMOOTH",
"295 484 OFFCURVE",
"319 438 OFFCURVE",
"356 405 CURVE",
"420 356 OFFCURVE",
"506 320 OFFCURVE",
"606 320 CURVE SMOOTH",
"610 320 LINE",
"603 351 OFFCURVE",
"596 398 OFFCURVE",
"592 430 CURVE SMOOTH",
"591 441 OFFCURVE",
"590 451 OFFCURVE",
"589 461 CURVE SMOOTH",
"588 470 OFFCURVE",
"586 481 OFFCURVE",
"585 492 CURVE",
"629 501 OFFCURVE",
"671 509 OFFCURVE",
"710 517 CURVE SMOOTH",
"749 525 OFFCURVE",
"791 533 OFFCURVE",
"834 542 CURVE",
"862 348 LINE",
"906 363 OFFCURVE",
"965 382 OFFCURVE",
"1009 397 CURVE",
"1068 422 OFFCURVE",
"1115 465 OFFCURVE",
"1151 514 CURVE SMOOTH",
"1186 563 OFFCURVE",
"1210 621 OFFCURVE",
"1222 678 CURVE SMOOTH",
"1227 700 OFFCURVE",
"1230 721 OFFCURVE",
"1231 742 CURVE"
);
}
);
width = 1540;
}
);
unicode = 0051;
},
{
glyphname = R;
lastChange = "2012-07-01 20:32:51 +0000";
layers = (
{
anchors = (
{
name = bottom;
position = "{709, 0}";
},
{
name = top;
position = "{709, 1399}";
}
);
layerId = "48AD09F1-34FF-452A-86DA-A72F7276366E";
name = Regular;
paths = (
{
closed = 1;
nodes = (
"923 31 LINE",
"832 168 OFFCURVE",
"746 321 OFFCURVE",
"665 465 CURVE SMOOTH",
"606 571 LINE",
"417 571 LINE",
"420 450 OFFCURVE",
"422 321 OFFCURVE",
"422 201 CURVE SMOOTH",
"422 35 LINE",
"323 32 OFFCURVE",
"239 31 OFFCURVE",
"139 24 CURVE",
"203 416 OFFCURVE",
"244 800 OFFCURVE",
"244 1181 CURVE SMOOTH",
"244 1254 OFFCURVE",
"242 1326 OFFCURVE",
"239 1398 CURVE",
"424 1381 OFFCURVE",
"615 1374 OFFCURVE",
"806 1373 CURVE",
"811 1374 OFFCURVE",
"815 1374 OFFCURVE",
"820 1374 CURVE SMOOTH",
"824 1374 OFFCURVE",
"828 1374 OFFCURVE",
"833 1374 CURVE SMOOTH",
"921 1374 OFFCURVE",
"993 1340 OFFCURVE",
"1043 1285 CURVE SMOOTH",
"1093 1229 OFFCURVE",
"1121 1153 OFFCURVE",
"1121 1070 CURVE SMOOTH",
"1121 1045 OFFCURVE",
"1118 1021 OFFCURVE",
"1113 994 CURVE",
"1112 986 OFFCURVE",
"1111 978 OFFCURVE",
"1110 971 CURVE SMOOTH",
"1109 963 OFFCURVE",
"1107 955 OFFCURVE",
"1106 948 CURVE",
"1091 884 OFFCURVE",
"1063 821 OFFCURVE",
"1027 764 CURVE SMOOTH",
"1008 736 OFFCURVE",
"988 706 OFFCURVE",
"962 679 CURVE SMOOTH",
"936 652 OFFCURVE",
"904 628 OFFCURVE",
"865 615 CURVE",
"1016 414 OFFCURVE",
"1171 206 OFFCURVE",
"1332 13 CURVE",
"1259 18 OFFCURVE",
"1192 23 OFFCURVE",
"1125 27 CURVE SMOOTH",
"1091 28 OFFCURVE",
"1057 30 OFFCURVE",
"1023 31 CURVE SMOOTH",
"989 32 OFFCURVE",
"953 33 OFFCURVE",
"916 34 CURVE"
);
},
{
closed = 1;
nodes = (
"958 1011 OFFCURVE",
"958 1018 OFFCURVE",
"959 1023 CURVE SMOOTH",
"960 1028 OFFCURVE",
"960 1032 OFFCURVE",
"960 1037 CURVE SMOOTH",
"960 1097 OFFCURVE",
"942 1150 OFFCURVE",
"899 1189 CURVE SMOOTH",
"858 1226 OFFCURVE",
"806 1254 OFFCURVE",
"743 1254 CURVE SMOOTH",
"643 1255 OFFCURVE",
"534 1258 OFFCURVE",
"435 1262 CURVE",
"434 1105 OFFCURVE",
"426 929 OFFCURVE",
"415 772 CURVE",
"439 772 OFFCURVE",
"465 772 OFFCURVE",
"492 772 CURVE",
"519 771 OFFCURVE",
"544 771 OFFCURVE",
"569 771 CURVE SMOOTH",
"715 771 LINE SMOOTH",
"772 771 OFFCURVE",
"829 802 OFFCURVE",
"874 843 CURVE SMOOTH",
"921 886 OFFCURVE",
"957 946 OFFCURVE",
"958 1002 CURVE SMOOTH"
);
}
);
width = 1417;
}
);
unicode = 0052;
},
{
glyphname = S;
lastChange = "2012-07-01 20:32:51 +0000";
layers = (
{
anchors = (
{
name = bottom;
position = "{680, 0}";
},
{
name = top;
position = "{680, 1399}";
}
);
layerId = "48AD09F1-34FF-452A-86DA-A72F7276366E";
name = Regular;
paths = (
{
closed = 1;
nodes = (
"1206 379 LINE SMOOTH",
"1206 358 OFFCURVE",
"1203 334 OFFCURVE",
"1198 309 CURVE SMOOTH",
"1182 230 OFFCURVE",
"1139 152 OFFCURVE",
"1064 105 CURVE SMOOTH",
"999 64 OFFCURVE",
"929 42 OFFCURVE",
"858 31 CURVE SMOOTH",
"787 19 OFFCURVE",
"715 17 OFFCURVE",
"647 17 CURVE SMOOTH",
"614 17 LINE SMOOTH",
"499 17 OFFCURVE",
"375 35 OFFCURVE",
"279 84 CURVE SMOOTH",
"182 133 OFFCURVE",
"112 212 OFFCURVE",
"105 336 CURVE",
"185 373 OFFCURVE",
"257 407 OFFCURVE",
"337 442 CURVE",
"348 414 OFFCURVE",
"361 387 OFFCURVE",
"379 364 CURVE SMOOTH",
"397 340 OFFCURVE",
"421 323 OFFCURVE",
"454 318 CURVE SMOOTH",
"517 307 OFFCURVE",
"582 307 OFFCURVE",
"647 306 CURVE SMOOTH",
"665 306 LINE",
"674 307 OFFCURVE",
"684 307 OFFCURVE",
"693 307 CURVE SMOOTH",
"702 307 OFFCURVE",
"712 307 OFFCURVE",
"721 307 CURVE SMOOTH",
"777 307 OFFCURVE",
"832 307 OFFCURVE",
"893 327 CURVE",
"928 342 OFFCURVE",
"958 378 OFFCURVE",
"977 414 CURVE",
"978 417 OFFCURVE",
"979 419 OFFCURVE",
"979 422 CURVE SMOOTH",
"979 424 OFFCURVE",
"979 426 OFFCURVE",
"980 429 CURVE",
"983 446 OFFCURVE",
"984 460 OFFCURVE",
"984 475 CURVE SMOOTH",
"984 511 OFFCURVE",
"967 544 OFFCURVE",
"924 576 CURVE SMOOTH",
"893 599 OFFCURVE",
"855 613 OFFCURVE",
"818 622 CURVE SMOOTH",
"737 641 LINE SMOOTH",
"724 644 OFFCURVE",
"710 648 OFFCURVE",
"697 651 CURVE SMOOTH",
"683 654 OFFCURVE",
"669 658 OFFCURVE",
"656 661 CURVE SMOOTH",
"642 664 LINE",
"567 683 OFFCURVE",
"488 702 OFFCURVE",
"423 731 CURVE SMOOTH",
"379 751 OFFCURVE",
"338 778 OFFCURVE",
"303 811 CURVE",
"252 867 OFFCURVE",
"224 941 OFFCURVE",
"224 1025 CURVE SMOOTH",
"224 1030 OFFCURVE",
"224 1034 OFFCURVE",
"224 1039 CURVE SMOOTH",
"224 1044 OFFCURVE",
"224 1048 OFFCURVE",
"225 1053 CURVE",
"225 1106 OFFCURVE",
"234 1149 OFFCURVE",
"254 1193 CURVE SMOOTH",
"273 1236 OFFCURVE",
"301 1275 OFFCURVE",
"339 1305 CURVE SMOOTH",
"358 1320 OFFCURVE",
"379 1332 OFFCURVE",
"403 1341 CURVE SMOOTH",
"511 1384 OFFCURVE",
"614 1390 OFFCURVE",
"714 1390 CURVE SMOOTH",
"739 1390 LINE SMOOTH",
"802 1389 OFFCURVE",
"865 1386 OFFCURVE",
"926 1378 CURVE SMOOTH",
"986 1369 OFFCURVE",
"1044 1352 OFFCURVE",
"1095 1324 CURVE SMOOTH",
"1176 1279 OFFCURVE",
"1216 1196 OFFCURVE",
"1232 1103 CURVE",
"1071 1071 LINE",
"1060 1144 OFFCURVE",
"1018 1194 OFFCURVE",
"960 1226 CURVE SMOOTH",
"902 1258 OFFCURVE",
"829 1271 OFFCURVE",
"757 1271 CURVE SMOOTH",
"717 1271 LINE SMOOTH",
"642 1271 OFFCURVE",
"566 1264 OFFCURVE",
"493 1229 CURVE SMOOTH",
"425 1197 OFFCURVE",
"391 1143 OFFCURVE",
"380 1088 CURVE SMOOTH",
"377 1075 OFFCURVE",
"376 1063 OFFCURVE",
"376 1050 CURVE SMOOTH",
"376 1038 LINE SMOOTH",
"376 1002 OFFCURVE",
"384 967 OFFCURVE",
"405 939 CURVE SMOOTH",
"428 907 OFFCURVE",
"463 886 OFFCURVE",
"498 867 CURVE",
"557 840 OFFCURVE",
"622 824 OFFCURVE",
"683 809 CURVE SMOOTH",
"739 795 LINE",
"760 791 OFFCURVE",
"779 786 OFFCURVE",
"800 781 CURVE SMOOTH",
"889 761 OFFCURVE",
"985 737 OFFCURVE",
"1061 690 CURVE SMOOTH",
"1160 630 OFFCURVE",
"1207 529 OFFCURVE",
"1207 418 CURVE SMOOTH",
"1207 413 OFFCURVE",
"1207 409 OFFCURVE",
"1207 404 CURVE SMOOTH",
"1207 399 OFFCURVE",
"1207 394 OFFCURVE",
"1206 389 CURVE"
);
}
);
width = 1360;
}
);
unicode = 0053;
},
{
glyphname = T;
lastChange = "2012-07-01 20:32:51 +0000";
layers = (
{
anchors = (
{
name = bottom;
position = "{622, 0}";
},
{
name = center;
position = "{622, 700}";
},
{
name = top;
position = "{622, 1399}";
}
);
layerId = "48AD09F1-34FF-452A-86DA-A72F7276366E";
name = Regular;
paths = (
{
closed = 1;
nodes = (
"693 1030 LINE",
"681 798 OFFCURVE",
"672 566 OFFCURVE",
"672 334 CURVE SMOOTH",
"672 231 OFFCURVE",
"674 130 OFFCURVE",
"678 30 CURVE",
"583 35 OFFCURVE",
"503 36 OFFCURVE",
"408 37 CURVE",
"417 139 OFFCURVE",
"428 241 OFFCURVE",
"440 342 CURVE SMOOTH",
"451 443 OFFCURVE",
"463 545 OFFCURVE",
"474 648 CURVE SMOOTH",
"497 844 OFFCURVE",
"520 1046 OFFCURVE",
"539 1241 CURVE",
"455 1238 OFFCURVE",
"361 1236 OFFCURVE",
"277 1236 CURVE SMOOTH",
"209 1236 OFFCURVE",
"140 1237 OFFCURVE",
"73 1240 CURVE",
"72 1265 OFFCURVE",
"72 1289 OFFCURVE",
"72 1312 CURVE SMOOTH",
"72 1335 OFFCURVE",
"71 1359 OFFCURVE",
"70 1383 CURVE",
"70 1399 LINE",
"257 1380 OFFCURVE",
"436 1371 OFFCURVE",
"629 1371 CURVE SMOOTH",
"820 1371 OFFCURVE",
"1011 1380 OFFCURVE",
"1203 1397 CURVE",
"1194 1348 OFFCURVE",
"1186 1300 OFFCURVE",
"1179 1253 CURVE SMOOTH",
"1177 1241 LINE",
"1090 1238 OFFCURVE",
"1016 1238 OFFCURVE",
"928 1238 CURVE SMOOTH",
"857 1238 OFFCURVE",
"786 1239 OFFCURVE",
"715 1241 CURVE"
);
}
);
width = 1243;
}
);
unicode = 0054;
},
{
glyphname = U;
lastChange = "2012-07-01 20:32:51 +0000";
layers = (
{
anchors = (
{
name = ogonek;
position = "{1318, 10}";
},
{
name = top;
position = "{733, 1399}";
}
);
layerId = "48AD09F1-34FF-452A-86DA-A72F7276366E";
name = Regular;
paths = (
{
closed = 1;
nodes = (
"663 16 LINE SMOOTH",
"592 16 OFFCURVE",
"520 26 OFFCURVE",
"453 46 CURVE SMOOTH",
"386 66 OFFCURVE",
"324 97 OFFCURVE",
"275 138 CURVE",
"192 218 OFFCURVE",
"158 329 OFFCURVE",
"158 444 CURVE SMOOTH",
"158 467 OFFCURVE",
"159 491 OFFCURVE",
"161 515 CURVE SMOOTH",
"185 755 OFFCURVE",
"201 992 OFFCURVE",
"201 1228 CURVE SMOOTH",
"201 1285 OFFCURVE",
"200 1342 OFFCURVE",
"198 1398 CURVE",
"225 1395 OFFCURVE",
"251 1392 OFFCURVE",
"275 1391 CURVE SMOOTH",
"298 1390 OFFCURVE",
"324 1388 OFFCURVE",
"351 1386 CURVE",
"351 1324 LINE SMOOTH",
"351 1117 OFFCURVE",
"342 913 OFFCURVE",
"329 705 CURVE",
"328 698 OFFCURVE",
"328 692 OFFCURVE",
"328 685 CURVE SMOOTH",
"328 678 OFFCURVE",
"328 672 OFFCURVE",
"328 665 CURVE SMOOTH",
"328 585 OFFCURVE",
"344 509 OFFCURVE",
"387 446 CURVE",
"423 401 OFFCURVE",
"468 372 OFFCURVE",
"517 354 CURVE SMOOTH",
"566 336 OFFCURVE",
"621 329 OFFCURVE",
"674 329 CURVE SMOOTH",
"681 329 LINE SMOOTH",
"728 329 OFFCURVE",
"779 334 OFFCURVE",
"828 348 CURVE SMOOTH",
"877 362 OFFCURVE",
"924 384 OFFCURVE",
"967 420 CURVE SMOOTH",
"1031 475 OFFCURVE",
"1062 548 OFFCURVE",
"1077 621 CURVE SMOOTH",
"1084 652 OFFCURVE",
"1087 684 OFFCURVE",
"1090 712 CURVE SMOOTH",
"1109 935 OFFCURVE",
"1130 1153 OFFCURVE",
"1161 1377 CURVE",
"1193 1378 OFFCURVE",
"1224 1380 OFFCURVE",
"1253 1382 CURVE SMOOTH",
"1282 1384 OFFCURVE",
"1312 1386 OFFCURVE",
"1344 1388 CURVE",
"1293 1107 OFFCURVE",
"1263 807 OFFCURVE",
"1243 530 CURVE SMOOTH",
"1239 463 OFFCURVE",
"1224 379 OFFCURVE",
"1180 282 CURVE SMOOTH",
"1135 185 OFFCURVE",
"1055 118 OFFCURVE",
"988 83 CURVE SMOOTH",
"921 48 OFFCURVE",
"852 29 OFFCURVE",
"782 22 CURVE SMOOTH",
"747 18 OFFCURVE",
"713 16 OFFCURVE",
"680 16 CURVE SMOOTH"
);
}
);
width = 1465;
}
);
unicode = 0055;
},
{
glyphname = V;
lastChange = "2012-07-01 20:32:51 +0000";
layers = (
{
layerId = "48AD09F1-34FF-452A-86DA-A72F7276366E";
name = Regular;
paths = (
{
closed = 1;
nodes = (
"690 35 OFFCURVE",
"607 36 OFFCURVE",
"523 37 CURVE",
"458 225 OFFCURVE",
"403 408 OFFCURVE",
"347 599 CURVE SMOOTH",
"267 867 OFFCURVE",
"185 1140 OFFCURVE",
"82 1397 CURVE",
"114 1393 OFFCURVE",
"140 1391 OFFCURVE",
"168 1389 CURVE SMOOTH",
"195 1387 OFFCURVE",
"222 1385 OFFCURVE",
"254 1384 CURVE",
"371 1139 OFFCURVE",
"482 865 OFFCURVE",
"585 610 CURVE SMOOTH",
"661 422 LINE",
"721 532 LINE SMOOTH",
"874 819 OFFCURVE",
"1030 1104 OFFCURVE",
"1213 1385 CURVE",
"1258 1388 OFFCURVE",
"1299 1391 OFFCURVE",
"1344 1395 CURVE SMOOTH",
"1397 1399 LINE",
"1269 1175 OFFCURVE",
"1156 947 OFFCURVE",
"1052 717 CURVE SMOOTH",
"948 487 OFFCURVE",
"854 255 OFFCURVE",
"762 23 CURVE"
);
}
);
width = 1451;
}
);
unicode = 0056;
},
{
glyphname = W;
lastChange = "2012-07-01 20:32:51 +0000";
layers = (
{
anchors = (
{
name = top;
position = "{1050, 1399}";
}
);
layerId = "48AD09F1-34FF-452A-86DA-A72F7276366E";
name = Regular;
paths = (
{
closed = 1;
nodes = (
"1497 22 LINE",
"1445 24 OFFCURVE",
"1394 26 OFFCURVE",
"1343 28 CURVE SMOOTH",
"1292 30 OFFCURVE",
"1240 32 OFFCURVE",
"1188 33 CURVE",
"1156 137 OFFCURVE",
"1129 249 OFFCURVE",
"1105 362 CURVE SMOOTH",
"1081 474 OFFCURVE",
"1060 587 OFFCURVE",
"1040 695 CURVE SMOOTH",
"1019 806 LINE",
"1002 804 LINE",
"956 676 OFFCURVE",
"910 548 OFFCURVE",
"863 421 CURVE SMOOTH",
"816 293 OFFCURVE",
"770 165 OFFCURVE",
"723 37 CURVE",
"654 37 OFFCURVE",
"594 36 OFFCURVE",
"525 35 CURVE SMOOTH",
"510 35 OFFCURVE",
"494 35 OFFCURVE",
"477 35 CURVE",
"460 34 OFFCURVE",
"444 34 OFFCURVE",
"429 34 CURVE",
"389 259 LINE SMOOTH",
"354 454 OFFCURVE",
"320 648 OFFCURVE",
"278 840 CURVE SMOOTH",
"236 1031 OFFCURVE",
"184 1218 OFFCURVE",
"119 1398 CURVE",
"182 1393 OFFCURVE",
"225 1391 OFFCURVE",
"289 1388 CURVE",
"354 1232 OFFCURVE",
"410 1065 OFFCURVE",
"460 893 CURVE SMOOTH",
"510 721 OFFCURVE",
"555 544 OFFCURVE",
"600 367 CURVE",
"699 544 OFFCURVE",
"805 742 OFFCURVE",
"901 921 CURVE SMOOTH",
"981 1069 LINE",
"1096 1069 LINE",
"1181 851 LINE SMOOTH",
"1196 812 OFFCURVE",
"1211 772 OFFCURVE",
"1228 731 CURVE SMOOTH",
"1244 690 OFFCURVE",
"1260 648 OFFCURVE",
"1277 607 CURVE SMOOTH",
"1309 523 OFFCURVE",
"1344 440 OFFCURVE",
"1376 364 CURVE",
"1504 717 OFFCURVE",
"1644 1066 OFFCURVE",
"1823 1389 CURVE",
"1855 1390 OFFCURVE",
"1885 1392 OFFCURVE",
"1913 1394 CURVE SMOOTH",
"1941 1396 OFFCURVE",
"1971 1398 OFFCURVE",
"2003 1400 CURVE",
"1759 949 OFFCURVE",
"1596 483 OFFCURVE",
"1508 22 CURVE"
);
}
);
width = 2099;
}
);
unicode = 0057;
},
{
glyphname = X;
lastChange = "2012-07-01 20:32:51 +0000";
layers = (
{
layerId = "48AD09F1-34FF-452A-86DA-A72F7276366E";
name = Regular;
paths = (
{
closed = 1;
nodes = (
"1096 26 LINE",
"987 199 OFFCURVE",
"880 388 OFFCURVE",
"784 571 CURVE",
"664 392 OFFCURVE",
"537 206 OFFCURVE",
"409 33 CURVE",
"305 30 OFFCURVE",
"201 25 OFFCURVE",
"97 20 CURVE",
"285 221 OFFCURVE",
"449 416 OFFCURVE",
"620 628 CURVE SMOOTH",
"704 732 LINE",
"564 957 OFFCURVE",
"421 1180 OFFCURVE",
"272 1397 CURVE",
"285 1396 OFFCURVE",
"296 1395 OFFCURVE",
"307 1394 CURVE SMOOTH",
"317 1393 OFFCURVE",
"327 1393 OFFCURVE",
"337 1392 CURVE",
"356 1391 OFFCURVE",
"375 1389 OFFCURVE",
"402 1388 CURVE",
"451 1384 LINE",
"572 1211 OFFCURVE",
"688 1029 OFFCURVE",
"800 850 CURVE",
"936 1025 OFFCURVE",
"1078 1206 OFFCURVE",
"1222 1374 CURVE",
"1365 1374 LINE",
"1370 1377 LINE",
"1379 1378 OFFCURVE",
"1387 1378 OFFCURVE",
"1396 1379 CURVE",
"1404 1379 OFFCURVE",
"1412 1380 OFFCURVE",
"1419 1381 CURVE",
"1240 1178 OFFCURVE",
"1082 976 OFFCURVE",
"917 765 CURVE SMOOTH",
"887 727 LINE",
"958 627 LINE SMOOTH",
"1103 419 OFFCURVE",
"1251 211 OFFCURVE",
"1408 12 CURVE",
"1379 14 OFFCURVE",
"1352 16 OFFCURVE",
"1326 18 CURVE SMOOTH",
"1274 22 OFFCURVE",
"1224 25 OFFCURVE",
"1172 27 CURVE SMOOTH",
"1145 28 OFFCURVE",
"1118 29 OFFCURVE",
"1089 30 CURVE"
);
}
);
width = 1544;
}
);
unicode = 0058;
},
{
glyphname = Y;
lastChange = "2012-07-01 20:32:51 +0000";
layers = (
{
anchors = (
{
name = top;
position = "{684, 1399}";
}
);
layerId = "48AD09F1-34FF-452A-86DA-A72F7276366E";
name = Regular;
paths = (
{
closed = 1;
nodes = (
"732 507 LINE",
"739 347 OFFCURVE",
"749 186 OFFCURVE",
"768 29 CURVE",
"652 36 OFFCURVE",
"551 37 OFFCURVE",
"435 37 CURVE",
"444 85 OFFCURVE",
"452 132 OFFCURVE",
"460 178 CURVE SMOOTH",
"467 223 OFFCURVE",
"475 270 OFFCURVE",
"484 317 CURVE SMOOTH",
"519 511 LINE",
"461 632 LINE SMOOTH",
"336 895 OFFCURVE",
"218 1142 OFFCURVE",
"81 1397 CURVE",
"148 1390 OFFCURVE",
"192 1386 OFFCURVE",
"259 1383 CURVE",
"392 1168 OFFCURVE",
"521 945 OFFCURVE",
"645 725 CURVE",
"705 810 LINE SMOOTH",
"842 1005 OFFCURVE",
"980 1196 OFFCURVE",
"1129 1384 CURVE",
"1161 1386 OFFCURVE",
"1193 1388 OFFCURVE",
"1224 1391 CURVE SMOOTH",
"1255 1394 OFFCURVE",
"1286 1396 OFFCURVE",
"1318 1399 CURVE",
"1123 1135 OFFCURVE",
"949 854 OFFCURVE",
"774 573 CURVE SMOOTH"
);
}
);
width = 1368;
}
);
unicode = 0059;
},
{
glyphname = Z;
lastChange = "2012-07-01 20:32:51 +0000";
layers = (
{
anchors = (
{
name = top;
position = "{690, 1399}";
}
);
layerId = "48AD09F1-34FF-452A-86DA-A72F7276366E";
name = Regular;
paths = (
{
closed = 1;
nodes = (
"998 29 OFFCURVE",
"797 37 OFFCURVE",
"590 37 CURVE SMOOTH",
"423 37 OFFCURVE",
"256 32 OFFCURVE",
"88 21 CURVE",
"105 126 OFFCURVE",
"119 222 OFFCURVE",
"132 327 CURVE",
"245 444 OFFCURVE",
"359 566 OFFCURVE",
"470 683 CURVE SMOOTH",
"553 771 OFFCURVE",
"639 861 OFFCURVE",
"726 954 CURVE SMOOTH",
"813 1046 OFFCURVE",
"899 1135 OFFCURVE",
"984 1222 CURVE",
"961 1222 OFFCURVE",
"935 1222 OFFCURVE",
"906 1222 CURVE SMOOTH",
"877 1221 OFFCURVE",
"851 1221 OFFCURVE",
"828 1221 CURVE SMOOTH",
"637 1221 OFFCURVE",
"450 1225 OFFCURVE",
"263 1240 CURVE",
"262 1265 OFFCURVE",
"262 1289 OFFCURVE",
"262 1312 CURVE SMOOTH",
"262 1335 OFFCURVE",
"261 1359 OFFCURVE",
"260 1383 CURVE",
"260 1399 LINE",
"453 1380 OFFCURVE",
"636 1372 OFFCURVE",
"835 1372 CURVE SMOOTH",
"964 1372 OFFCURVE",
"1104 1374 OFFCURVE",
"1235 1381 CURVE",
"1234 1372 OFFCURVE",
"1233 1365 OFFCURVE",
"1233 1360 CURVE",
"1232 1355 OFFCURVE",
"1231 1348 OFFCURVE",
"1230 1339 CURVE SMOOTH",
"1225 1304 OFFCURVE",
"1221 1274 OFFCURVE",
"1217 1239 CURVE",
"1057 1059 OFFCURVE",
"906 880 OFFCURVE",
"753 696 CURVE",
"745 685 OFFCURVE",
"737 677 OFFCURVE",
"728 666 CURVE SMOOTH",
"684 613 OFFCURVE",
"639 559 OFFCURVE",
"592 503 CURVE SMOOTH",
"545 447 OFFCURVE",
"500 393 OFFCURVE",
"456 342 CURVE",
"485 343 OFFCURVE",
"517 343 OFFCURVE",
"552 343 CURVE SMOOTH",
"586 343 OFFCURVE",
"618 343 OFFCURVE",
"647 343 CURVE SMOOTH",
"827 343 OFFCURVE",
"1002 340 OFFCURVE",
"1181 332 CURVE",
"1180 315 OFFCURVE",
"1180 298 OFFCURVE",
"1180 281 CURVE SMOOTH",
"1180 264 OFFCURVE",
"1180 247 OFFCURVE",
"1180 230 CURVE SMOOTH",
"1180 150 OFFCURVE",
"1182 74 OFFCURVE",
"1201 10 CURVE"
);
}
);
width = 1379;
}
);
unicode = 005A;
},
{
glyphname = bracketleft;
lastChange = "2012-07-01 20:32:51 +0000";
layers = (
{
layerId = "48AD09F1-34FF-452A-86DA-A72F7276366E";
name = Regular;
paths = (
{
closed = 1;
nodes = (
"164 244 OFFCURVE",
"252 856 OFFCURVE",
"308 1465 CURVE",
"412 1428 OFFCURVE",
"526 1415 OFFCURVE",
"642 1415 CURVE SMOOTH",
"653 1415 OFFCURVE",
"664 1415 OFFCURVE",
"675 1415 CURVE SMOOTH",
"686 1415 OFFCURVE",
"697 1415 OFFCURVE",
"708 1416 CURVE",
"706 1403 OFFCURVE",
"705 1391 OFFCURVE",
"704 1382 CURVE SMOOTH",
"703 1373 OFFCURVE",
"702 1361 OFFCURVE",
"699 1348 CURVE",
"695 1325 OFFCURVE",
"691 1301 OFFCURVE",
"688 1278 CURVE",
"675 1277 OFFCURVE",
"665 1277 OFFCURVE",
"656 1277 CURVE SMOOTH",
"647 1277 OFFCURVE",
"637 1277 OFFCURVE",
"624 1277 CURVE SMOOTH",
"573 1277 OFFCURVE",
"523 1278 OFFCURVE",
"470 1285 CURVE",
"463 1223 OFFCURVE",
"455 1160 OFFCURVE",
"447 1095 CURVE SMOOTH",
"439 1030 OFFCURVE",
"431 965 OFFCURVE",
"423 900 CURVE SMOOTH",
"407 768 OFFCURVE",
"391 638 OFFCURVE",
"375 514 CURVE SMOOTH",
"346 287 OFFCURVE",
"318 58 OFFCURVE",
"291 -169 CURVE",
"364 -176 OFFCURVE",
"435 -186 OFFCURVE",
"503 -203 CURVE",
"495 -274 OFFCURVE",
"490 -335 OFFCURVE",
"485 -404 CURVE",
"378 -369 OFFCURVE",
"265 -357 OFFCURVE",
"145 -357 CURVE SMOOTH",
"120 -357 OFFCURVE",
"95 -358 OFFCURVE",
"71 -359 CURVE"
);
}
);
width = 743;
}
);
unicode = 005B;
},
{
glyphname = backslash;
lastChange = "2012-07-01 20:32:51 +0000";
layers = (
{
layerId = "48AD09F1-34FF-452A-86DA-A72F7276366E";
name = Regular;
paths = (
{
closed = 1;
nodes = (
"271 254 OFFCURVE",
"223 499 OFFCURVE",
"176 750 CURVE SMOOTH",
"129 991 OFFCURVE",
"87 1220 OFFCURVE",
"32 1457 CURVE",
"59 1452 OFFCURVE",
"86 1448 OFFCURVE",
"113 1446 CURVE SMOOTH",
"140 1444 OFFCURVE",
"167 1442 OFFCURVE",
"195 1439 CURVE",
"222 1325 OFFCURVE",
"247 1212 OFFCURVE",
"269 1099 CURVE SMOOTH",
"291 986 OFFCURVE",
"313 871 OFFCURVE",
"336 755 CURVE SMOOTH",
"361 627 OFFCURVE",
"386 500 OFFCURVE",
"411 373 CURVE SMOOTH",
"436 246 OFFCURVE",
"464 120 OFFCURVE",
"495 -6 CURVE",
"447 1 OFFCURVE",
"399 7 OFFCURVE",
"354 7 CURVE SMOOTH",
"349 7 OFFCURVE",
"345 7 OFFCURVE",
"341 7 CURVE",
"336 6 OFFCURVE",
"332 6 OFFCURVE",
"328 6 CURVE"
);
}
);
width = 525;
}
);
unicode = 005C;
},
{
glyphname = bracketright;
lastChange = "2012-07-01 20:32:51 +0000";
layers = (
{
layerId = "48AD09F1-34FF-452A-86DA-A72F7276366E";
name = Regular;
paths = (
{
closed = 1;
nodes = (
"50 -326 OFFCURVE",
"54 -284 OFFCURVE",
"59 -241 CURVE SMOOTH",
"69 -167 LINE",
"128 -167 LINE SMOOTH",
"179 -167 OFFCURVE",
"237 -170 OFFCURVE",
"286 -173 CURVE",
"297 -57 OFFCURVE",
"311 73 OFFCURVE",
"325 204 CURVE SMOOTH",
"339 335 OFFCURVE",
"353 466 OFFCURVE",
"366 583 CURVE SMOOTH",
"391 815 OFFCURVE",
"417 1050 OFFCURVE",
"440 1282 CURVE",
"367 1289 OFFCURVE",
"295 1298 OFFCURVE",
"227 1317 CURVE",
"230 1334 OFFCURVE",
"231 1350 OFFCURVE",
"232 1364 CURVE SMOOTH",
"233 1378 OFFCURVE",
"234 1393 OFFCURVE",
"235 1410 CURVE SMOOTH",
"237 1463 LINE",
"341 1431 OFFCURVE",
"456 1418 OFFCURVE",
"573 1418 CURVE SMOOTH",
"584 1418 OFFCURVE",
"595 1418 OFFCURVE",
"606 1418 CURVE SMOOTH",
"617 1418 OFFCURVE",
"628 1418 OFFCURVE",
"639 1419 CURVE",
"593 1033 LINE SMOOTH",
"536 552 OFFCURVE",
"478 74 OFFCURVE",
"447 -403 CURVE",
"339 -371 OFFCURVE",
"225 -360 OFFCURVE",
"104 -360 CURVE SMOOTH",
"93 -360 OFFCURVE",
"81 -360 OFFCURVE",
"70 -360 CURVE SMOOTH",
"58 -360 OFFCURVE",
"46 -360 OFFCURVE",
"35 -361 CURVE"
);
}
);
width = 724;
}
);
unicode = 005D;
},
{
glyphname = asciicircum;
lastChange = "2012-07-01 20:32:51 +0000";
layers = (
{
layerId = "48AD09F1-34FF-452A-86DA-A72F7276366E";
name = Regular;
paths = (
{
closed = 1;
nodes = (
"730 794 OFFCURVE",
"695 919 OFFCURVE",
"660 1048 CURVE SMOOTH",
"654 1069 OFFCURVE",
"648 1092 OFFCURVE",
"641 1116 CURVE SMOOTH",
"628 1164 OFFCURVE",
"614 1213 OFFCURVE",
"599 1261 CURVE SMOOTH",
"592 1284 OFFCURVE",
"585 1307 OFFCURVE",
"578 1328 CURVE",
"575 1320 OFFCURVE",
"571 1311 OFFCURVE",
"566 1300 CURVE SMOOTH",
"556 1279 OFFCURVE",
"545 1255 OFFCURVE",
"535 1233 CURVE SMOOTH",
"530 1222 OFFCURVE",
"525 1212 OFFCURVE",
"522 1204 CURVE",
"483 1119 OFFCURVE",
"441 1024 OFFCURVE",
"397 932 CURVE SMOOTH",
"353 840 OFFCURVE",
"308 749 OFFCURVE",
"264 669 CURVE",
"193 666 OFFCURVE",
"133 664 OFFCURVE",
"64 660 CURVE",
"143 769 OFFCURVE",
"211 882 OFFCURVE",
"275 997 CURVE SMOOTH",
"307 1054 OFFCURVE",
"338 1112 OFFCURVE",
"368 1171 CURVE SMOOTH",
"398 1229 OFFCURVE",
"428 1287 OFFCURVE",
"458 1345 CURVE SMOOTH",
"473 1374 LINE",
"480 1374 OFFCURVE",
"489 1374 OFFCURVE",
"498 1374 CURVE",
"507 1373 OFFCURVE",
"514 1373 OFFCURVE",
"520 1373 CURVE",
"539 1372 OFFCURVE",
"559 1372 OFFCURVE",
"579 1372 CURVE SMOOTH",
"598 1372 OFFCURVE",
"618 1372 OFFCURVE",
"637 1372 CURVE SMOOTH",
"680 1372 LINE",
"719 1287 OFFCURVE",
"751 1205 OFFCURVE",
"786 1117 CURVE SMOOTH",
"849 960 OFFCURVE",
"911 806 OFFCURVE",
"995 661 CURVE",
"958 664 OFFCURVE",
"925 665 OFFCURVE",
"895 666 CURVE SMOOTH",
"864 667 OFFCURVE",
"831 668 OFFCURVE",
"796 669 CURVE SMOOTH",
"792 669 OFFCURVE",
"788 669 OFFCURVE",
"785 670 CURVE",
"781 670 OFFCURVE",
"777 670 OFFCURVE",
"773 670 CURVE"
);
}
);
width = 1080;
}
);
unicode = 005E;
},
{
glyphname = underscore;
lastChange = "2012-07-01 20:32:51 +0000";
layers = (
{
layerId = "48AD09F1-34FF-452A-86DA-A72F7276366E";
name = Regular;
paths = (
{
closed = 1;
nodes = (
"193 -376 OFFCURVE",
"208 -352 OFFCURVE",
"213 -326 CURVE",
"215 -318 OFFCURVE",
"216 -310 OFFCURVE",
"216 -301 CURVE SMOOTH",
"216 -278 OFFCURVE",
"210 -257 OFFCURVE",
"197 -238 CURVE",
"244 -239 OFFCURVE",
"289 -239 OFFCURVE",
"333 -239 CURVE SMOOTH",
"377 -240 OFFCURVE",
"421 -240 OFFCURVE",
"465 -240 CURVE SMOOTH",
"508 -241 OFFCURVE",
"552 -241 OFFCURVE",
"596 -241 CURVE SMOOTH",
"640 -241 OFFCURVE",
"686 -241 OFFCURVE",
"733 -241 CURVE SMOOTH",
"934 -241 OFFCURVE",
"1137 -240 OFFCURVE",
"1340 -238 CURVE",
"1325 -256 OFFCURVE",
"1315 -276 OFFCURVE",
"1310 -297 CURVE SMOOTH",
"1309 -301 OFFCURVE",
"1308 -305 OFFCURVE",
"1308 -309 CURVE SMOOTH",
"1308 -313 OFFCURVE",
"1308 -317 OFFCURVE",
"1308 -321 CURVE SMOOTH",
"1308 -345 OFFCURVE",
"1314 -365 OFFCURVE",
"1326 -382 CURVE",
"1277 -381 OFFCURVE",
"1229 -381 OFFCURVE",
"1182 -380 CURVE SMOOTH",
"1135 -380 OFFCURVE",
"1089 -380 OFFCURVE",
"1043 -379 CURVE SMOOTH",
"997 -379 OFFCURVE",
"951 -379 OFFCURVE",
"904 -379 CURVE SMOOTH",
"857 -379 OFFCURVE",
"808 -379 OFFCURVE",
"759 -379 CURVE SMOOTH",
"560 -379 OFFCURVE",
"364 -380 OFFCURVE",
"168 -399 CURVE"
);
}
);
width = 1461;
}
);
unicode = 005F;
},
{
glyphname = grave;
lastChange = "2012-07-01 20:32:51 +0000";
layers = (
{
anchors = (
{
name = _top;
position = "{228.5, 1094}";
}
);
layerId = "48AD09F1-34FF-452A-86DA-A72F7276366E";
name = Regular;
paths = (
{
closed = 1;
nodes = (
"331 1171 LINE",
"295 1200 OFFCURVE",
"260 1231 OFFCURVE",
"227 1262 CURVE SMOOTH",
"194 1293 OFFCURVE",
"160 1325 OFFCURVE",
"126 1356 CURVE SMOOTH",
"32 1443 LINE",
"29 1483 LINE",
"102 1479 OFFCURVE",
"161 1477 OFFCURVE",
"236 1477 CURVE",
"271 1430 OFFCURVE",
"297 1387 OFFCURVE",
"328 1339 CURVE SMOOTH",
"339 1321 LINE SMOOTH",
"366 1278 OFFCURVE",
"392 1238 OFFCURVE",
"423 1199 CURVE",
"424 1196 OFFCURVE",
"424 1192 OFFCURVE",
"425 1188 CURVE",
"425 1184 OFFCURVE",
"426 1180 OFFCURVE",
"427 1177 CURVE",
"428 1169 LINE",
"409 1170 OFFCURVE",
"392 1171 OFFCURVE",
"377 1172 CURVE",
"362 1172 OFFCURVE",
"345 1172 OFFCURVE",
"326 1173 CURVE"
);
}
);
width = 489;
}
);
unicode = 0060;
},
{
glyphname = a;
lastChange = "2012-07-01 20:32:51 +0000";
layers = (
{
anchors = (
{
name = ogonek;
position = "{1093, 10}";
},
{
name = top;
position = "{608, 1094}";
}
);
layerId = "48AD09F1-34FF-452A-86DA-A72F7276366E";
name = Regular;
paths = (
{
closed = 1;
nodes = (
"358 9 OFFCURVE",
"316 12 OFFCURVE",
"279 21 CURVE SMOOTH",
"242 30 OFFCURVE",
"206 47 OFFCURVE",
"181 74 CURVE SMOOTH",
"137 121 OFFCURVE",
"123 181 OFFCURVE",
"123 241 CURVE SMOOTH",
"123 262 OFFCURVE",
"125 284 OFFCURVE",
"128 305 CURVE",
"128 311 LINE",
"129 318 OFFCURVE",
"131 326 OFFCURVE",
"132 333 CURVE SMOOTH",
"133 340 OFFCURVE",
"134 347 OFFCURVE",
"136 353 CURVE",
"144 394 OFFCURVE",
"162 439 OFFCURVE",
"187 478 CURVE SMOOTH",
"212 517 OFFCURVE",
"246 551 OFFCURVE",
"287 575 CURVE",
"395 628 OFFCURVE",
"493 640 OFFCURVE",
"585 640 CURVE SMOOTH",
"824 640 LINE",
"830 728 LINE",
"831 737 OFFCURVE",
"832 746 OFFCURVE",
"832 755 CURVE SMOOTH",
"832 804 OFFCURVE",
"824 853 OFFCURVE",
"796 890 CURVE",
"749 943 OFFCURVE",
"683 956 OFFCURVE",
"618 957 CURVE SMOOTH",
"599 957 LINE SMOOTH",
"554 957 OFFCURVE",
"510 953 OFFCURVE",
"463 933 CURVE",
"431 917 OFFCURVE",
"410 895 OFFCURVE",
"395 871 CURVE SMOOTH",
"380 846 OFFCURVE",
"372 820 OFFCURVE",
"368 796 CURVE",
"333 799 OFFCURVE",
"312 803 OFFCURVE",
"279 808 CURVE",
"270 810 OFFCURVE",
"260 812 OFFCURVE",
"250 813 CURVE SMOOTH",
"239 814 OFFCURVE",
"229 816 OFFCURVE",
"219 817 CURVE",
"218 817 OFFCURVE",
"217 817 OFFCURVE",
"216 818 CURVE",
"215 818 OFFCURVE",
"214 818 OFFCURVE",
"213 818 CURVE",
"218 858 OFFCURVE",
"234 901 OFFCURVE",
"258 938 CURVE SMOOTH",
"282 975 OFFCURVE",
"314 1006 OFFCURVE",
"357 1025 CURVE SMOOTH",
"444 1064 OFFCURVE",
"529 1070 OFFCURVE",
"605 1070 CURVE SMOOTH",
"622 1070 LINE SMOOTH",
"710 1070 OFFCURVE",
"793 1056 OFFCURVE",
"864 1019 CURVE",
"952 964 OFFCURVE",
"986 876 OFFCURVE",
"986 780 CURVE SMOOTH",
"986 763 OFFCURVE",
"985 746 OFFCURVE",
"983 729 CURVE SMOOTH",
"971 602 OFFCURVE",
"962 476 OFFCURVE",
"954 351 CURVE",
"955 333 LINE SMOOTH",
"958 298 OFFCURVE",
"960 262 OFFCURVE",
"971 230 CURVE",
"983 199 OFFCURVE",
"1015 182 OFFCURVE",
"1050 182 CURVE SMOOTH",
"1062 182 LINE SMOOTH",
"1074 182 OFFCURVE",
"1086 183 OFFCURVE",
"1098 184 CURVE",
"1098 153 LINE SMOOTH",
"1098 105 OFFCURVE",
"1100 63 OFFCURVE",
"1103 14 CURVE",
"1078 10 OFFCURVE",
"1052 8 OFFCURVE",
"1026 8 CURVE SMOOTH",
"1011 8 OFFCURVE",
"999 9 OFFCURVE",
"986 10 CURVE",
"974 10 LINE SMOOTH",
"919 10 OFFCURVE",
"876 33 OFFCURVE",
"847 69 CURVE SMOOTH",
"818 105 OFFCURVE",
"801 154 OFFCURVE",
"801 206 CURVE SMOOTH",
"801 209 OFFCURVE",
"801 213 OFFCURVE",
"801 217 CURVE SMOOTH",
"801 221 OFFCURVE",
"801 225 OFFCURVE",
"802 229 CURVE",
"780 229 LINE",
"745 158 OFFCURVE",
"689 103 OFFCURVE",
"625 66 CURVE SMOOTH",
"561 29 OFFCURVE",
"488 8 OFFCURVE",
"420 8 CURVE SMOOTH",
"417 8 OFFCURVE",
"413 8 OFFCURVE",
"410 9 CURVE",
"406 9 OFFCURVE",
"402 9 OFFCURVE",
"398 9 CURVE SMOOTH"
);
},
{
closed = 1;
nodes = (
"502 258 OFFCURVE",
"558 267 OFFCURVE",
"614 295 CURVE SMOOTH",
"657 316 OFFCURVE",
"698 341 OFFCURVE",
"733 376 CURVE SMOOTH",
"757 401 OFFCURVE",
"773 436 OFFCURVE",
"780 467 CURVE",
"781 473 OFFCURVE",
"782 479 OFFCURVE",
"783 485 CURVE SMOOTH",
"784 490 OFFCURVE",
"784 496 OFFCURVE",
"785 501 CURVE",
"792 589 LINE",
"608 589 LINE SMOOTH",
"605 589 OFFCURVE",
"602 589 OFFCURVE",
"599 589 CURVE",
"596 588 OFFCURVE",
"592 588 OFFCURVE",
"589 588 CURVE",
"538 585 OFFCURVE",
"486 581 OFFCURVE",
"430 562 CURVE",
"391 551 OFFCURVE",
"360 528 OFFCURVE",
"336 499 CURVE SMOOTH",
"311 470 OFFCURVE",
"295 434 OFFCURVE",
"287 399 CURVE",
"286 393 OFFCURVE",
"285 387 OFFCURVE",
"285 382 CURVE",
"284 377 OFFCURVE",
"284 371 OFFCURVE",
"283 366 CURVE",
"290 329 OFFCURVE",
"299 291 OFFCURVE",
"327 274 CURVE",
"367 258 OFFCURVE",
"407 257 OFFCURVE",
"446 257 CURVE SMOOTH"
);
}
);
width = 1215;
}
);
unicode = 0061;
},
{
glyphname = b;
lastChange = "2012-07-01 20:32:51 +0000";
layers = (
{
layerId = "48AD09F1-34FF-452A-86DA-A72F7276366E";
name = Regular;
paths = (
{
closed = 1;
nodes = (
"1044 546 LINE SMOOTH",
"1044 545 OFFCURVE",
"1044 544 OFFCURVE",
"1044 543 CURVE",
"1043 542 OFFCURVE",
"1043 540 OFFCURVE",
"1043 539 CURVE",
"1036 479 OFFCURVE",
"1030 418 OFFCURVE",
"1017 358 CURVE SMOOTH",
"1004 301 OFFCURVE",
"987 244 OFFCURVE",
"960 187 CURVE SMOOTH",
"932 127 OFFCURVE",
"886 84 OFFCURVE",
"834 56 CURVE SMOOTH",
"782 28 OFFCURVE",
"722 15 OFFCURVE",
"669 15 CURVE SMOOTH",
"664 15 OFFCURVE",
"660 15 OFFCURVE",
"655 15 CURVE SMOOTH",
"650 15 OFFCURVE",
"646 15 OFFCURVE",
"641 16 CURVE",
"632 16 LINE SMOOTH",
"563 16 OFFCURVE",
"496 34 OFFCURVE",
"439 68 CURVE SMOOTH",
"382 102 OFFCURVE",
"335 153 OFFCURVE",
"304 218 CURVE",
"303 213 OFFCURVE",
"301 207 OFFCURVE",
"300 199 CURVE",
"297 183 OFFCURVE",
"294 165 OFFCURVE",
"291 149 CURVE",
"287 133 OFFCURVE",
"286 124 OFFCURVE",
"285 112 CURVE",
"284 106 OFFCURVE",
"283 100 OFFCURVE",
"282 95 CURVE SMOOTH",
"277 70 LINE",
"276 57 OFFCURVE",
"274 45 OFFCURVE",
"272 33 CURVE",
"244 32 OFFCURVE",
"218 31 OFFCURVE",
"194 30 CURVE SMOOTH",
"170 29 OFFCURVE",
"144 27 OFFCURVE",
"116 25 CURVE",
"129 84 OFFCURVE",
"135 138 OFFCURVE",
"142 195 CURVE SMOOTH",
"147 233 LINE SMOOTH",
"160 335 OFFCURVE",
"174 438 OFFCURVE",
"189 543 CURVE SMOOTH",
"217 751 OFFCURVE",
"244 960 OFFCURVE",
"262 1167 CURVE SMOOTH",
"271 1270 OFFCURVE",
"277 1372 OFFCURVE",
"280 1472 CURVE",
"306 1468 OFFCURVE",
"331 1465 OFFCURVE",
"354 1463 CURVE SMOOTH",
"377 1461 OFFCURVE",
"401 1459 OFFCURVE",
"426 1456 CURVE",
"427 1456 OFFCURVE",
"429 1456 OFFCURVE",
"430 1456 CURVE",
"431 1455 OFFCURVE",
"433 1455 OFFCURVE",
"434 1455 CURVE",
"421 1316 OFFCURVE",
"409 1186 OFFCURVE",
"390 1046 CURVE",
"387 995 OFFCURVE",
"380 943 OFFCURVE",
"372 891 CURVE",
"392 891 LINE",
"413 952 OFFCURVE",
"457 998 OFFCURVE",
"509 1029 CURVE SMOOTH",
"561 1060 OFFCURVE",
"623 1076 OFFCURVE",
"679 1076 CURVE SMOOTH",
"684 1076 OFFCURVE",
"688 1076 OFFCURVE",
"693 1076 CURVE SMOOTH",
"697 1076 OFFCURVE",
"701 1076 OFFCURVE",
"706 1075 CURVE",
"714 1075 LINE SMOOTH",
"767 1075 OFFCURVE",
"821 1065 OFFCURVE",
"866 1045 CURVE SMOOTH",
"911 1025 OFFCURVE",
"950 994 OFFCURVE",
"974 950 CURVE SMOOTH",
"1005 894 OFFCURVE",
"1021 834 OFFCURVE",
"1030 771 CURVE SMOOTH",
"1035 739 OFFCURVE",
"1038 707 OFFCURVE",
"1039 675 CURVE SMOOTH",
"1040 642 OFFCURVE",
"1042 610 OFFCURVE",
"1043 578 CURVE SMOOTH"
);
},
{
closed = 1;
nodes = (
"951 680 OFFCURVE",
"951 728 OFFCURVE",
"944 773 CURVE SMOOTH",
"937 818 OFFCURVE",
"925 862 OFFCURVE",
"901 901 CURVE SMOOTH",
"884 930 OFFCURVE",
"856 951 OFFCURVE",
"824 964 CURVE SMOOTH",
"792 976 OFFCURVE",
"756 982 OFFCURVE",
"720 982 CURVE SMOOTH",
"706 982 LINE SMOOTH",
"667 982 OFFCURVE",
"626 976 OFFCURVE",
"586 961 CURVE SMOOTH",
"546 945 OFFCURVE",
"509 920 OFFCURVE",
"481 883 CURVE",
"446 831 OFFCURVE",
"429 780 OFFCURVE",
"418 731 CURVE SMOOTH",
"410 695 OFFCURVE",
"407 662 OFFCURVE",
"404 627 CURVE SMOOTH",
"402 604 OFFCURVE",
"401 581 OFFCURVE",
"401 558 CURVE SMOOTH",
"401 502 OFFCURVE",
"408 447 OFFCURVE",
"433 400 CURVE SMOOTH",
"456 356 OFFCURVE",
"491 328 OFFCURVE",
"531 312 CURVE SMOOTH",
"571 295 OFFCURVE",
"617 288 OFFCURVE",
"662 288 CURVE SMOOTH",
"668 288 LINE SMOOTH",
"701 288 OFFCURVE",
"738 293 OFFCURVE",
"772 305 CURVE SMOOTH",
"806 317 OFFCURVE",
"837 338 OFFCURVE",
"861 370 CURVE SMOOTH",
"904 426 OFFCURVE",
"921 488 OFFCURVE",
"936 552 CURVE SMOOTH",
"939 565 OFFCURVE",
"942 579 OFFCURVE",
"944 592 CURVE SMOOTH",
"946 605 OFFCURVE",
"948 619 OFFCURVE",
"951 633 CURVE"
);
}
);
width = 1110;
}
);
unicode = 0062;
},
{
glyphname = c;
lastChange = "2012-07-01 20:32:51 +0000";
layers = (
{
anchors = (
{
name = bottom;
position = "{530, 0}";
},
{
name = top;
position = "{530, 1094}";
}
);
layerId = "48AD09F1-34FF-452A-86DA-A72F7276366E";
name = Regular;
paths = (
{
closed = 1;
nodes = (
"295 542 LINE SMOOTH",
"295 536 OFFCURVE",
"295 530 OFFCURVE",
"295 525 CURVE",
"294 519 OFFCURVE",
"294 513 OFFCURVE",
"294 507 CURVE SMOOTH",
"294 439 OFFCURVE",
"306 372 OFFCURVE",
"354 329 CURVE",
"405 292 OFFCURVE",
"478 270 OFFCURVE",
"546 270 CURVE SMOOTH",
"549 270 OFFCURVE",
"552 270 OFFCURVE",
"555 271 CURVE",
"558 271 OFFCURVE",
"561 271 OFFCURVE",
"564 271 CURVE",
"583 272 OFFCURVE",
"603 274 OFFCURVE",
"622 275 CURVE SMOOTH",
"660 277 OFFCURVE",
"694 279 OFFCURVE",
"720 300 CURVE SMOOTH",
"733 311 OFFCURVE",
"745 322 OFFCURVE",
"756 333 CURVE",
"785 306 OFFCURVE",
"813 279 OFFCURVE",
"838 254 CURVE SMOOTH",
"863 228 OFFCURVE",
"890 201 OFFCURVE",
"918 173 CURVE",
"875 125 OFFCURVE",
"824 73 OFFCURVE",
"769 42 CURVE",
"709 13 OFFCURVE",
"647 12 OFFCURVE",
"584 11 CURVE SMOOTH",
"578 11 LINE SMOOTH",
"571 11 OFFCURVE",
"564 11 OFFCURVE",
"555 11 CURVE SMOOTH",
"546 11 OFFCURVE",
"538 11 OFFCURVE",
"531 10 CURVE",
"470 11 OFFCURVE",
"408 21 OFFCURVE",
"353 41 CURVE SMOOTH",
"297 61 OFFCURVE",
"248 91 OFFCURVE",
"213 134 CURVE",
"154 223 OFFCURVE",
"134 338 OFFCURVE",
"134 450 CURVE SMOOTH",
"134 481 OFFCURVE",
"135 511 OFFCURVE",
"138 542 CURVE SMOOTH",
"143 597 OFFCURVE",
"150 654 OFFCURVE",
"161 709 CURVE SMOOTH",
"177 782 OFFCURVE",
"202 853 OFFCURVE",
"245 920 CURVE",
"288 977 OFFCURVE",
"342 1014 OFFCURVE",
"401 1037 CURVE SMOOTH",
"460 1060 OFFCURVE",
"522 1069 OFFCURVE",
"579 1069 CURVE SMOOTH",
"598 1069 LINE SMOOTH",
"687 1068 OFFCURVE",
"777 1054 OFFCURVE",
"841 1005 CURVE SMOOTH",
"891 966 OFFCURVE",
"928 917 OFFCURVE",
"952 856 CURVE",
"915 834 LINE SMOOTH",
"901 826 OFFCURVE",
"886 818 OFFCURVE",
"871 810 CURVE SMOOTH",
"856 802 OFFCURVE",
"841 794 OFFCURVE",
"828 786 CURVE",
"783 874 OFFCURVE",
"731 925 OFFCURVE",
"675 941 CURVE SMOOTH",
"647 948 OFFCURVE",
"618 952 OFFCURVE",
"588 952 CURVE SMOOTH",
"579 952 LINE SMOOTH",
"543 952 OFFCURVE",
"504 946 OFFCURVE",
"468 931 CURVE SMOOTH",
"431 916 OFFCURVE",
"398 893 OFFCURVE",
"374 857 CURVE SMOOTH",
"343 810 OFFCURVE",
"325 760 OFFCURVE",
"314 709 CURVE SMOOTH",
"309 686 OFFCURVE",
"305 663 OFFCURVE",
"303 640 CURVE SMOOTH",
"301 617 OFFCURVE",
"299 595 OFFCURVE",
"296 572 CURVE"
);
}
);
width = 1060;
}
);
unicode = 0063;
},
{
glyphname = d;
lastChange = "2012-07-01 20:32:51 +0000";
layers = (
{
anchors = (
{
name = center;
position = "{582, 547}";
}
);
layerId = "48AD09F1-34FF-452A-86DA-A72F7276366E";
name = Regular;
paths = (
{
closed = 1;
nodes = (
"719 198 LINE",
"698 134 OFFCURVE",
"653 88 OFFCURVE",
"601 59 CURVE SMOOTH",
"548 30 OFFCURVE",
"486 17 OFFCURVE",
"431 17 CURVE SMOOTH",
"426 17 OFFCURVE",
"421 17 OFFCURVE",
"417 17 CURVE SMOOTH",
"412 17 OFFCURVE",
"407 17 OFFCURVE",
"402 18 CURVE",
"394 18 LINE SMOOTH",
"342 18 OFFCURVE",
"289 28 OFFCURVE",
"242 48 CURVE SMOOTH",
"195 67 OFFCURVE",
"154 95 OFFCURVE",
"125 132 CURVE",
"73 225 OFFCURVE",
"60 341 OFFCURVE",
"60 453 CURVE SMOOTH",
"60 482 OFFCURVE",
"61 510 OFFCURVE",
"62 538 CURVE",
"69 589 OFFCURVE",
"75 638 OFFCURVE",
"86 689 CURVE SMOOTH",
"101 754 OFFCURVE",
"120 818 OFFCURVE",
"151 885 CURVE SMOOTH",
"180 946 OFFCURVE",
"227 995 OFFCURVE",
"280 1027 CURVE SMOOTH",
"333 1059 OFFCURVE",
"393 1076 OFFCURVE",
"449 1076 CURVE SMOOTH",
"453 1076 OFFCURVE",
"457 1076 OFFCURVE",
"461 1076 CURVE SMOOTH",
"464 1076 OFFCURVE",
"468 1076 OFFCURVE",
"472 1075 CURVE",
"487 1075 LINE SMOOTH",
"551 1075 OFFCURVE",
"612 1060 OFFCURVE",
"663 1030 CURVE SMOOTH",
"714 1000 OFFCURVE",
"752 954 OFFCURVE",
"772 897 CURVE",
"790 903 LINE",
"816 1084 OFFCURVE",
"845 1266 OFFCURVE",
"876 1449 CURVE",
"937 1451 LINE SMOOTH",
"972 1452 OFFCURVE",
"1006 1455 OFFCURVE",
"1039 1459 CURVE",
"964 1043 OFFCURVE",
"912 636 OFFCURVE",
"891 224 CURVE SMOOTH",
"889 188 OFFCURVE",
"888 153 OFFCURVE",
"888 118 CURVE SMOOTH",
"888 83 OFFCURVE",
"888 47 OFFCURVE",
"887 11 CURVE",
"863 14 LINE SMOOTH",
"822 19 OFFCURVE",
"780 23 OFFCURVE",
"736 26 CURVE",
"735 32 OFFCURVE",
"735 39 OFFCURVE",
"735 46 CURVE SMOOTH",
"735 53 OFFCURVE",
"735 61 OFFCURVE",
"735 68 CURVE SMOOTH",
"735 91 LINE",
"738 123 OFFCURVE",
"739 158 OFFCURVE",
"740 198 CURVE"
);
},
{
closed = 1;
nodes = (
"177 580 OFFCURVE",
"178 534 OFFCURVE",
"184 491 CURVE SMOOTH",
"190 447 OFFCURVE",
"202 407 OFFCURVE",
"229 372 CURVE",
"273 323 OFFCURVE",
"343 307 OFFCURVE",
"414 307 CURVE SMOOTH",
"420 307 LINE SMOOTH",
"456 307 OFFCURVE",
"496 310 OFFCURVE",
"533 320 CURVE SMOOTH",
"570 330 OFFCURVE",
"606 345 OFFCURVE",
"634 376 CURVE SMOOTH",
"678 424 OFFCURVE",
"697 475 OFFCURVE",
"708 526 CURVE SMOOTH",
"716 565 OFFCURVE",
"719 602 OFFCURVE",
"722 638 CURVE",
"725 661 OFFCURVE",
"726 682 OFFCURVE",
"726 705 CURVE SMOOTH",
"726 762 OFFCURVE",
"717 818 OFFCURVE",
"694 867 CURVE",
"670 908 OFFCURVE",
"637 936 OFFCURVE",
"598 953 CURVE SMOOTH",
"559 970 OFFCURVE",
"516 977 OFFCURVE",
"473 977 CURVE SMOOTH",
"464 977 LINE SMOOTH",
"432 977 OFFCURVE",
"394 971 OFFCURVE",
"359 958 CURVE SMOOTH",
"324 945 OFFCURVE",
"292 923 OFFCURVE",
"268 892 CURVE SMOOTH",
"228 837 OFFCURVE",
"206 772 OFFCURVE",
"193 711 CURVE",
"188 691 OFFCURVE",
"184 665 OFFCURVE",
"181 645 CURVE",
"180 642 OFFCURVE",
"179 638 OFFCURVE",
"179 635 CURVE SMOOTH",
"179 632 OFFCURVE",
"178 628 OFFCURVE",
"177 624 CURVE"
);
}
);
width = 1163;
}
);
unicode = 0064;
},
{
glyphname = e;
lastChange = "2012-07-01 20:32:51 +0000";
layers = (
{
anchors = (
{
name = bottom;
position = "{560, 0}";
},
{
name = ogonek;
position = "{1007, 10}";
},
{
name = top;
position = "{560, 1094}";
}
);
layerId = "48AD09F1-34FF-452A-86DA-A72F7276366E";
name = Regular;
paths = (
{
closed = 1;
nodes = (
"294 628 LINE",
"294 622 OFFCURVE",
"294 616 OFFCURVE",
"294 611 CURVE",
"293 605 OFFCURVE",
"293 599 OFFCURVE",
"293 593 CURVE SMOOTH",
"293 548 OFFCURVE",
"296 501 OFFCURVE",
"308 460 CURVE SMOOTH",
"319 419 OFFCURVE",
"339 381 OFFCURVE",
"371 356 CURVE SMOOTH",
"443 299 OFFCURVE",
"540 283 OFFCURVE",
"639 279 CURVE",
"678 284 OFFCURVE",
"716 289 OFFCURVE",
"751 300 CURVE SMOOTH",
"772 307 OFFCURVE",
"796 317 OFFCURVE",
"822 328 CURVE SMOOTH",
"847 339 OFFCURVE",
"873 349 OFFCURVE",
"898 359 CURVE SMOOTH",
"933 373 LINE",
"928 293 OFFCURVE",
"926 225 OFFCURVE",
"926 149 CURVE SMOOTH",
"926 104 LINE",
"870 67 OFFCURVE",
"807 45 OFFCURVE",
"744 32 CURVE SMOOTH",
"680 19 OFFCURVE",
"615 14 OFFCURVE",
"555 10 CURVE",
"491 11 OFFCURVE",
"426 20 OFFCURVE",
"368 40 CURVE SMOOTH",
"310 59 OFFCURVE",
"258 90 OFFCURVE",
"221 135 CURVE SMOOTH",
"153 219 OFFCURVE",
"133 328 OFFCURVE",
"133 439 CURVE SMOOTH",
"133 474 OFFCURVE",
"135 506 OFFCURVE",
"138 539 CURVE",
"145 594 OFFCURVE",
"151 650 OFFCURVE",
"162 705 CURVE SMOOTH",
"179 782 OFFCURVE",
"206 859 OFFCURVE",
"257 928 CURVE",
"304 984 OFFCURVE",
"362 1020 OFFCURVE",
"423 1041 CURVE SMOOTH",
"483 1062 OFFCURVE",
"546 1069 OFFCURVE",
"605 1069 CURVE SMOOTH",
"617 1069 LINE SMOOTH",
"673 1068 OFFCURVE",
"730 1060 OFFCURVE",
"780 1044 CURVE SMOOTH",
"830 1027 OFFCURVE",
"875 1000 OFFCURVE",
"908 961 CURVE SMOOTH",
"945 918 OFFCURVE",
"968 867 OFFCURVE",
"981 813 CURVE SMOOTH",
"994 759 OFFCURVE",
"998 700 OFFCURVE",
"998 644 CURVE SMOOTH",
"998 634 LINE",
"819 629 OFFCURVE",
"643 628 OFFCURVE",
"464 628 CURVE SMOOTH"
);
},
{
closed = 1;
nodes = (
"887 722 LINE",
"880 791 OFFCURVE",
"855 851 OFFCURVE",
"812 902 CURVE SMOOTH",
"767 958 OFFCURVE",
"692 979 OFFCURVE",
"616 979 CURVE SMOOTH",
"603 979 LINE SMOOTH",
"532 979 OFFCURVE",
"454 956 OFFCURVE",
"399 893 CURVE SMOOTH",
"355 841 OFFCURVE",
"323 778 OFFCURVE",
"314 709 CURVE",
"360 708 OFFCURVE",
"407 707 OFFCURVE",
"456 707 CURVE SMOOTH",
"505 707 OFFCURVE",
"552 707 OFFCURVE",
"598 707 CURVE SMOOTH",
"644 707 OFFCURVE",
"690 707 OFFCURVE",
"736 707 CURVE SMOOTH",
"782 707 OFFCURVE",
"828 708 OFFCURVE",
"874 709 CURVE"
);
}
);
width = 1119;
}
);
unicode = 0065;
},
{
glyphname = f;
lastChange = "2012-07-01 20:32:51 +0000";
layers = (
{
layerId = "48AD09F1-34FF-452A-86DA-A72F7276366E";
name = Regular;
paths = (
{
closed = 1;
nodes = (
"398 946 LINE",
"390 754 LINE SMOOTH",
"381 549 OFFCURVE",
"376 346 OFFCURVE",
"376 143 CURVE SMOOTH",
"376 122 OFFCURVE",
"376 102 OFFCURVE",
"376 82 CURVE SMOOTH",
"376 61 OFFCURVE",
"376 41 OFFCURVE",
"377 20 CURVE",
"304 33 OFFCURVE",
"226 38 OFFCURVE",
"147 38 CURVE SMOOTH",
"96 38 LINE",
"111 159 OFFCURVE",
"126 274 OFFCURVE",
"142 395 CURVE SMOOTH",
"166 582 OFFCURVE",
"190 773 OFFCURVE",
"213 960 CURVE",
"196 960 LINE",
"180 961 OFFCURVE",
"164 961 OFFCURVE",
"148 962 CURVE SMOOTH",
"131 963 OFFCURVE",
"115 964 OFFCURVE",
"100 965 CURVE",
"107 1086 LINE",
"146 1081 OFFCURVE",
"182 1079 OFFCURVE",
"221 1076 CURVE",
"236 1218 LINE SMOOTH",
"237 1226 OFFCURVE",
"238 1234 OFFCURVE",
"239 1243 CURVE SMOOTH",
"240 1251 OFFCURVE",
"241 1259 OFFCURVE",
"243 1267 CURVE SMOOTH",
"252 1308 OFFCURVE",
"269 1347 OFFCURVE",
"304 1378 CURVE",
"339 1405 OFFCURVE",
"376 1420 OFFCURVE",
"412 1429 CURVE SMOOTH",
"448 1438 OFFCURVE",
"484 1441 OFFCURVE",
"519 1444 CURVE",
"524 1444 OFFCURVE",
"530 1444 OFFCURVE",
"536 1445 CURVE",
"547 1445 OFFCURVE",
"563 1446 OFFCURVE",
"583 1446 CURVE SMOOTH",
"593 1446 OFFCURVE",
"603 1446 OFFCURVE",
"613 1446 CURVE SMOOTH",
"647 1446 LINE",
"642 1401 LINE SMOOTH",
"639 1380 OFFCURVE",
"636 1354 OFFCURVE",
"635 1333 CURVE",
"631 1333 LINE SMOOTH",
"620 1333 OFFCURVE",
"610 1333 OFFCURVE",
"599 1333 CURVE SMOOTH",
"577 1333 OFFCURVE",
"551 1332 OFFCURVE",
"516 1321 CURVE SMOOTH",
"498 1315 OFFCURVE",
"481 1306 OFFCURVE",
"466 1295 CURVE",
"427 1258 OFFCURVE",
"420 1222 OFFCURVE",
"417 1187 CURVE SMOOTH",
"408 1073 LINE",
"440 1074 OFFCURVE",
"473 1076 OFFCURVE",
"508 1077 CURVE SMOOTH",
"543 1078 OFFCURVE",
"577 1081 OFFCURVE",
"610 1084 CURVE",
"599 966 LINE",
"531 961 OFFCURVE",
"477 959 OFFCURVE",
"410 958 CURVE"
);
}
);
width = 681;
}
);
unicode = 0066;
},
{
glyphname = g;
lastChange = "2012-07-01 20:32:51 +0000";
layers = (
{
anchors = (
{
name = top;
position = "{596, 1094}";
}
);
layerId = "48AD09F1-34FF-452A-86DA-A72F7276366E";
name = Regular;
paths = (
{
closed = 1;
nodes = (
"444 -435 OFFCURVE",
"381 -431 OFFCURVE",
"320 -421 CURVE SMOOTH",
"259 -411 OFFCURVE",
"201 -395 OFFCURVE",
"150 -366 CURVE",
"155 -324 OFFCURVE",
"159 -283 OFFCURVE",
"164 -244 CURVE SMOOTH",
"169 -205 OFFCURVE",
"173 -164 OFFCURVE",
"178 -122 CURVE",
"297 -163 OFFCURVE",
"422 -184 OFFCURVE",
"553 -191 CURVE",
"620 -170 OFFCURVE",
"671 -125 OFFCURVE",
"711 -71 CURVE SMOOTH",
"750 -17 OFFCURVE",
"775 45 OFFCURVE",
"791 104 CURVE",
"791 105 OFFCURVE",
"791 106 OFFCURVE",
"792 107 CURVE SMOOTH",
"793 108 OFFCURVE",
"793 110 OFFCURVE",
"793 111 CURVE",
"797 122 OFFCURVE",
"801 132 OFFCURVE",
"804 143 CURVE SMOOTH",
"807 153 OFFCURVE",
"811 163 OFFCURVE",
"815 174 CURVE",
"797 179 LINE",
"772 128 OFFCURVE",
"726 87 OFFCURVE",
"678 59 CURVE SMOOTH",
"618 24 OFFCURVE",
"549 16 OFFCURVE",
"485 15 CURVE SMOOTH",
"474 15 LINE SMOOTH",
"369 15 OFFCURVE",
"271 55 OFFCURVE",
"220 135 CURVE",
"188 194 OFFCURVE",
"171 263 OFFCURVE",
"161 335 CURVE SMOOTH",
"151 407 OFFCURVE",
"147 483 OFFCURVE",
"147 554 CURVE",
"150 577 LINE",
"150 578 OFFCURVE",
"150 580 OFFCURVE",
"151 581 CURVE",
"151 582 OFFCURVE",
"151 583 OFFCURVE",
"151 584 CURVE",
"154 609 OFFCURVE",
"158 635 OFFCURVE",
"161 661 CURVE SMOOTH",
"167 713 OFFCURVE",
"179 777 OFFCURVE",
"208 850 CURVE SMOOTH",
"223 887 OFFCURVE",
"243 922 OFFCURVE",
"269 955 CURVE",
"305 996 OFFCURVE",
"350 1022 OFFCURVE",
"399 1038 CURVE SMOOTH",
"447 1054 OFFCURVE",
"498 1059 OFFCURVE",
"546 1059 CURVE SMOOTH",
"571 1059 LINE SMOOTH",
"639 1059 OFFCURVE",
"704 1041 OFFCURVE",
"757 1008 CURVE SMOOTH",
"810 975 OFFCURVE",
"853 926 OFFCURVE",
"874 865 CURVE",
"892 869 LINE",
"913 974 LINE",
"914 978 OFFCURVE",
"916 983 OFFCURVE",
"917 988 CURVE SMOOTH",
"918 993 OFFCURVE",
"920 999 OFFCURVE",
"921 1004 CURVE SMOOTH",
"924 1017 OFFCURVE",
"927 1030 OFFCURVE",
"932 1045 CURVE",
"959 1046 OFFCURVE",
"984 1048 OFFCURVE",
"1009 1049 CURVE SMOOTH",
"1034 1050 OFFCURVE",
"1059 1051 OFFCURVE",
"1086 1053 CURVE",
"1022 706 OFFCURVE",
"983 373 OFFCURVE",
"954 32 CURVE SMOOTH",
"950 -15 OFFCURVE",
"945 -62 OFFCURVE",
"934 -109 CURVE SMOOTH",
"921 -173 OFFCURVE",
"899 -234 OFFCURVE",
"858 -294 CURVE",
"813 -353 OFFCURVE",
"755 -389 OFFCURVE",
"693 -409 CURVE SMOOTH",
"631 -430 OFFCURVE",
"566 -438 OFFCURVE",
"507 -438 CURVE"
);
},
{
closed = 1;
nodes = (
"835 638 OFFCURVE",
"836 655 OFFCURVE",
"836 674 CURVE SMOOTH",
"836 749 OFFCURVE",
"812 820 OFFCURVE",
"768 872 CURVE SMOOTH",
"723 924 OFFCURVE",
"658 957 OFFCURVE",
"577 957 CURVE SMOOTH",
"558 957 LINE SMOOTH",
"490 957 OFFCURVE",
"416 944 OFFCURVE",
"356 889 CURVE",
"313 842 OFFCURVE",
"294 787 OFFCURVE",
"282 731 CURVE SMOOTH",
"275 700 OFFCURVE",
"271 667 OFFCURVE",
"267 636 CURVE",
"267 607 LINE",
"266 598 OFFCURVE",
"265 589 OFFCURVE",
"265 580 CURVE SMOOTH",
"265 507 OFFCURVE",
"275 433 OFFCURVE",
"311 372 CURVE SMOOTH",
"331 339 OFFCURVE",
"361 317 OFFCURVE",
"397 304 CURVE SMOOTH",
"433 291 OFFCURVE",
"475 286 OFFCURVE",
"516 286 CURVE SMOOTH",
"522 286 LINE SMOOTH",
"575 287 OFFCURVE",
"631 292 OFFCURVE",
"682 327 CURVE SMOOTH",
"762 383 OFFCURVE",
"803 469 OFFCURVE",
"822 556 CURVE SMOOTH",
"827 579 OFFCURVE",
"831 599 OFFCURVE",
"832 619 CURVE"
);
}
);
width = 1192;
}
);
unicode = 0067;
},
{
glyphname = h;
lastChange = "2012-07-01 20:32:51 +0000";
layers = (
{
anchors = (
{
name = center;
position = "{562, 547}";
},
{
name = top;
position = "{562, 1094}";
}
);
layerId = "48AD09F1-34FF-452A-86DA-A72F7276366E";
name = Regular;
paths = (
{
closed = 1;
nodes = (
"398 877 LINE",
"433 937 OFFCURVE",
"480 994 OFFCURVE",
"541 1030 CURVE SMOOTH",
"600 1065 OFFCURVE",
"668 1075 OFFCURVE",
"733 1075 CURVE SMOOTH",
"741 1075 LINE SMOOTH",
"785 1075 OFFCURVE",
"828 1071 OFFCURVE",
"867 1059 CURVE SMOOTH",
"906 1047 OFFCURVE",
"941 1028 OFFCURVE",
"966 997 CURVE",
"994 965 OFFCURVE",
"1009 924 OFFCURVE",
"1018 880 CURVE SMOOTH",
"1026 835 OFFCURVE",
"1028 786 OFFCURVE",
"1028 741 CURVE SMOOTH",
"1028 719 LINE SMOOTH",
"1026 640 OFFCURVE",
"1025 560 OFFCURVE",
"1025 481 CURVE SMOOTH",
"1025 321 OFFCURVE",
"1030 164 OFFCURVE",
"1043 12 CURVE",
"955 23 OFFCURVE",
"881 28 OFFCURVE",
"793 32 CURVE",
"809 255 OFFCURVE",
"837 466 OFFCURVE",
"868 690 CURVE",
"868 697 LINE",
"869 708 OFFCURVE",
"869 719 OFFCURVE",
"870 730 CURVE SMOOTH",
"871 741 OFFCURVE",
"871 752 OFFCURVE",
"871 763 CURVE SMOOTH",
"871 794 OFFCURVE",
"868 823 OFFCURVE",
"861 854 CURVE SMOOTH",
"852 894 OFFCURVE",
"827 921 OFFCURVE",
"795 938 CURVE SMOOTH",
"762 955 OFFCURVE",
"722 962 OFFCURVE",
"682 962 CURVE SMOOTH",
"666 962 LINE SMOOTH",
"631 962 OFFCURVE",
"594 956 OFFCURVE",
"559 942 CURVE SMOOTH",
"524 928 OFFCURVE",
"491 906 OFFCURVE",
"466 874 CURVE SMOOTH",
"426 825 OFFCURVE",
"403 768 OFFCURVE",
"391 712 CURVE SMOOTH",
"386 687 OFFCURVE",
"381 661 OFFCURVE",
"380 638 CURVE SMOOTH",
"377 561 LINE SMOOTH",
"369 382 OFFCURVE",
"360 215 OFFCURVE",
"351 36 CURVE",
"270 35 OFFCURVE",
"196 32 OFFCURVE",
"115 25 CURVE",
"203 514 OFFCURVE",
"264 993 OFFCURVE",
"276 1472 CURVE",
"305 1467 OFFCURVE",
"333 1464 OFFCURVE",
"358 1463 CURVE",
"383 1461 OFFCURVE",
"411 1459 OFFCURVE",
"441 1456 CURVE",
"432 1340 OFFCURVE",
"420 1235 OFFCURVE",
"405 1118 CURVE SMOOTH",
"387 963 LINE",
"386 941 LINE",
"385 932 OFFCURVE",
"384 923 OFFCURVE",
"383 915 CURVE SMOOTH",
"382 906 OFFCURVE",
"380 898 OFFCURVE",
"379 889 CURVE",
"379 879 LINE"
);
}
);
width = 1123;
}
);
unicode = 0068;
},
{
glyphname = i;
lastChange = "2012-07-01 20:32:51 +0000";
layers = (
{
layerId = "48AD09F1-34FF-452A-86DA-A72F7276366E";
name = Regular;
paths = (
{
closed = 1;
nodes = (
"188 1470 LINE",
"245 1450 OFFCURVE",
"300 1445 OFFCURVE",
"361 1444 CURVE",
"360 1409 OFFCURVE",
"359 1384 OFFCURVE",
"359 1349 CURVE SMOOTH",
"359 1333 OFFCURVE",
"359 1318 OFFCURVE",
"359 1304 CURVE SMOOTH",
"359 1289 OFFCURVE",
"359 1274 OFFCURVE",
"358 1258 CURVE",
"294 1258 OFFCURVE",
"225 1260 OFFCURVE",
"170 1267 CURVE"
);
},
{
closed = 1;
nodes = (
"67 152 OFFCURVE",
"82 272 OFFCURVE",
"97 396 CURVE SMOOTH",
"110 509 OFFCURVE",
"124 622 OFFCURVE",
"137 734 CURVE SMOOTH",
"150 845 OFFCURVE",
"163 958 OFFCURVE",
"174 1071 CURVE",
"221 1067 OFFCURVE",
"257 1066 OFFCURVE",
"305 1066 CURVE SMOOTH",
"326 1066 LINE",
"325 1015 OFFCURVE",
"323 965 OFFCURVE",
"321 917 CURVE SMOOTH",
"318 868 OFFCURVE",
"316 818 OFFCURVE",
"314 767 CURVE SMOOTH",
"305 514 OFFCURVE",
"296 266 OFFCURVE",
"296 14 CURVE",
"232 31 OFFCURVE",
"167 38 OFFCURVE",
"95 38 CURVE SMOOTH",
"86 38 OFFCURVE",
"78 38 OFFCURVE",
"70 38 CURVE SMOOTH",
"61 38 OFFCURVE",
"52 38 OFFCURVE",
"43 37 CURVE"
);
}
);
width = 454;
}
);
unicode = 0069;
},
{
glyphname = j;
lastChange = "2012-07-01 20:32:51 +0000";
layers = (
{
layerId = "48AD09F1-34FF-452A-86DA-A72F7276366E";
name = Regular;
paths = (
{
closed = 1;
nodes = (
"419 1302 OFFCURVE",
"424 1347 OFFCURVE",
"429 1391 CURVE",
"429 1392 OFFCURVE",
"429 1394 OFFCURVE",
"430 1396 CURVE",
"430 1397 OFFCURVE",
"430 1399 OFFCURVE",
"430 1400 CURVE",
"431 1409 OFFCURVE",
"432 1418 OFFCURVE",
"433 1428 CURVE",
"433 1438 OFFCURVE",
"434 1448 OFFCURVE",
"435 1457 CURVE",
"478 1448 OFFCURVE",
"530 1443 OFFCURVE",
"577 1443 CURVE SMOOTH",
"613 1443 LINE",
"612 1414 OFFCURVE",
"611 1387 OFFCURVE",
"611 1360 CURVE SMOOTH",
"611 1333 OFFCURVE",
"611 1305 OFFCURVE",
"610 1277 CURVE",
"610 1260 LINE",
"586 1258 OFFCURVE",
"562 1257 OFFCURVE",
"537 1257 CURVE SMOOTH",
"494 1257 OFFCURVE",
"451 1260 OFFCURVE",
"410 1267 CURVE"
);
},
{
closed = 1;
nodes = (
"432 -152 LINE SMOOTH",
"429 -173 OFFCURVE",
"426 -194 OFFCURVE",
"422 -215 CURVE SMOOTH",
"413 -258 OFFCURVE",
"398 -298 OFFCURVE",
"363 -330 CURVE",
"312 -370 OFFCURVE",
"248 -376 OFFCURVE",
"191 -376 CURVE SMOOTH",
"132 -376 OFFCURVE",
"66 -379 OFFCURVE",
"7 -382 CURVE",
"12 -345 OFFCURVE",
"17 -309 OFFCURVE",
"20 -275 CURVE SMOOTH",
"23 -242 OFFCURVE",
"26 -207 OFFCURVE",
"31 -170 CURVE",
"57 -170 LINE SMOOTH",
"74 -170 OFFCURVE",
"97 -171 OFFCURVE",
"114 -172 CURVE",
"117 -172 OFFCURVE",
"121 -172 OFFCURVE",
"128 -172 CURVE SMOOTH",
"135 -172 OFFCURVE",
"140 -172 OFFCURVE",
"143 -171 CURVE",
"180 -168 OFFCURVE",
"223 -151 OFFCURVE",
"250 -124 CURVE",
"273 -97 OFFCURVE",
"281 -73 OFFCURVE",
"288 -46 CURVE SMOOTH",
"291 -33 OFFCURVE",
"294 -14 OFFCURVE",
"295 -1 CURVE",
"296 2 OFFCURVE",
"297 5 OFFCURVE",
"297 8 CURVE SMOOTH",
"297 10 OFFCURVE",
"297 13 OFFCURVE",
"298 16 CURVE",
"319 191 OFFCURVE",
"341 365 OFFCURVE",
"362 537 CURVE SMOOTH",
"383 708 OFFCURVE",
"404 882 OFFCURVE",
"425 1057 CURVE",
"460 1054 OFFCURVE",
"498 1053 OFFCURVE",
"534 1053 CURVE SMOOTH",
"577 1053 LINE",
"557 893 LINE SMOOTH",
"513 548 OFFCURVE",
"470 208 OFFCURVE",
"435 -135 CURVE"
);
}
);
width = 682;
}
);
unicode = 006A;
},
{
glyphname = k;
lastChange = "2012-07-01 20:32:51 +0000";
layers = (
{
anchors = (
{
name = bottom;
position = "{563, 0}";
}
);
layerId = "48AD09F1-34FF-452A-86DA-A72F7276366E";
name = Regular;
paths = (
{
closed = 1;
nodes = (
"1035 -10 LINE",
"918 5 OFFCURVE",
"795 12 OFFCURVE",
"670 16 CURVE",
"590 152 OFFCURVE",
"521 282 OFFCURVE",
"446 422 CURVE SMOOTH",
"438 437 LINE",
"433 432 OFFCURVE",
"429 425 OFFCURVE",
"424 418 CURVE SMOOTH",
"419 411 OFFCURVE",
"413 404 OFFCURVE",
"408 399 CURVE",
"393 378 LINE",
"393 17 LINE",
"372 16 OFFCURVE",
"350 16 OFFCURVE",
"327 15 CURVE SMOOTH",
"280 14 OFFCURVE",
"232 11 OFFCURVE",
"185 8 CURVE SMOOTH",
"162 7 OFFCURVE",
"139 5 OFFCURVE",
"118 4 CURVE",
"203 505 OFFCURVE",
"264 999 OFFCURVE",
"275 1496 CURVE",
"338 1488 OFFCURVE",
"419 1478 OFFCURVE",
"483 1475 CURVE",
"476 1326 OFFCURVE",
"466 1181 OFFCURVE",
"454 1036 CURVE SMOOTH",
"441 891 OFFCURVE",
"425 745 OFFCURVE",
"408 594 CURVE",
"444 632 OFFCURVE",
"480 670 OFFCURVE",
"516 709 CURVE SMOOTH",
"552 747 OFFCURVE",
"588 785 OFFCURVE",
"624 823 CURVE SMOOTH",
"866 1077 LINE",
"883 1077 OFFCURVE",
"901 1077 OFFCURVE",
"921 1078 CURVE SMOOTH",
"940 1079 OFFCURVE",
"960 1079 OFFCURVE",
"980 1080 CURVE",
"1020 1080 OFFCURVE",
"1059 1082 OFFCURVE",
"1094 1083 CURVE",
"582 564 LINE",
"766 345 LINE SMOOTH",
"813 289 OFFCURVE",
"860 233 OFFCURVE",
"907 177 CURVE SMOOTH",
"954 120 OFFCURVE",
"1001 64 OFFCURVE",
"1047 7 CURVE"
);
}
);
width = 1125;
}
);
unicode = 006B;
},
{
glyphname = l;
lastChange = "2012-07-01 20:32:51 +0000";
layers = (
{
anchors = (
{
name = bottom;
position = "{249, 0}";
},
{
name = top;
position = "{249, 1094}";
},
{
name = topright;
position = "{478, 1094}";
}
);
layerId = "48AD09F1-34FF-452A-86DA-A72F7276366E";
name = Regular;
paths = (
{
closed = 1;
nodes = (
"67 136 LINE",
"73 188 LINE SMOOTH",
"124 593 OFFCURVE",
"174 992 OFFCURVE",
"206 1396 CURVE",
"257 1381 OFFCURVE",
"303 1376 OFFCURVE",
"359 1373 CURVE",
"348 1189 OFFCURVE",
"335 1017 OFFCURVE",
"322 833 CURVE SMOOTH",
"319 787 LINE SMOOTH",
"312 686 OFFCURVE",
"304 584 OFFCURVE",
"297 483 CURVE SMOOTH",
"289 381 OFFCURVE",
"282 280 OFFCURVE",
"277 180 CURVE",
"288 179 OFFCURVE",
"301 177 OFFCURVE",
"315 176 CURVE SMOOTH",
"328 175 OFFCURVE",
"341 173 OFFCURVE",
"353 171 CURVE",
"349 116 OFFCURVE",
"347 69 OFFCURVE",
"346 16 CURVE",
"278 33 OFFCURVE",
"208 38 OFFCURVE",
"135 38 CURVE SMOOTH",
"104 38 OFFCURVE",
"74 37 OFFCURVE",
"44 35 CURVE"
);
}
);
width = 498;
}
);
unicode = 006C;
},
{
glyphname = m;
lastChange = "2012-07-01 20:32:51 +0000";
layers = (
{
layerId = "48AD09F1-34FF-452A-86DA-A72F7276366E";
name = Regular;
paths = (
{
closed = 1;
nodes = (
"727 31 LINE",
"734 66 OFFCURVE",
"742 100 OFFCURVE",
"749 131 CURVE SMOOTH",
"756 162 OFFCURVE",
"763 194 OFFCURVE",
"770 229 CURVE SMOOTH",
"803 385 OFFCURVE",
"833 539 OFFCURVE",
"864 695 CURVE SMOOTH",
"871 730 OFFCURVE",
"878 767 OFFCURVE",
"878 803 CURVE SMOOTH",
"878 843 OFFCURVE",
"870 880 OFFCURVE",
"843 909 CURVE",
"799 945 OFFCURVE",
"737 955 OFFCURVE",
"677 958 CURVE",
"671 958 LINE SMOOTH",
"607 958 OFFCURVE",
"535 929 OFFCURVE",
"494 868 CURVE SMOOTH",
"459 817 OFFCURVE",
"444 767 OFFCURVE",
"433 718 CURVE SMOOTH",
"428 697 OFFCURVE",
"425 678 OFFCURVE",
"423 660 CURVE SMOOTH",
"421 642 OFFCURVE",
"419 624 OFFCURVE",
"417 607 CURVE",
"414 411 OFFCURVE",
"402 221 OFFCURVE",
"379 25 CURVE",
"320 24 OFFCURVE",
"274 22 OFFCURVE",
"215 19 CURVE SMOOTH",
"138 16 LINE",
"189 191 OFFCURVE",
"229 373 OFFCURVE",
"253 565 CURVE SMOOTH",
"264 660 OFFCURVE",
"272 756 OFFCURVE",
"275 851 CURVE",
"276 858 OFFCURVE",
"276 866 OFFCURVE",
"276 874 CURVE SMOOTH",
"276 881 OFFCURVE",
"276 889 OFFCURVE",
"276 896 CURVE SMOOTH",
"276 955 OFFCURVE",
"271 1012 OFFCURVE",
"260 1071 CURVE",
"285 1069 OFFCURVE",
"307 1068 OFFCURVE",
"327 1067 CURVE SMOOTH",
"346 1066 OFFCURVE",
"368 1064 OFFCURVE",
"391 1063 CURVE",
"393 1063 OFFCURVE",
"395 1063 OFFCURVE",
"397 1063 CURVE",
"399 1062 OFFCURVE",
"401 1062 OFFCURVE",
"404 1062 CURVE",
"407 1038 LINE",
"408 1036 OFFCURVE",
"408 1033 OFFCURVE",
"408 1029 CURVE SMOOTH",
"408 1025 OFFCURVE",
"408 1021 OFFCURVE",
"409 1018 CURVE",
"409 1009 OFFCURVE",
"409 1002 OFFCURVE",
"412 991 CURVE",
"413 980 OFFCURVE",
"414 969 OFFCURVE",
"415 958 CURVE",
"415 947 OFFCURVE",
"415 935 OFFCURVE",
"416 924 CURVE",
"416 921 OFFCURVE",
"416 916 OFFCURVE",
"417 910 CURVE SMOOTH",
"418 903 OFFCURVE",
"418 896 OFFCURVE",
"419 889 CURVE SMOOTH",
"420 882 OFFCURVE",
"420 875 OFFCURVE",
"421 868 CURVE SMOOTH",
"422 861 OFFCURVE",
"422 856 OFFCURVE",
"422 853 CURVE",
"439 889 OFFCURVE",
"460 925 OFFCURVE",
"483 957 CURVE SMOOTH",
"506 988 OFFCURVE",
"532 1013 OFFCURVE",
"560 1028 CURVE SMOOTH",
"611 1055 OFFCURVE",
"667 1062 OFFCURVE",
"719 1062 CURVE SMOOTH",
"737 1062 LINE SMOOTH",
"740 1062 OFFCURVE",
"744 1062 OFFCURVE",
"747 1063 CURVE",
"750 1063 OFFCURVE",
"753 1063 OFFCURVE",
"756 1063 CURVE SMOOTH",
"817 1063 OFFCURVE",
"878 1045 OFFCURVE",
"925 1009 CURVE SMOOTH",
"972 972 OFFCURVE",
"1004 918 OFFCURVE",
"1011 846 CURVE",
"1047 914 OFFCURVE",
"1101 969 OFFCURVE",
"1160 1006 CURVE SMOOTH",
"1219 1043 OFFCURVE",
"1285 1064 OFFCURVE",
"1345 1064 CURVE SMOOTH",
"1348 1064 OFFCURVE",
"1351 1064 OFFCURVE",
"1354 1064 CURVE",
"1356 1063 OFFCURVE",
"1359 1063 OFFCURVE",
"1362 1063 CURVE SMOOTH",
"1379 1063 LINE SMOOTH",
"1419 1063 OFFCURVE",
"1458 1058 OFFCURVE",
"1493 1045 CURVE SMOOTH",
"1528 1032 OFFCURVE",
"1556 1011 OFFCURVE",
"1575 979 CURVE",
"1594 923 OFFCURVE",
"1600 863 OFFCURVE",
"1600 799 CURVE SMOOTH",
"1600 774 OFFCURVE",
"1599 750 OFFCURVE",
"1598 725 CURVE",
"1596 700 OFFCURVE",
"1594 675 OFFCURVE",
"1593 650 CURVE SMOOTH",
"1592 629 OFFCURVE",
"1590 607 OFFCURVE",
"1589 586 CURVE",
"1587 564 OFFCURVE",
"1586 542 OFFCURVE",
"1585 521 CURVE",
"1585 511 OFFCURVE",
"1585 501 OFFCURVE",
"1585 491 CURVE",
"1584 481 OFFCURVE",
"1584 471 OFFCURVE",
"1584 461 CURVE SMOOTH",
"1584 309 OFFCURVE",
"1595 154 OFFCURVE",
"1626 11 CURVE",
"1541 16 OFFCURVE",
"1470 19 OFFCURVE",
"1385 22 CURVE",
"1385 41 LINE SMOOTH",
"1385 252 OFFCURVE",
"1415 470 OFFCURVE",
"1454 681 CURVE SMOOTH",
"1461 714 OFFCURVE",
"1465 753 OFFCURVE",
"1465 790 CURVE SMOOTH",
"1465 823 OFFCURVE",
"1461 854 OFFCURVE",
"1449 881 CURVE",
"1417 938 OFFCURVE",
"1353 957 OFFCURVE",
"1293 957 CURVE SMOOTH",
"1288 957 LINE SMOOTH",
"1224 956 OFFCURVE",
"1149 933 OFFCURVE",
"1101 876 CURVE SMOOTH",
"1053 819 OFFCURVE",
"1030 759 OFFCURVE",
"1017 699 CURVE SMOOTH",
"1012 672 OFFCURVE",
"1009 646 OFFCURVE",
"1006 622 CURVE SMOOTH",
"995 536 LINE SMOOTH",
"974 367 OFFCURVE",
"955 200 OFFCURVE",
"943 31 CURVE"
);
}
);
width = 1785;
}
);
unicode = 006D;
},
{
glyphname = n;
lastChange = "2012-07-01 20:32:51 +0000";
layers = (
{
anchors = (
{
name = bottom;
position = "{624, 0}";
},
{
name = top;
position = "{624, 1094}";
}
);
layerId = "48AD09F1-34FF-452A-86DA-A72F7276366E";
name = Regular;
paths = (
{
closed = 1;
nodes = (
"1078 -10 LINE",
"983 -2 OFFCURVE",
"881 4 OFFCURVE",
"785 7 CURVE",
"806 239 OFFCURVE",
"845 460 OFFCURVE",
"885 688 CURVE SMOOTH",
"886 695 OFFCURVE",
"887 701 OFFCURVE",
"887 709 CURVE SMOOTH",
"887 713 OFFCURVE",
"888 722 OFFCURVE",
"889 726 CURVE",
"890 741 OFFCURVE",
"891 754 OFFCURVE",
"891 769 CURVE SMOOTH",
"891 829 OFFCURVE",
"878 888 OFFCURVE",
"827 911 CURVE SMOOTH",
"788 928 OFFCURVE",
"740 932 OFFCURVE",
"692 933 CURVE SMOOTH",
"682 933 LINE SMOOTH",
"619 933 OFFCURVE",
"549 908 OFFCURVE",
"508 851 CURVE SMOOTH",
"477 810 OFFCURVE",
"460 764 OFFCURVE",
"449 717 CURVE SMOOTH",
"445 698 OFFCURVE",
"442 678 OFFCURVE",
"442 659 CURVE SMOOTH",
"438 503 OFFCURVE",
"430 350 OFFCURVE",
"422 193 CURVE SMOOTH",
"421 164 OFFCURVE",
"419 134 OFFCURVE",
"418 101 CURVE SMOOTH",
"417 68 OFFCURVE",
"415 38 OFFCURVE",
"414 9 CURVE",
"326 8 OFFCURVE",
"216 4 OFFCURVE",
"127 -3 CURVE",
"142 70 LINE SMOOTH",
"205 359 OFFCURVE",
"253 646 OFFCURVE",
"253 931 CURVE SMOOTH",
"253 953 LINE SMOOTH",
"253 972 OFFCURVE",
"252 989 OFFCURVE",
"249 1016 CURVE",
"252 1083 LINE",
"265 1082 OFFCURVE",
"280 1080 OFFCURVE",
"296 1079 CURVE",
"312 1077 OFFCURVE",
"328 1076 OFFCURVE",
"345 1075 CURVE SMOOTH",
"361 1074 OFFCURVE",
"377 1073 OFFCURVE",
"393 1072 CURVE SMOOTH",
"409 1071 OFFCURVE",
"424 1070 OFFCURVE",
"438 1069 CURVE",
"437 1038 OFFCURVE",
"436 1016 OFFCURVE",
"434 993 CURVE SMOOTH",
"433 981 OFFCURVE",
"432 969 OFFCURVE",
"431 957 CURVE SMOOTH",
"430 945 OFFCURVE",
"428 931 OFFCURVE",
"427 916 CURVE",
"462 967 OFFCURVE",
"502 1008 OFFCURVE",
"555 1036 CURVE SMOOTH",
"626 1073 OFFCURVE",
"697 1079 OFFCURVE",
"765 1079 CURVE SMOOTH",
"813 1079 OFFCURVE",
"862 1075 OFFCURVE",
"907 1063 CURVE SMOOTH",
"952 1051 OFFCURVE",
"991 1030 OFFCURVE",
"1022 995 CURVE",
"1067 935 OFFCURVE",
"1075 875 OFFCURVE",
"1075 795 CURVE SMOOTH",
"1075 788 OFFCURVE",
"1075 777 OFFCURVE",
"1075 763 CURVE",
"1074 748 OFFCURVE",
"1074 737 OFFCURVE",
"1074 730 CURVE SMOOTH",
"1074 708 LINE SMOOTH",
"1074 660 OFFCURVE",
"1073 613 OFFCURVE",
"1071 566 CURVE SMOOTH",
"1069 519 OFFCURVE",
"1068 471 OFFCURVE",
"1068 422 CURVE SMOOTH",
"1068 277 OFFCURVE",
"1074 135 OFFCURVE",
"1091 3 CURVE"
);
}
);
width = 1248;
}
);
unicode = 006E;
},
{
glyphname = o;
lastChange = "2012-07-01 20:32:51 +0000";
layers = (
{
anchors = (
{
name = top;
position = "{585, 1094}";
}
);
layerId = "48AD09F1-34FF-452A-86DA-A72F7276366E";
name = Regular;
paths = (
{
closed = 1;
nodes = (
"1020 485 OFFCURVE",
"1013 429 OFFCURVE",
"1001 373 CURVE SMOOTH",
"984 296 OFFCURVE",
"955 216 OFFCURVE",
"906 148 CURVE",
"861 93 OFFCURVE",
"803 60 OFFCURVE",
"743 39 CURVE SMOOTH",
"683 18 OFFCURVE",
"620 11 OFFCURVE",
"564 11 CURVE SMOOTH",
"547 11 LINE SMOOTH",
"484 11 OFFCURVE",
"419 20 OFFCURVE",
"362 40 CURVE SMOOTH",
"305 60 OFFCURVE",
"253 91 OFFCURVE",
"217 136 CURVE",
"185 181 OFFCURVE",
"165 234 OFFCURVE",
"153 291 CURVE SMOOTH",
"141 347 OFFCURVE",
"137 406 OFFCURVE",
"137 465 CURVE SMOOTH",
"137 517 OFFCURVE",
"141 569 OFFCURVE",
"149 626 CURVE SMOOTH",
"156 682 OFFCURVE",
"167 748 OFFCURVE",
"196 820 CURVE SMOOTH",
"225 892 OFFCURVE",
"278 956 OFFCURVE",
"335 992 CURVE SMOOTH",
"392 1028 OFFCURVE",
"455 1047 OFFCURVE",
"519 1055 CURVE SMOOTH",
"550 1058 OFFCURVE",
"581 1060 OFFCURVE",
"611 1060 CURVE SMOOTH",
"619 1060 LINE SMOOTH",
"684 1060 OFFCURVE",
"750 1054 OFFCURVE",
"810 1036 CURVE SMOOTH",
"870 1018 OFFCURVE",
"922 987 OFFCURVE",
"959 939 CURVE SMOOTH",
"1016 866 OFFCURVE",
"1030 768 OFFCURVE",
"1030 667 CURVE SMOOTH",
"1030 624 OFFCURVE",
"1028 582 OFFCURVE",
"1025 541 CURVE SMOOTH"
);
},
{
closed = 1;
nodes = (
"874 595 OFFCURVE",
"875 628 OFFCURVE",
"875 663 CURVE SMOOTH",
"875 734 OFFCURVE",
"867 800 OFFCURVE",
"834 859 CURVE SMOOTH",
"814 894 OFFCURVE",
"782 918 OFFCURVE",
"744 932 CURVE SMOOTH",
"706 946 OFFCURVE",
"662 951 OFFCURVE",
"619 951 CURVE SMOOTH",
"613 951 LINE SMOOTH",
"573 951 OFFCURVE",
"530 946 OFFCURVE",
"490 932 CURVE SMOOTH",
"449 918 OFFCURVE",
"410 893 OFFCURVE",
"381 856 CURVE",
"346 805 OFFCURVE",
"328 753 OFFCURVE",
"316 700 CURVE SMOOTH",
"305 651 OFFCURVE",
"302 604 OFFCURVE",
"298 557 CURVE",
"296 541 OFFCURVE",
"295 525 OFFCURVE",
"295 509 CURVE SMOOTH",
"295 448 OFFCURVE",
"305 388 OFFCURVE",
"349 349 CURVE",
"402 310 OFFCURVE",
"472 302 OFFCURVE",
"543 302 CURVE SMOOTH",
"557 302 LINE SMOOTH",
"633 302 OFFCURVE",
"712 302 OFFCURVE",
"785 345 CURVE",
"828 380 OFFCURVE",
"846 425 OFFCURVE",
"857 472 CURVE SMOOTH",
"860 485 OFFCURVE",
"863 498 OFFCURVE",
"864 510 CURVE SMOOTH",
"865 522 OFFCURVE",
"867 534 OFFCURVE",
"868 545 CURVE",
"868 549 OFFCURVE",
"869 554 OFFCURVE",
"871 560 CURVE"
);
}
);
width = 1169;
}
);
unicode = 006F;
},
{
glyphname = p;
lastChange = "2012-07-01 20:32:51 +0000";
layers = (
{
layerId = "48AD09F1-34FF-452A-86DA-A72F7276366E";
name = Regular;
paths = (
{
closed = 1;
nodes = (
"1085 486 OFFCURVE",
"1079 431 OFFCURVE",
"1067 375 CURVE SMOOTH",
"1054 311 OFFCURVE",
"1033 249 OFFCURVE",
"1002 185 CURVE SMOOTH",
"973 125 OFFCURVE",
"927 80 OFFCURVE",
"875 49 CURVE SMOOTH",
"823 18 OFFCURVE",
"764 3 OFFCURVE",
"711 3 CURVE SMOOTH",
"708 3 OFFCURVE",
"704 3 OFFCURVE",
"700 3 CURVE SMOOTH",
"696 3 OFFCURVE",
"692 3 OFFCURVE",
"689 4 CURVE",
"680 4 LINE SMOOTH",
"616 4 OFFCURVE",
"553 19 OFFCURVE",
"502 49 CURVE SMOOTH",
"450 79 OFFCURVE",
"410 123 OFFCURVE",
"391 183 CURVE",
"369 182 LINE",
"359 89 OFFCURVE",
"348 -6 OFFCURVE",
"336 -103 CURVE SMOOTH",
"324 -200 OFFCURVE",
"312 -296 OFFCURVE",
"301 -389 CURVE",
"240 -392 OFFCURVE",
"184 -394 OFFCURVE",
"124 -399 CURVE",
"208 94 OFFCURVE",
"265 580 OFFCURVE",
"281 1065 CURVE",
"338 1057 OFFCURVE",
"380 1053 OFFCURVE",
"437 1048 CURVE",
"432 1014 LINE SMOOTH",
"429 993 OFFCURVE",
"425 971 OFFCURVE",
"422 948 CURVE SMOOTH",
"419 924 OFFCURVE",
"415 902 OFFCURVE",
"412 881 CURVE",
"434 881 LINE",
"459 944 OFFCURVE",
"506 989 OFFCURVE",
"561 1018 CURVE SMOOTH",
"616 1047 OFFCURVE",
"678 1061 OFFCURVE",
"734 1061 CURVE SMOOTH",
"739 1061 OFFCURVE",
"743 1061 OFFCURVE",
"748 1061 CURVE SMOOTH",
"753 1061 OFFCURVE",
"758 1061 OFFCURVE",
"763 1060 CURVE",
"772 1060 LINE SMOOTH",
"825 1060 OFFCURVE",
"880 1051 OFFCURVE",
"927 1032 CURVE SMOOTH",
"974 1013 OFFCURVE",
"1014 982 OFFCURVE",
"1041 941 CURVE",
"1085 858 OFFCURVE",
"1097 762 OFFCURVE",
"1097 665 CURVE SMOOTH",
"1097 622 OFFCURVE",
"1095 582 OFFCURVE",
"1092 542 CURVE"
);
},
{
closed = 1;
nodes = (
"1020 614 LINE SMOOTH",
"1020 706 OFFCURVE",
"1010 802 OFFCURVE",
"969 878 CURVE",
"950 909 OFFCURVE",
"921 934 OFFCURVE",
"886 953 CURVE SMOOTH",
"850 972 OFFCURVE",
"811 982 OFFCURVE",
"772 982 CURVE SMOOTH",
"701 982 OFFCURVE",
"635 967 OFFCURVE",
"584 922 CURVE SMOOTH",
"537 881 OFFCURVE",
"505 829 OFFCURVE",
"482 777 CURVE SMOOTH",
"469 748 OFFCURVE",
"462 719 OFFCURVE",
"455 688 CURVE SMOOTH",
"444 643 OFFCURVE",
"442 599 OFFCURVE",
"439 556 CURVE",
"439 543 LINE",
"438 534 OFFCURVE",
"438 524 OFFCURVE",
"438 514 CURVE SMOOTH",
"438 504 OFFCURVE",
"438 494 OFFCURVE",
"438 485 CURVE SMOOTH",
"438 453 OFFCURVE",
"440 421 OFFCURVE",
"448 392 CURVE SMOOTH",
"456 363 OFFCURVE",
"469 335 OFFCURVE",
"492 314 CURVE",
"548 274 OFFCURVE",
"624 266 OFFCURVE",
"700 266 CURVE SMOOTH",
"714 266 LINE SMOOTH",
"779 266 OFFCURVE",
"851 270 OFFCURVE",
"918 314 CURVE",
"966 365 OFFCURVE",
"987 422 OFFCURVE",
"998 481 CURVE SMOOTH",
"1009 542 LINE",
"1010 551 OFFCURVE",
"1012 561 OFFCURVE",
"1014 571 CURVE SMOOTH",
"1016 580 OFFCURVE",
"1018 590 OFFCURVE",
"1020 600 CURVE"
);
}
);
width = 1157;
}
);
unicode = 0070;
},
{
glyphname = q;
lastChange = "2012-07-01 20:32:51 +0000";
layers = (
{
layerId = "48AD09F1-34FF-452A-86DA-A72F7276366E";
name = Regular;
paths = (
{
closed = 1;
nodes = (
"388 4 LINE SMOOTH",
"337 4 OFFCURVE",
"286 13 OFFCURVE",
"242 33 CURVE SMOOTH",
"197 53 OFFCURVE",
"159 83 OFFCURVE",
"135 123 CURVE SMOOTH",
"80 215 OFFCURVE",
"68 326 OFFCURVE",
"68 435 CURVE SMOOTH",
"68 470 OFFCURVE",
"69 502 OFFCURVE",
"72 535 CURVE SMOOTH",
"76 602 OFFCURVE",
"81 669 OFFCURVE",
"96 737 CURVE SMOOTH",
"107 785 OFFCURVE",
"122 833 OFFCURVE",
"142 881 CURVE SMOOTH",
"169 944 OFFCURVE",
"214 989 OFFCURVE",
"267 1020 CURVE SMOOTH",
"319 1051 OFFCURVE",
"379 1065 OFFCURVE",
"435 1065 CURVE SMOOTH",
"440 1065 OFFCURVE",
"445 1065 OFFCURVE",
"450 1065 CURVE SMOOTH",
"455 1065 OFFCURVE",
"460 1065 OFFCURVE",
"465 1064 CURVE",
"534 1061 OFFCURVE",
"605 1053 OFFCURVE",
"661 1021 CURVE SMOOTH",
"692 1004 OFFCURVE",
"716 975 OFFCURVE",
"737 940 CURVE SMOOTH",
"758 905 OFFCURVE",
"775 865 OFFCURVE",
"791 825 CURVE",
"827 987 LINE",
"834 1011 OFFCURVE",
"840 1037 OFFCURVE",
"845 1061 CURVE",
"868 1062 OFFCURVE",
"890 1063 OFFCURVE",
"910 1064 CURVE SMOOTH",
"930 1065 OFFCURVE",
"952 1067 OFFCURVE",
"975 1068 CURVE",
"1000 1070 LINE",
"957 822 OFFCURVE",
"919 573 OFFCURVE",
"891 326 CURVE SMOOTH",
"862 78 OFFCURVE",
"844 -169 OFFCURVE",
"840 -413 CURVE",
"839 -413 OFFCURVE",
"838 -413 OFFCURVE",
"837 -412 CURVE",
"836 -412 OFFCURVE",
"834 -412 OFFCURVE",
"833 -412 CURVE",
"778 -405 OFFCURVE",
"741 -401 OFFCURVE",
"685 -398 CURVE",
"696 -194 OFFCURVE",
"719 2 OFFCURVE",
"747 209 CURVE",
"729 211 LINE",
"694 147 OFFCURVE",
"650 79 OFFCURVE",
"589 44 CURVE SMOOTH",
"529 11 OFFCURVE",
"461 5 OFFCURVE",
"396 4 CURVE SMOOTH"
);
},
{
closed = 1;
nodes = (
"731 602 OFFCURVE",
"732 630 OFFCURVE",
"732 658 CURVE SMOOTH",
"732 709 OFFCURVE",
"727 758 OFFCURVE",
"710 805 CURVE SMOOTH",
"691 857 OFFCURVE",
"658 894 OFFCURVE",
"617 918 CURVE SMOOTH",
"576 942 OFFCURVE",
"526 953 OFFCURVE",
"477 953 CURVE SMOOTH",
"459 953 LINE SMOOTH",
"424 953 OFFCURVE",
"388 947 OFFCURVE",
"353 932 CURVE SMOOTH",
"318 917 OFFCURVE",
"286 895 OFFCURVE",
"265 860 CURVE SMOOTH",
"237 815 OFFCURVE",
"222 770 OFFCURVE",
"211 723 CURVE SMOOTH",
"202 678 OFFCURVE",
"198 633 OFFCURVE",
"194 589 CURVE SMOOTH",
"191 561 LINE",
"190 540 OFFCURVE",
"189 519 OFFCURVE",
"189 498 CURVE SMOOTH",
"189 438 OFFCURVE",
"196 377 OFFCURVE",
"235 333 CURVE",
"282 289 OFFCURVE",
"352 279 OFFCURVE",
"420 279 CURVE SMOOTH",
"456 279 OFFCURVE",
"495 282 OFFCURVE",
"533 291 CURVE SMOOTH",
"571 300 OFFCURVE",
"608 317 OFFCURVE",
"641 345 CURVE",
"684 388 OFFCURVE",
"704 439 OFFCURVE",
"715 492 CURVE SMOOTH",
"718 505 OFFCURVE",
"721 519 OFFCURVE",
"723 533 CURVE",
"724 547 OFFCURVE",
"726 561 OFFCURVE",
"728 574 CURVE"
);
}
);
width = 1120;
}
);
unicode = 0071;
},
{
glyphname = r;
lastChange = "2012-07-01 20:32:51 +0000";
layers = (
{
anchors = (
{
name = bottom;
position = "{379, 0}";
},
{
name = top;
position = "{379, 1094}";
}
);
layerId = "48AD09F1-34FF-452A-86DA-A72F7276366E";
name = Regular;
paths = (
{
closed = 1;
nodes = (
"165 363 OFFCURVE",
"211 718 OFFCURVE",
"231 1069 CURVE",
"279 1060 OFFCURVE",
"332 1054 OFFCURVE",
"383 1053 CURVE",
"380 998 OFFCURVE",
"378 949 OFFCURVE",
"374 894 CURVE",
"374 891 OFFCURVE",
"374 889 OFFCURVE",
"374 887 CURVE",
"373 884 OFFCURVE",
"373 882 OFFCURVE",
"373 879 CURVE",
"389 878 LINE",
"418 930 OFFCURVE",
"461 976 OFFCURVE",
"509 1012 CURVE SMOOTH",
"557 1047 OFFCURVE",
"611 1072 OFFCURVE",
"667 1080 CURVE SMOOTH",
"674 1081 OFFCURVE",
"685 1082 OFFCURVE",
"697 1083 CURVE",
"703 1083 OFFCURVE",
"709 1083 OFFCURVE",
"715 1083 CURVE SMOOTH",
"720 1083 OFFCURVE",
"725 1083 OFFCURVE",
"729 1083 CURVE",
"728 1076 OFFCURVE",
"726 1068 OFFCURVE",
"723 1061 CURVE",
"720 1053 OFFCURVE",
"718 1046 OFFCURVE",
"717 1039 CURVE",
"708 1004 OFFCURVE",
"700 973 OFFCURVE",
"692 938 CURVE",
"687 939 OFFCURVE",
"682 939 OFFCURVE",
"678 939 CURVE SMOOTH",
"673 939 OFFCURVE",
"668 939 OFFCURVE",
"663 939 CURVE SMOOTH",
"651 939 OFFCURVE",
"639 938 OFFCURVE",
"628 937 CURVE SMOOTH",
"560 930 OFFCURVE",
"492 885 OFFCURVE",
"448 828 CURVE SMOOTH",
"413 783 OFFCURVE",
"385 728 OFFCURVE",
"374 675 CURVE SMOOTH",
"371 662 OFFCURVE",
"370 653 OFFCURVE",
"369 642 CURVE",
"366 502 OFFCURVE",
"364 364 OFFCURVE",
"364 224 CURVE SMOOTH",
"364 191 OFFCURVE",
"364 158 OFFCURVE",
"364 126 CURVE SMOOTH",
"364 93 OFFCURVE",
"364 61 OFFCURVE",
"365 28 CURVE",
"326 31 OFFCURVE",
"302 31 OFFCURVE",
"263 31 CURVE SMOOTH",
"237 31 OFFCURVE",
"211 29 OFFCURVE",
"185 25 CURVE SMOOTH",
"158 21 OFFCURVE",
"132 18 OFFCURVE",
"106 16 CURVE"
);
}
);
width = 757;
}
);
unicode = 0072;
},
{
glyphname = s;
lastChange = "2012-07-01 20:32:51 +0000";
layers = (
{
anchors = (
{
name = bottom;
position = "{552, 0}";
},
{
name = top;
position = "{552, 1094}";
}
);
layerId = "48AD09F1-34FF-452A-86DA-A72F7276366E";
name = Regular;
paths = (
{
closed = 1;
nodes = (
"964 292 LINE SMOOTH",
"964 273 OFFCURVE",
"961 253 OFFCURVE",
"957 232 CURVE",
"942 167 OFFCURVE",
"910 103 OFFCURVE",
"847 63 CURVE SMOOTH",
"795 30 OFFCURVE",
"740 11 OFFCURVE",
"685 2 CURVE SMOOTH",
"630 -7 OFFCURVE",
"574 -9 OFFCURVE",
"522 -9 CURVE SMOOTH",
"471 -9 OFFCURVE",
"418 -7 OFFCURVE",
"367 1 CURVE SMOOTH",
"316 8 OFFCURVE",
"267 21 OFFCURVE",
"226 45 CURVE SMOOTH",
"178 73 OFFCURVE",
"132 118 OFFCURVE",
"108 178 CURVE",
"204 258 LINE SMOOTH",
"243 289 OFFCURVE",
"291 330 OFFCURVE",
"327 362 CURVE",
"338 323 OFFCURVE",
"359 300 OFFCURVE",
"382 283 CURVE",
"426 256 OFFCURVE",
"487 247 OFFCURVE",
"542 239 CURVE",
"548 240 OFFCURVE",
"555 240 OFFCURVE",
"562 240 CURVE SMOOTH",
"569 240 OFFCURVE",
"575 240 OFFCURVE",
"580 240 CURVE SMOOTH",
"617 240 OFFCURVE",
"655 240 OFFCURVE",
"688 251 CURVE",
"707 259 OFFCURVE",
"723 275 OFFCURVE",
"728 294 CURVE",
"729 301 LINE",
"732 308 OFFCURVE",
"733 316 OFFCURVE",
"733 325 CURVE SMOOTH",
"733 330 LINE SMOOTH",
"733 351 OFFCURVE",
"729 374 OFFCURVE",
"722 393 CURVE",
"707 429 OFFCURVE",
"662 447 OFFCURVE",
"623 458 CURVE SMOOTH",
"505 490 LINE SMOOTH",
"434 509 OFFCURVE",
"365 527 OFFCURVE",
"301 562 CURVE SMOOTH",
"262 583 OFFCURVE",
"228 614 OFFCURVE",
"208 653 CURVE SMOOTH",
"189 688 OFFCURVE",
"180 735 OFFCURVE",
"180 778 CURVE SMOOTH",
"180 794 LINE SMOOTH",
"180 830 OFFCURVE",
"188 870 OFFCURVE",
"206 910 CURVE SMOOTH",
"224 949 OFFCURVE",
"252 985 OFFCURVE",
"290 1013 CURVE SMOOTH",
"309 1027 OFFCURVE",
"330 1038 OFFCURVE",
"354 1047 CURVE SMOOTH",
"438 1076 OFFCURVE",
"519 1078 OFFCURVE",
"600 1079 CURVE",
"605 1078 OFFCURVE",
"611 1078 OFFCURVE",
"616 1078 CURVE SMOOTH",
"621 1078 OFFCURVE",
"627 1078 OFFCURVE",
"632 1078 CURVE",
"708 1075 OFFCURVE",
"783 1073 OFFCURVE",
"850 1042 CURVE",
"879 1025 LINE SMOOTH",
"908 1008 OFFCURVE",
"935 990 OFFCURVE",
"966 966 CURVE",
"957 956 OFFCURVE",
"948 945 OFFCURVE",
"938 933 CURVE",
"928 920 OFFCURVE",
"918 908 OFFCURVE",
"908 895 CURVE",
"897 882 OFFCURVE",
"887 870 OFFCURVE",
"877 858 CURVE",
"867 845 OFFCURVE",
"858 834 OFFCURVE",
"849 823 CURVE",
"822 847 OFFCURVE",
"798 862 OFFCURVE",
"774 877 CURVE SMOOTH",
"750 891 LINE SMOOTH",
"703 918 OFFCURVE",
"645 926 OFFCURVE",
"588 926 CURVE SMOOTH",
"541 926 OFFCURVE",
"490 924 OFFCURVE",
"430 903 CURVE",
"398 888 OFFCURVE",
"374 856 OFFCURVE",
"367 824 CURVE SMOOTH",
"365 816 OFFCURVE",
"364 809 OFFCURVE",
"364 802 CURVE SMOOTH",
"364 788 LINE SMOOTH",
"364 764 OFFCURVE",
"373 745 OFFCURVE",
"388 729 CURVE SMOOTH",
"403 713 OFFCURVE",
"422 699 OFFCURVE",
"442 690 CURVE",
"479 675 OFFCURVE",
"529 661 OFFCURVE",
"580 646 CURVE",
"623 635 LINE SMOOTH",
"688 618 OFFCURVE",
"751 600 OFFCURVE",
"814 571 CURVE SMOOTH",
"849 554 OFFCURVE",
"880 532 OFFCURVE",
"905 505 CURVE SMOOTH",
"946 458 OFFCURVE",
"965 396 OFFCURVE",
"965 328 CURVE SMOOTH",
"965 323 OFFCURVE",
"965 319 OFFCURVE",
"965 314 CURVE SMOOTH",
"965 309 OFFCURVE",
"965 305 OFFCURVE",
"964 300 CURVE"
);
}
);
width = 1103;
}
);
unicode = 0073;
},
{
glyphname = t;
lastChange = "2012-07-01 20:32:51 +0000";
layers = (
{
anchors = (
{
name = bottom;
position = "{313, 0}";
},
{
name = center;
position = "{313, 547}";
}
);
layerId = "48AD09F1-34FF-452A-86DA-A72F7276366E";
name = Regular;
paths = (
{
closed = 1;
nodes = (
"454 8 OFFCURVE",
"385 13 OFFCURVE",
"316 17 CURVE",
"306 17 LINE SMOOTH",
"250 17 OFFCURVE",
"204 38 OFFCURVE",
"172 72 CURVE SMOOTH",
"140 106 OFFCURVE",
"121 152 OFFCURVE",
"121 204 CURVE SMOOTH",
"121 217 OFFCURVE",
"122 230 OFFCURVE",
"125 245 CURVE",
"152 477 OFFCURVE",
"180 718 OFFCURVE",
"201 950 CURVE",
"196 950 OFFCURVE",
"189 950 OFFCURVE",
"182 951 CURVE",
"174 951 OFFCURVE",
"167 951 OFFCURVE",
"162 951 CURVE",
"148 952 OFFCURVE",
"133 952 OFFCURVE",
"118 953 CURVE SMOOTH",
"103 954 OFFCURVE",
"88 955 OFFCURVE",
"75 956 CURVE",
"76 980 OFFCURVE",
"78 1002 OFFCURVE",
"79 1022 CURVE SMOOTH",
"80 1042 OFFCURVE",
"82 1064 OFFCURVE",
"83 1087 CURVE",
"127 1080 OFFCURVE",
"170 1078 OFFCURVE",
"217 1075 CURVE",
"221 1123 OFFCURVE",
"225 1173 OFFCURVE",
"230 1224 CURVE SMOOTH",
"234 1275 OFFCURVE",
"238 1325 OFFCURVE",
"241 1374 CURVE",
"258 1372 OFFCURVE",
"274 1371 OFFCURVE",
"288 1371 CURVE",
"301 1370 OFFCURVE",
"317 1369 OFFCURVE",
"334 1368 CURVE",
"339 1368 OFFCURVE",
"344 1368 OFFCURVE",
"349 1367 CURVE SMOOTH",
"354 1366 OFFCURVE",
"359 1366 OFFCURVE",
"364 1366 CURVE",
"363 1333 OFFCURVE",
"361 1302 OFFCURVE",
"359 1272 CURVE SMOOTH",
"356 1242 OFFCURVE",
"354 1211 OFFCURVE",
"352 1178 CURVE SMOOTH",
"345 1072 LINE",
"417 1072 LINE SMOOTH",
"466 1072 OFFCURVE",
"515 1072 OFFCURVE",
"564 1075 CURVE",
"562 1058 OFFCURVE",
"561 1044 OFFCURVE",
"560 1031 CURVE SMOOTH",
"559 1018 OFFCURVE",
"558 1003 OFFCURVE",
"557 986 CURVE",
"553 950 LINE",
"480 947 OFFCURVE",
"406 947 OFFCURVE",
"333 947 CURVE",
"298 463 LINE",
"298 446 LINE SMOOTH",
"298 411 OFFCURVE",
"300 378 OFFCURVE",
"315 351 CURVE",
"334 324 OFFCURVE",
"366 315 OFFCURVE",
"397 308 CURVE",
"416 305 OFFCURVE",
"438 303 OFFCURVE",
"463 302 CURVE",
"472 301 OFFCURVE",
"481 301 OFFCURVE",
"490 300 CURVE SMOOTH",
"499 299 OFFCURVE",
"508 298 OFFCURVE",
"517 297 CURVE",
"514 246 OFFCURVE",
"512 198 OFFCURVE",
"512 151 CURVE SMOOTH",
"512 99 OFFCURVE",
"515 48 OFFCURVE",
"522 -1 CURVE"
);
}
);
width = 625;
}
);
unicode = 0074;
},
{
glyphname = u;
lastChange = "2012-07-01 20:32:51 +0000";
layers = (
{
anchors = (
{
name = ogonek;
position = "{1083, 10}";
},
{
name = top;
position = "{602, 1094}";
}
);
layerId = "48AD09F1-34FF-452A-86DA-A72F7276366E";
name = Regular;
paths = (
{
closed = 1;
nodes = (
"350 1049 LINE SMOOTH",
"350 877 OFFCURVE",
"341 708 OFFCURVE",
"328 533 CURVE SMOOTH",
"327 517 LINE SMOOTH",
"326 500 OFFCURVE",
"325 483 OFFCURVE",
"325 466 CURVE SMOOTH",
"325 421 OFFCURVE",
"331 375 OFFCURVE",
"350 331 CURVE",
"367 300 OFFCURVE",
"395 283 OFFCURVE",
"427 273 CURVE SMOOTH",
"458 263 OFFCURVE",
"493 259 OFFCURVE",
"526 259 CURVE SMOOTH",
"531 259 LINE SMOOTH",
"563 259 OFFCURVE",
"599 264 OFFCURVE",
"632 277 CURVE SMOOTH",
"664 289 OFFCURVE",
"695 309 OFFCURVE",
"719 340 CURVE SMOOTH",
"747 376 OFFCURVE",
"767 416 OFFCURVE",
"781 457 CURVE SMOOTH",
"795 498 OFFCURVE",
"804 540 OFFCURVE",
"813 580 CURVE SMOOTH",
"816 593 LINE SMOOTH",
"831 669 OFFCURVE",
"845 744 OFFCURVE",
"861 820 CURVE SMOOTH",
"878 900 OFFCURVE",
"896 984 OFFCURVE",
"916 1064 CURVE",
"945 1065 OFFCURVE",
"972 1067 OFFCURVE",
"998 1068 CURVE SMOOTH",
"1023 1069 OFFCURVE",
"1050 1070 OFFCURVE",
"1078 1072 CURVE",
"1005 717 OFFCURVE",
"955 359 OFFCURVE",
"952 12 CURVE",
"929 15 OFFCURVE",
"908 16 OFFCURVE",
"889 17 CURVE SMOOTH",
"870 18 OFFCURVE",
"849 19 OFFCURVE",
"826 20 CURVE SMOOTH",
"788 22 LINE",
"793 82 OFFCURVE",
"801 139 OFFCURVE",
"809 200 CURVE",
"793 203 LINE",
"758 144 OFFCURVE",
"710 85 OFFCURVE",
"650 53 CURVE SMOOTH",
"587 20 OFFCURVE",
"516 12 OFFCURVE",
"453 12 CURVE SMOOTH",
"406 12 OFFCURVE",
"359 14 OFFCURVE",
"316 26 CURVE SMOOTH",
"273 37 OFFCURVE",
"235 56 OFFCURVE",
"208 89 CURVE SMOOTH",
"169 136 OFFCURVE",
"159 204 OFFCURVE",
"159 273 CURVE SMOOTH",
"159 304 OFFCURVE",
"161 333 OFFCURVE",
"164 364 CURVE SMOOTH",
"185 555 OFFCURVE",
"198 748 OFFCURVE",
"198 937 CURVE SMOOTH",
"198 986 OFFCURVE",
"197 1034 OFFCURVE",
"195 1081 CURVE",
"212 1080 OFFCURVE",
"215 1080 OFFCURVE",
"230 1077 CURVE",
"257 1074 OFFCURVE",
"282 1072 OFFCURVE",
"306 1072 CURVE SMOOTH",
"322 1072 OFFCURVE",
"337 1073 OFFCURVE",
"350 1076 CURVE"
);
}
);
width = 1203;
}
);
unicode = 0075;
},
{
glyphname = v;
lastChange = "2012-07-01 20:32:51 +0000";
layers = (
{
layerId = "48AD09F1-34FF-452A-86DA-A72F7276366E";
name = Regular;
paths = (
{
closed = 1;
nodes = (
"555 29 OFFCURVE",
"455 31 OFFCURVE",
"356 31 CURVE",
"339 96 OFFCURVE",
"324 161 OFFCURVE",
"310 224 CURVE SMOOTH",
"295 287 OFFCURVE",
"280 352 OFFCURVE",
"265 419 CURVE SMOOTH",
"214 647 OFFCURVE",
"163 867 OFFCURVE",
"95 1079 CURVE",
"150 1072 OFFCURVE",
"192 1071 OFFCURVE",
"244 1068 CURVE",
"247 1068 OFFCURVE",
"249 1068 OFFCURVE",
"251 1068 CURVE",
"253 1067 OFFCURVE",
"255 1067 OFFCURVE",
"258 1067 CURVE",
"318 920 OFFCURVE",
"368 775 OFFCURVE",
"419 624 CURVE SMOOTH",
"517 329 LINE",
"642 586 OFFCURVE",
"766 839 OFFCURVE",
"899 1068 CURVE",
"946 1071 OFFCURVE",
"989 1074 OFFCURVE",
"1037 1078 CURVE SMOOTH",
"1072 1081 LINE",
"896 734 OFFCURVE",
"757 376 OFFCURVE",
"652 24 CURVE"
);
}
);
width = 1133;
}
);
unicode = 0076;
},
{
glyphname = w;
lastChange = "2012-07-01 20:32:51 +0000";
layers = (
{
anchors = (
{
name = top;
position = "{846, 1094}";
}
);
layerId = "48AD09F1-34FF-452A-86DA-A72F7276366E";
name = Regular;
paths = (
{
closed = 1;
nodes = (
"1153 22 OFFCURVE",
"1072 23 OFFCURVE",
"991 26 CURVE",
"923 143 OFFCURVE",
"860 269 OFFCURVE",
"796 404 CURVE",
"723 283 OFFCURVE",
"640 150 OFFCURVE",
"564 30 CURVE",
"550 30 OFFCURVE",
"537 30 OFFCURVE",
"526 30 CURVE",
"514 29 OFFCURVE",
"501 29 OFFCURVE",
"487 29 CURVE SMOOTH",
"444 29 OFFCURVE",
"405 28 OFFCURVE",
"362 27 CURVE SMOOTH",
"327 27 LINE",
"300 212 LINE SMOOTH",
"279 360 OFFCURVE",
"259 506 OFFCURVE",
"232 650 CURVE SMOOTH",
"204 794 OFFCURVE",
"171 935 OFFCURVE",
"126 1070 CURVE",
"156 1067 OFFCURVE",
"184 1066 OFFCURVE",
"209 1065 CURVE SMOOTH",
"234 1064 OFFCURVE",
"261 1062 OFFCURVE",
"290 1061 CURVE SMOOTH",
"293 1061 OFFCURVE",
"295 1061 OFFCURVE",
"298 1061 CURVE",
"300 1060 OFFCURVE",
"302 1060 OFFCURVE",
"305 1060 CURVE",
"388 819 OFFCURVE",
"442 565 OFFCURVE",
"493 305 CURVE",
"558 382 OFFCURVE",
"633 476 OFFCURVE",
"696 555 CURVE SMOOTH",
"763 638 LINE",
"862 638 LINE",
"897 584 OFFCURVE",
"933 528 OFFCURVE",
"970 470 CURVE SMOOTH",
"1007 411 OFFCURVE",
"1044 355 OFFCURVE",
"1079 301 CURVE",
"1171 564 OFFCURVE",
"1266 817 OFFCURVE",
"1394 1061 CURVE",
"1458 1064 OFFCURVE",
"1520 1067 OFFCURVE",
"1584 1071 CURVE",
"1586 1071 OFFCURVE",
"1588 1071 OFFCURVE",
"1589 1072 CURVE",
"1590 1072 OFFCURVE",
"1592 1072 OFFCURVE",
"1594 1072 CURVE",
"1425 775 OFFCURVE",
"1313 452 OFFCURVE",
"1244 125 CURVE SMOOTH",
"1236 86 OFFCURVE",
"1228 46 OFFCURVE",
"1221 7 CURVE"
);
}
);
width = 1692;
}
);
unicode = 0077;
},
{
glyphname = x;
lastChange = "2012-07-01 20:32:51 +0000";
layers = (
{
layerId = "48AD09F1-34FF-452A-86DA-A72F7276366E";
name = Regular;
paths = (
{
closed = 1;
nodes = (
"1181 -10 LINE",
"1077 -2 OFFCURVE",
"969 3 OFFCURVE",
"864 6 CURVE",
"793 130 OFFCURVE",
"733 247 OFFCURVE",
"672 378 CURVE",
"592 253 OFFCURVE",
"514 131 OFFCURVE",
"430 8 CURVE",
"331 7 OFFCURVE",
"209 2 OFFCURVE",
"109 -3 CURVE",
"262 164 OFFCURVE",
"422 341 OFFCURVE",
"566 516 CURVE",
"511 611 OFFCURVE",
"453 710 OFFCURVE",
"393 808 CURVE SMOOTH",
"333 906 OFFCURVE",
"272 1002 OFFCURVE",
"213 1094 CURVE",
"289 1087 OFFCURVE",
"389 1080 OFFCURVE",
"465 1077 CURVE",
"549 938 OFFCURVE",
"620 809 OFFCURVE",
"696 665 CURVE",
"792 802 OFFCURVE",
"890 939 OFFCURVE",
"993 1072 CURVE",
"1016 1073 OFFCURVE",
"1040 1073 OFFCURVE",
"1064 1074 CURVE SMOOTH",
"1088 1075 OFFCURVE",
"1111 1076 OFFCURVE",
"1134 1078 CURVE",
"1221 1078 LINE",
"1062 897 OFFCURVE",
"926 723 OFFCURVE",
"793 548 CURVE",
"922 361 OFFCURVE",
"1052 183 OFFCURVE",
"1193 7 CURVE"
);
}
);
width = 1343;
}
);
unicode = 0078;
},
{
glyphname = y;
lastChange = "2012-07-01 20:32:51 +0000";
layers = (
{
anchors = (
{
name = top;
position = "{605, 1094}";
}
);
layerId = "48AD09F1-34FF-452A-86DA-A72F7276366E";
name = Regular;
paths = (
{
closed = 1;
nodes = (
"270 -387 LINE SMOOTH",
"265 -387 OFFCURVE",
"259 -387 OFFCURVE",
"254 -387 CURVE",
"248 -388 OFFCURVE",
"242 -388 OFFCURVE",
"237 -388 CURVE SMOOTH",
"206 -388 OFFCURVE",
"166 -386 OFFCURVE",
"135 -383 CURVE",
"146 -303 OFFCURVE",
"153 -230 OFFCURVE",
"161 -151 CURVE",
"162 -149 OFFCURVE",
"162 -146 OFFCURVE",
"162 -142 CURVE",
"167 -143 OFFCURVE",
"173 -144 OFFCURVE",
"179 -144 CURVE SMOOTH",
"184 -144 OFFCURVE",
"190 -144 OFFCURVE",
"196 -144 CURVE SMOOTH",
"202 -144 OFFCURVE",
"208 -144 OFFCURVE",
"214 -144 CURVE SMOOTH",
"220 -144 OFFCURVE",
"226 -144 OFFCURVE",
"231 -143 CURVE",
"292 -142 OFFCURVE",
"363 -124 OFFCURVE",
"423 -88 CURVE SMOOTH",
"482 -52 OFFCURVE",
"530 0 OFFCURVE",
"550 71 CURVE SMOOTH",
"559 103 OFFCURVE",
"563 123 OFFCURVE",
"565 138 CURVE SMOOTH",
"566 145 OFFCURVE",
"566 151 OFFCURVE",
"567 156 CURVE",
"567 161 OFFCURVE",
"567 165 OFFCURVE",
"568 169 CURVE",
"451 476 OFFCURVE",
"329 776 OFFCURVE",
"204 1079 CURVE",
"225 1075 OFFCURVE",
"244 1073 OFFCURVE",
"261 1071 CURVE SMOOTH",
"278 1069 OFFCURVE",
"296 1067 OFFCURVE",
"319 1066 CURVE SMOOTH",
"349 1064 LINE",
"458 865 OFFCURVE",
"567 657 OFFCURVE",
"670 454 CURVE",
"683 475 LINE SMOOTH",
"800 671 OFFCURVE",
"925 876 OFFCURVE",
"1050 1067 CURVE",
"1073 1069 OFFCURVE",
"1095 1071 OFFCURVE",
"1117 1073 CURVE",
"1138 1074 OFFCURVE",
"1160 1077 OFFCURVE",
"1183 1080 CURVE",
"998 733 OFFCURVE",
"841 373 OFFCURVE",
"685 13 CURVE SMOOTH",
"670 -20 LINE SMOOTH",
"635 -93 OFFCURVE",
"603 -165 OFFCURVE",
"556 -232 CURVE SMOOTH",
"524 -279 OFFCURVE",
"481 -317 OFFCURVE",
"433 -344 CURVE SMOOTH",
"385 -371 OFFCURVE",
"332 -387 OFFCURVE",
"281 -387 CURVE SMOOTH"
);
}
);
width = 1209;
}
);
unicode = 0079;
},
{
glyphname = z;
lastChange = "2012-07-01 20:32:51 +0000";
layers = (
{
anchors = (
{
name = top;
position = "{552, 1094}";
}
);
layerId = "48AD09F1-34FF-452A-86DA-A72F7276366E";
name = Regular;
paths = (
{
closed = 1;
nodes = (
"96 10 LINE",
"99 35 OFFCURVE",
"102 59 OFFCURVE",
"106 84 CURVE SMOOTH",
"109 107 OFFCURVE",
"113 132 OFFCURVE",
"118 157 CURVE",
"122 182 OFFCURVE",
"125 206 OFFCURVE",
"128 229 CURVE",
"177 282 OFFCURVE",
"224 336 OFFCURVE",
"271 389 CURVE SMOOTH",
"317 442 OFFCURVE",
"364 496 OFFCURVE",
"411 550 CURVE SMOOTH",
"426 567 LINE SMOOTH",
"535 692 OFFCURVE",
"659 832 OFFCURVE",
"772 956 CURVE",
"751 956 OFFCURVE",
"726 956 OFFCURVE",
"699 956 CURVE",
"671 955 OFFCURVE",
"646 955 OFFCURVE",
"625 955 CURVE SMOOTH",
"485 955 OFFCURVE",
"346 959 OFFCURVE",
"209 970 CURVE",
"209 995 OFFCURVE",
"208 1013 OFFCURVE",
"207 1038 CURVE SMOOTH",
"205 1071 LINE",
"352 1056 OFFCURVE",
"497 1050 OFFCURVE",
"649 1050 CURVE SMOOTH",
"753 1050 OFFCURVE",
"859 1052 OFFCURVE",
"964 1057 CURVE",
"961 1039 OFFCURVE",
"959 1022 OFFCURVE",
"958 1007 CURVE SMOOTH",
"957 992 OFFCURVE",
"954 975 OFFCURVE",
"951 957 CURVE",
"838 825 OFFCURVE",
"728 691 OFFCURVE",
"620 555 CURVE SMOOTH",
"607 538 LINE SMOOTH",
"528 439 OFFCURVE",
"439 327 OFFCURVE",
"358 230 CURVE",
"379 230 OFFCURVE",
"403 230 OFFCURVE",
"430 231 CURVE",
"457 231 OFFCURVE",
"481 231 OFFCURVE",
"502 231 CURVE SMOOTH",
"639 231 OFFCURVE",
"772 229 OFFCURVE",
"909 222 CURVE",
"909 207 OFFCURVE",
"909 192 OFFCURVE",
"909 178 CURVE",
"908 163 OFFCURVE",
"908 149 OFFCURVE",
"908 135 CURVE SMOOTH",
"908 94 OFFCURVE",
"909 54 OFFCURVE",
"912 11 CURVE",
"764 24 OFFCURVE",
"617 30 OFFCURVE",
"464 30 CURVE SMOOTH",
"339 30 OFFCURVE",
"212 26 OFFCURVE",
"87 19 CURVE"
);
}
);
width = 1103;
}
);
unicode = 007A;
},
{
glyphname = braceleft;
lastChange = "2012-07-01 20:32:51 +0000";
layers = (
{
layerId = "48AD09F1-34FF-452A-86DA-A72F7276366E";
name = Regular;
paths = (
{
closed = 1;
nodes = (
"363 -376 OFFCURVE",
"302 -347 OFFCURVE",
"259 -302 CURVE SMOOTH",
"215 -258 OFFCURVE",
"189 -197 OFFCURVE",
"189 -128 CURVE SMOOTH",
"189 -113 OFFCURVE",
"190 -98 OFFCURVE",
"193 -83 CURVE",
"201 28 OFFCURVE",
"210 139 OFFCURVE",
"220 250 CURVE",
"222 262 OFFCURVE",
"223 274 OFFCURVE",
"223 285 CURVE SMOOTH",
"223 334 OFFCURVE",
"205 378 OFFCURVE",
"174 409 CURVE SMOOTH",
"142 440 OFFCURVE",
"98 459 OFFCURVE",
"46 459 CURVE SMOOTH",
"42 459 LINE",
"43 472 OFFCURVE",
"44 484 OFFCURVE",
"45 494 CURVE",
"45 514 OFFCURVE",
"48 542 OFFCURVE",
"50 563 CURVE SMOOTH",
"51 574 OFFCURVE",
"52 585 OFFCURVE",
"53 598 CURVE",
"100 599 OFFCURVE",
"143 607 OFFCURVE",
"188 642 CURVE",
"227 681 OFFCURVE",
"246 721 OFFCURVE",
"254 761 CURVE SMOOTH",
"256 770 OFFCURVE",
"257 778 OFFCURVE",
"258 786 CURVE SMOOTH",
"259 793 OFFCURVE",
"259 801 OFFCURVE",
"260 808 CURVE",
"263 865 OFFCURVE",
"267 923 OFFCURVE",
"271 980 CURVE SMOOTH",
"274 1037 OFFCURVE",
"278 1093 OFFCURVE",
"281 1150 CURVE SMOOTH",
"282 1177 OFFCURVE",
"284 1203 OFFCURVE",
"291 1230 CURVE",
"300 1273 OFFCURVE",
"315 1315 OFFCURVE",
"346 1351 CURVE",
"407 1410 OFFCURVE",
"480 1422 OFFCURVE",
"545 1422 CURVE SMOOTH",
"553 1422 LINE SMOOTH",
"600 1422 OFFCURVE",
"647 1422 OFFCURVE",
"694 1425 CURVE",
"682 1288 LINE",
"675 1288 OFFCURVE",
"668 1287 OFFCURVE",
"661 1286 CURVE",
"643 1286 LINE",
"632 1285 OFFCURVE",
"623 1284 OFFCURVE",
"614 1284 CURVE SMOOTH",
"571 1284 OFFCURVE",
"519 1271 OFFCURVE",
"488 1227 CURVE",
"471 1199 OFFCURVE",
"463 1172 OFFCURVE",
"458 1148 CURVE SMOOTH",
"454 1130 OFFCURVE",
"451 1113 OFFCURVE",
"450 1097 CURVE",
"449 1096 OFFCURVE",
"449 1094 OFFCURVE",
"449 1093 CURVE",
"426 760 LINE SMOOTH",
"425 747 OFFCURVE",
"424 734 OFFCURVE",
"421 722 CURVE SMOOTH",
"412 682 OFFCURVE",
"394 642 OFFCURVE",
"365 607 CURVE SMOOTH",
"341 576 OFFCURVE",
"299 550 OFFCURVE",
"256 527 CURVE",
"341 486 OFFCURVE",
"391 399 OFFCURVE",
"391 307 CURVE SMOOTH",
"391 291 LINE",
"387 238 OFFCURVE",
"383 183 OFFCURVE",
"380 126 CURVE SMOOTH",
"376 69 OFFCURVE",
"371 14 OFFCURVE",
"366 -39 CURVE",
"365 -43 OFFCURVE",
"365 -47 OFFCURVE",
"365 -51 CURVE SMOOTH",
"365 -55 OFFCURVE",
"365 -59 OFFCURVE",
"365 -63 CURVE SMOOTH",
"365 -107 OFFCURVE",
"376 -151 OFFCURVE",
"398 -184 CURVE SMOOTH",
"420 -217 OFFCURVE",
"455 -241 OFFCURVE",
"503 -241 CURVE",
"528 -245 LINE SMOOTH",
"534 -246 OFFCURVE",
"541 -247 OFFCURVE",
"549 -248 CURVE SMOOTH",
"557 -249 OFFCURVE",
"564 -250 OFFCURVE",
"571 -251 CURVE",
"570 -276 OFFCURVE",
"569 -301 OFFCURVE",
"569 -324 CURVE",
"568 -348 OFFCURVE",
"568 -372 OFFCURVE",
"567 -397 CURVE",
"526 -389 OFFCURVE",
"482 -381 OFFCURVE",
"435 -377 CURVE"
);
}
);
width = 755;
}
);
unicode = 007B;
},
{
glyphname = bar;
lastChange = "2012-07-01 20:32:51 +0000";
layers = (
{
layerId = "48AD09F1-34FF-452A-86DA-A72F7276366E";
name = Regular;
paths = (
{
closed = 1;
nodes = (
"373 586 LINE",
"364 587 OFFCURVE",
"355 587 OFFCURVE",
"347 587 CURVE SMOOTH",
"338 587 OFFCURVE",
"329 587 OFFCURVE",
"320 587 CURVE SMOOTH",
"273 588 OFFCURVE",
"221 590 OFFCURVE",
"176 594 CURVE",
"209 890 OFFCURVE",
"244 1206 OFFCURVE",
"273 1501 CURVE",
"336 1466 OFFCURVE",
"403 1455 OFFCURVE",
"474 1455 CURVE SMOOTH",
"491 1455 LINE",
"471 1274 OFFCURVE",
"448 1087 OFFCURVE",
"425 906 CURVE SMOOTH",
"386 597 LINE"
);
},
{
closed = 1;
nodes = (
"173 454 LINE",
"199 454 LINE SMOOTH",
"235 454 OFFCURVE",
"272 453 OFFCURVE",
"308 452 CURVE",
"319 451 OFFCURVE",
"331 451 OFFCURVE",
"345 451 CURVE SMOOTH",
"359 451 OFFCURVE",
"372 451 OFFCURVE",
"383 451 CURVE",
"344 156 OFFCURVE",
"302 -160 OFFCURVE",
"271 -453 CURVE",
"207 -425 OFFCURVE",
"137 -412 OFFCURVE",
"65 -412 CURVE SMOOTH",
"50 -412 LINE",
"70 -251 OFFCURVE",
"93 -81 OFFCURVE",
"114 80 CURVE SMOOTH",
"161 443 LINE"
);
}
);
width = 545;
}
);
unicode = 007C;
},
{
glyphname = braceright;
lastChange = "2012-07-01 20:32:51 +0000";
layers = (
{
layerId = "48AD09F1-34FF-452A-86DA-A72F7276366E";
name = Regular;
paths = (
{
closed = 1;
nodes = (
"182 -227 OFFCURVE",
"232 -216 OFFCURVE",
"261 -176 CURVE",
"280 -143 OFFCURVE",
"290 -114 OFFCURVE",
"297 -87 CURVE",
"300 -70 OFFCURVE",
"303 -52 OFFCURVE",
"304 -35 CURVE SMOOTH",
"315 129 LINE SMOOTH",
"317 157 OFFCURVE",
"319 184 OFFCURVE",
"321 211 CURVE",
"322 238 OFFCURVE",
"324 265 OFFCURVE",
"327 293 CURVE",
"328 300 OFFCURVE",
"328 307 OFFCURVE",
"329 314 CURVE",
"329 321 OFFCURVE",
"330 327 OFFCURVE",
"331 334 CURVE",
"339 371 OFFCURVE",
"359 411 OFFCURVE",
"387 446 CURVE SMOOTH",
"415 481 OFFCURVE",
"453 511 OFFCURVE",
"497 531 CURVE",
"450 554 OFFCURVE",
"424 580 OFFCURVE",
"401 607 CURVE",
"374 644 OFFCURVE",
"363 690 OFFCURVE",
"363 739 CURVE SMOOTH",
"363 743 OFFCURVE",
"363 747 OFFCURVE",
"363 752 CURVE SMOOTH",
"363 756 OFFCURVE",
"363 760 OFFCURVE",
"364 764 CURVE",
"366 796 OFFCURVE",
"368 828 OFFCURVE",
"371 859 CURVE SMOOTH",
"373 890 OFFCURVE",
"375 922 OFFCURVE",
"376 954 CURVE SMOOTH",
"384 1094 LINE SMOOTH",
"385 1105 OFFCURVE",
"386 1115 OFFCURVE",
"386 1126 CURVE SMOOTH",
"386 1169 OFFCURVE",
"376 1211 OFFCURVE",
"354 1243 CURVE SMOOTH",
"332 1275 OFFCURVE",
"299 1297 OFFCURVE",
"252 1298 CURVE",
"186 1309 LINE",
"186 1319 OFFCURVE",
"186 1328 OFFCURVE",
"187 1335 CURVE SMOOTH",
"188 1342 OFFCURVE",
"188 1351 OFFCURVE",
"188 1361 CURVE SMOOTH",
"188 1456 LINE",
"231 1446 OFFCURVE",
"274 1439 OFFCURVE",
"317 1434 CURVE",
"389 1433 OFFCURVE",
"450 1407 OFFCURVE",
"494 1364 CURVE SMOOTH",
"537 1320 OFFCURVE",
"563 1259 OFFCURVE",
"563 1191 CURVE SMOOTH",
"563 1174 OFFCURVE",
"561 1157 OFFCURVE",
"558 1138 CURVE",
"557 1110 OFFCURVE",
"555 1082 OFFCURVE",
"552 1054 CURVE SMOOTH",
"547 998 OFFCURVE",
"542 943 OFFCURVE",
"538 888 CURVE SMOOTH",
"536 860 OFFCURVE",
"534 832 OFFCURVE",
"533 805 CURVE",
"531 794 OFFCURVE",
"530 783 OFFCURVE",
"530 773 CURVE SMOOTH",
"530 724 OFFCURVE",
"550 680 OFFCURVE",
"582 648 CURVE SMOOTH",
"614 616 OFFCURVE",
"659 597 OFFCURVE",
"710 597 CURVE",
"702 459 LINE",
"655 458 OFFCURVE",
"611 449 OFFCURVE",
"567 416 CURVE",
"526 377 OFFCURVE",
"506 335 OFFCURVE",
"497 294 CURVE SMOOTH",
"493 277 OFFCURVE",
"491 260 OFFCURVE",
"491 245 CURVE",
"487 188 OFFCURVE",
"483 132 OFFCURVE",
"480 75 CURVE SMOOTH",
"477 18 OFFCURVE",
"473 -38 OFFCURVE",
"470 -95 CURVE SMOOTH",
"467 -147 OFFCURVE",
"458 -193 OFFCURVE",
"441 -234 CURVE SMOOTH",
"432 -255 OFFCURVE",
"420 -274 OFFCURVE",
"404 -292 CURVE",
"344 -352 OFFCURVE",
"272 -365 OFFCURVE",
"208 -365 CURVE SMOOTH",
"164 -365 LINE SMOOTH",
"129 -365 OFFCURVE",
"96 -366 OFFCURVE",
"61 -367 CURVE",
"72 -231 LINE",
"85 -230 OFFCURVE",
"97 -229 OFFCURVE",
"106 -229 CURVE SMOOTH",
"115 -229 OFFCURVE",
"126 -229 OFFCURVE",
"139 -228 CURVE"
);
}
);
width = 753;
}
);
unicode = 007D;
},
